

v -10.474099 -35.046459 -46.158215
v -10.474099 -34.181114 -46.158215
v -9.766664 -34.613787 -45.714213
v -10.919681 -34.613787 -45.448261
v -11.181534 -34.613787 -46.602217
v -10.028516 -34.613787 -46.868169
v -10.474099 34.181114 -46.158215
v -10.474099 35.046459 -46.158215
v -9.766664 34.613787 -45.714213
v -10.919681 34.613787 -45.448261
v -11.181534 34.613787 -46.602217
v -10.028516 34.613787 -46.868169
v 46.120698 -35.046459 -10.638082
v 46.120698 -34.181114 -10.638082
v 46.828133 -34.613787 -10.194081
v 45.675115 -34.613787 -9.928128
v 45.413263 -34.613787 -11.082084
v 46.566280 -34.613787 -11.348036
v 46.120698 34.181114 -10.638082
v 46.120698 35.046459 -10.638082
v 46.828133 34.613787 -10.194081
v 45.675115 34.613787 -9.928128
v 45.413263 34.613787 -11.082084
v 46.566280 34.613787 -11.348036
v 10.474099 -35.046459 46.158215
v 10.474099 -34.181114 46.158215
v 11.181534 -34.613787 46.602217
v 10.028516 -34.613787 46.868169
v 9.766664 -34.613787 45.714213
v 10.919681 -34.613787 45.448261
v 10.474099 34.181114 46.158215
v 10.474099 35.046459 46.158215
v 11.181534 34.613787 46.602217
v 10.028516 34.613787 46.868169
v 9.766664 34.613787 45.714213
v 10.919681 34.613787 45.448261
v -46.120698 -35.046459 10.638082
v -46.120698 -34.181114 10.638082
v -45.413263 -34.613787 11.082084
v -46.566280 -34.613787 11.348036
v -46.828133 -34.613787 10.194081
v -45.675115 -34.613787 9.928128
v -46.120698 34.181114 10.638082
v -46.120698 35.046459 10.638082
v -45.413263 34.613787 11.082084
v -46.566280 34.613787 11.348036
v -46.828133 34.613787 10.194081
v -45.675115 34.613787 9.928128
# 48 vertices

vn -0.531595 0.000000 0.846999
vn 0.846999 0.000000 0.531595
vn 0.000000 -1.000000 0.000000
vn 0.000000 1.000000 0.000000
vn -0.846999 0.000000 -0.531595
vn 0.531595 0.000000 -0.846999
# 6 normals

vt 0.000000 -0.500000 0.000000
vt 0.250000 -0.500000 0.000000
vt 0.000000 0.000000 0.000000
vt 0.500000 -0.500000 0.000000
vt 0.250000 0.000000 0.000000
vt 0.750000 -0.500000 0.000000
vt 0.500000 0.000000 0.000000
vt 1.000000 -0.500000 0.000000
vt 0.750000 0.000000 0.000000
vt 0.000000 -1.000000 0.000000
vt 0.250000 -1.000000 0.000000
vt 0.500000 -1.000000 0.000000
vt 0.750000 -1.000000 0.000000
vt 1.000000 0.000000 0.000000
vt 1.000000 -1.000000 0.000000
# 15 texture coordinates

o W?rfel
usemtl default
f 1/3/3 3/2/2 4/1/1
f 4/3/1 3/3/2 2/1/4
f 1/3/3 4/4/1 5/2/5
f 5/3/5 4/5/1 2/2/4
f 1/3/3 5/6/5 6/4/6
f 6/3/6 5/7/5 2/4/4
f 1/3/3 6/8/6 3/6/2
f 3/3/2 6/9/6 2/6/4
f 7/3/3 9/2/2 10/1/1
f 10/3/1 9/3/2 8/1/4
f 7/3/3 10/4/1 11/2/5
f 11/3/5 10/5/1 8/2/4
f 7/3/3 11/6/5 12/4/6
f 12/3/6 11/7/5 8/4/4
f 7/3/3 12/8/6 9/6/2
f 9/3/2 12/9/6 8/6/4
f 13/3/3 15/2/2 16/1/1
f 16/3/1 15/3/2 14/1/4
f 13/3/3 16/4/1 17/2/5
f 17/3/5 16/5/1 14/2/4
f 13/3/3 17/6/5 18/4/6
f 18/3/6 17/7/5 14/4/4
f 13/3/3 18/8/6 15/6/2
f 15/3/2 18/9/6 14/6/4
f 19/3/3 21/2/2 22/1/1
f 22/3/1 21/3/2 20/1/4
f 19/3/3 22/4/1 23/2/5
f 23/3/5 22/5/1 20/2/4
f 19/3/3 23/6/5 24/4/6
f 24/3/6 23/7/5 20/4/4
f 19/3/3 24/8/6 21/6/2
f 21/3/2 24/9/6 20/6/4
f 25/3/3 27/2/2 28/1/1
f 28/3/1 27/3/2 26/1/4
f 25/3/3 28/4/1 29/2/5
f 29/3/5 28/5/1 26/2/4
f 25/3/3 29/6/5 30/4/6
f 30/3/6 29/7/5 26/4/4
f 25/3/3 30/8/6 27/6/2
f 27/3/2 30/9/6 26/6/4
f 31/3/3 33/2/2 34/1/1
f 34/3/1 33/3/2 32/1/4
f 31/3/3 34/4/1 35/2/5
f 35/3/5 34/5/1 32/2/4
f 31/3/3 35/6/5 36/4/6
f 36/3/6 35/7/5 32/4/4
f 31/3/3 36/8/6 33/6/2
f 33/3/2 36/9/6 32/6/4
f 37/3/3 39/2/2 40/1/1
f 40/3/1 39/3/2 38/1/4
f 37/3/3 40/4/1 41/2/5
f 41/3/5 40/5/1 38/2/4
f 37/3/3 41/6/5 42/4/6
f 42/3/6 41/7/5 38/4/4
f 37/3/3 42/8/6 39/6/2
f 39/3/2 42/9/6 38/6/4
f 43/3/3 45/2/2 46/1/1
f 46/3/1 45/3/2 44/1/4
f 43/3/3 46/4/1 47/2/5
f 47/3/5 46/5/1 44/2/4
f 43/3/3 47/6/5 48/4/6
f 48/3/6 47/7/5 44/4/4
f 43/3/3 48/8/6 45/6/2
f 45/3/2 48/9/6 44/6/4
f 4/11/1 10/5/1 11/3/5 5/10/5
f 5/12/5 11/7/5 12/5/6 6/11/6
f 6/13/6 12/9/6 9/7/2 3/12/2
f 3/15/2 9/14/2 10/9/1 4/13/1
f 12/11/6 24/5/6 19/3/3 7/10/3
f 7/12/3 19/7/3 22/5/1 10/11/1
f 10/13/1 22/9/1 20/7/4 8/12/4
f 8/15/4 20/14/4 24/9/6 12/13/6
f 24/11/6 18/5/6 17/3/5 23/10/5
f 23/12/5 17/7/5 16/5/1 22/11/1
f 22/13/1 16/9/1 15/7/2 21/12/2
f 21/15/2 15/14/2 18/9/6 24/13/6
f 16/11/1 4/5/1 1/3/3 13/10/3
f 13/12/3 1/7/3 6/5/6 18/11/6
f 18/13/6 6/9/6 2/7/4 14/12/4
f 14/15/4 2/14/4 4/9/1 16/13/1
f 19/11/3 31/5/3 35/3/5 23/10/5
f 23/12/5 35/7/5 32/5/4 20/11/4
f 20/13/4 32/9/4 33/7/2 21/12/2
f 21/15/2 33/14/2 31/9/3 19/13/3
f 36/11/6 30/5/6 29/3/5 35/10/5
f 35/12/5 29/7/5 28/5/1 34/11/1
f 34/13/1 28/9/1 27/7/2 33/12/2
f 33/15/2 27/14/2 30/9/6 36/13/6
f 26/11/4 14/5/4 17/3/5 29/10/5
f 29/12/5 17/7/5 13/5/3 25/11/3
f 25/13/3 13/9/3 15/7/2 27/12/2
f 27/15/2 15/14/2 14/9/4 26/13/4
f 34/11/1 46/5/1 43/3/3 31/10/3
f 31/12/3 43/7/3 48/5/6 36/11/6
f 36/13/6 48/9/6 44/7/4 32/12/4
f 32/15/4 44/14/4 46/9/1 34/13/1
f 48/11/6 42/5/6 41/3/5 47/10/5
f 47/12/5 41/7/5 40/5/1 46/11/1
f 46/13/1 40/9/1 39/7/2 45/12/2
f 45/15/2 39/14/2 42/9/6 48/13/6
f 42/11/6 30/5/6 25/3/3 37/10/3
f 37/12/3 25/7/3 28/5/1 40/11/1
f 40/13/1 28/9/1 26/7/4 38/12/4
f 38/15/4 26/14/4 30/9/6 42/13/6
f 44/11/4 8/5/4 11/3/5 47/10/5
f 47/12/5 11/7/5 7/5/3 43/11/3
f 43/13/3 7/9/3 9/7/2 45/12/2
f 45/15/2 9/14/2 8/9/4 44/13/4
f 1/11/3 37/5/3 41/3/5 5/10/5
f 5/12/5 41/7/5 38/5/4 2/11/4
f 2/13/4 38/9/4 39/7/2 3/12/2
f 3/15/2 39/14/2 37/9/3 1/13/3

