<svg width="71" height="69" viewBox="0 0 71 69" fill="none" xmlns="http://www.w3.org/2000/svg">
<path d="M23 0.5H48C60.4264 0.5 70.5 10.5736 70.5 23V46C70.5 58.4264 60.4264 68.5 48 68.5H23C10.5736 68.5 0.5 58.4264 0.5 46V23C0.5 10.5736 10.5736 0.5 23 0.5Z" fill="#E5FF00"/>
<path d="M49 39.9969V27.9969C48.9989 26.9262 48.4273 25.9373 47.5 25.4019L37 19.4019C36.0718 18.866 34.9282 18.866 34 19.4019L23.5 25.4019C22.5727 25.9373 22.0011 26.9262 22 27.9969V39.9969C22.0011 41.0676 22.5727 42.0566 23.5 42.5919L34 48.5919C34.9282 49.1278 36.0718 49.1278 37 48.5919L47.5 42.5919C48.4273 42.0566 48.9989 41.0676 49 39.9969Z" stroke="#242424" stroke-linecap="round" stroke-linejoin="round"/>
<path d="M22.4043 26.4369L35.4993 34.0119L48.5943 26.4369" stroke="#242424" stroke-linecap="round" stroke-linejoin="round"/>
<path d="M35.5 49.1169V33.9969" stroke="#242424" stroke-linecap="round" stroke-linejoin="round"/>
</svg>
