<svg width="105" height="41" viewBox="0 0 105 41" fill="none" xmlns="http://www.w3.org/2000/svg">
<g filter="url(#filter0_d_153_136)">
<path d="M20 0.5H84.7944C95.564 0.5 104.294 9.23045 104.294 20V20.7539C104.294 31.5235 95.564 40.2539 84.7944 40.2539H20C9.23045 40.2539 0.5 31.5235 0.5 20.7539V20C0.5 9.23045 9.23045 0.5 20 0.5Z" stroke="#D0FD0C" shape-rendering="crispEdges"/>
</g>
<path d="M23.0239 26.048C21.9466 26.048 20.9706 25.8027 20.0959 25.312C19.2213 24.8213 18.5333 24.1493 18.0319 23.296C17.5306 22.432 17.2799 21.4667 17.2799 20.4C17.2799 19.3333 17.5306 18.3733 18.0319 17.52C18.5333 16.656 19.2213 15.9787 20.0959 15.488C20.9706 14.9973 21.9466 14.752 23.0239 14.752C23.7813 14.752 24.4853 14.8747 25.1359 15.12C25.7973 15.3547 26.3626 15.7067 26.8319 16.176L26.6399 16.4C25.7013 15.504 24.4959 15.056 23.0239 15.056C22.0106 15.056 21.0879 15.2907 20.2559 15.76C19.4346 16.2293 18.7839 16.8747 18.3039 17.696C17.8346 18.5067 17.5999 19.408 17.5999 20.4C17.5999 21.392 17.8346 22.2987 18.3039 23.12C18.7839 23.9307 19.4346 24.5707 20.2559 25.04C21.0879 25.5093 22.0106 25.744 23.0239 25.744C24.4853 25.744 25.6906 25.2907 26.6399 24.384L26.8319 24.608C26.3626 25.0773 25.7973 25.4347 25.1359 25.68C24.4746 25.9253 23.7706 26.048 23.0239 26.048ZM32.1847 26.048C31.4274 26.048 30.7394 25.872 30.1207 25.52C29.5127 25.1573 29.0327 24.656 28.6807 24.016C28.3394 23.376 28.1687 22.656 28.1687 21.856C28.1687 21.056 28.3394 20.3413 28.6807 19.712C29.0327 19.072 29.5127 18.576 30.1207 18.224C30.7394 17.8613 31.4274 17.68 32.1847 17.68C32.942 17.68 33.6247 17.8613 34.2327 18.224C34.8514 18.576 35.3314 19.072 35.6727 19.712C36.0247 20.3413 36.2007 21.056 36.2007 21.856C36.2007 22.656 36.0247 23.376 35.6727 24.016C35.3314 24.656 34.8514 25.1573 34.2327 25.52C33.6247 25.872 32.942 26.048 32.1847 26.048ZM32.1847 25.744C32.878 25.744 33.5074 25.5787 34.0727 25.248C34.638 24.9173 35.0807 24.4587 35.4007 23.872C35.7207 23.2747 35.8807 22.6027 35.8807 21.856C35.8807 21.1093 35.7207 20.4427 35.4007 19.856C35.0807 19.2587 34.638 18.8 34.0727 18.48C33.5074 18.1493 32.878 17.984 32.1847 17.984C31.4914 17.984 30.862 18.1493 30.2967 18.48C29.7314 18.8 29.2887 19.2587 28.9687 19.856C28.6487 20.4427 28.4887 21.1093 28.4887 21.856C28.4887 22.6027 28.6487 23.2747 28.9687 23.872C29.2887 24.4587 29.7314 24.9173 30.2967 25.248C30.862 25.5787 31.4914 25.744 32.1847 25.744ZM42.7023 17.68C43.737 17.68 44.5476 17.9787 45.1343 18.576C45.721 19.1627 46.0143 20.0107 46.0143 21.12V26H45.6943V21.12C45.6943 20.1067 45.433 19.3333 44.9103 18.8C44.3983 18.256 43.6676 17.984 42.7183 17.984C41.641 17.984 40.7876 18.3093 40.1583 18.96C39.5396 19.6 39.2303 20.448 39.2303 21.504V26H38.9103V17.728H39.2303V19.936C39.4863 19.232 39.913 18.6827 40.5103 18.288C41.1076 17.8827 41.8383 17.68 42.7023 17.68ZM53.3418 25.456C53.1605 25.648 52.9205 25.7973 52.6218 25.904C52.3338 26 52.0351 26.048 51.7258 26.048C51.0858 26.048 50.5898 25.8667 50.2378 25.504C49.8965 25.1307 49.7258 24.6347 49.7258 24.016V18.032H48.1258V17.728H49.7258V15.92H50.0458V17.728H52.8458V18.032H50.0458V23.936C50.0458 24.5227 50.1898 24.9707 50.4778 25.28C50.7658 25.5893 51.1871 25.744 51.7418 25.744C52.2965 25.744 52.7551 25.5733 53.1178 25.232L53.3418 25.456ZM55.8009 17.728H56.1209V26H55.8009V17.728ZM55.9609 15.44C55.8436 15.44 55.7423 15.3973 55.6569 15.312C55.5823 15.2267 55.5449 15.1307 55.5449 15.024C55.5449 14.9067 55.5823 14.8107 55.6569 14.736C55.7423 14.6507 55.8436 14.608 55.9609 14.608C56.0676 14.608 56.1636 14.6507 56.2489 14.736C56.3343 14.8107 56.3769 14.9067 56.3769 15.024C56.3769 15.1307 56.3343 15.2267 56.2489 15.312C56.1636 15.3973 56.0676 15.44 55.9609 15.44ZM63.5929 17.68C64.6276 17.68 65.4383 17.9787 66.0249 18.576C66.6116 19.1627 66.9049 20.0107 66.9049 21.12V26H66.5849V21.12C66.5849 20.1067 66.3236 19.3333 65.8009 18.8C65.2889 18.256 64.5583 17.984 63.6089 17.984C62.5316 17.984 61.6783 18.3093 61.0489 18.96C60.4303 19.6 60.1209 20.448 60.1209 21.504V26H59.8009V17.728H60.1209V19.936C60.3769 19.232 60.8036 18.6827 61.4009 18.288C61.9983 17.8827 62.7289 17.68 63.5929 17.68ZM77.4324 17.728V26H77.1124V23.808C76.8671 24.512 76.4564 25.0613 75.8804 25.456C75.3044 25.8507 74.6058 26.048 73.7844 26.048C72.7178 26.048 71.8858 25.7547 71.2884 25.168C70.6911 24.5707 70.3924 23.7173 70.3924 22.608V17.728H70.7124V22.608C70.7124 23.6213 70.9791 24.4 71.5124 24.944C72.0458 25.4773 72.7978 25.744 73.7684 25.744C74.8031 25.744 75.6191 25.424 76.2164 24.784C76.8138 24.1333 77.1124 23.28 77.1124 22.224V17.728H77.4324ZM87.8014 21.856H80.4414C80.4414 22.6027 80.6068 23.2747 80.9374 23.872C81.2681 24.4587 81.7214 24.9173 82.2974 25.248C82.8841 25.5787 83.5401 25.744 84.2654 25.744C84.8308 25.744 85.3588 25.6373 85.8494 25.424C86.3508 25.2 86.7614 24.88 87.0814 24.464L87.3054 24.688C86.9428 25.1253 86.4948 25.4613 85.9614 25.696C85.4281 25.9307 84.8628 26.048 84.2654 26.048C83.4761 26.048 82.7668 25.872 82.1374 25.52C81.5188 25.1573 81.0281 24.656 80.6654 24.016C80.3134 23.376 80.1374 22.656 80.1374 21.856C80.1374 21.056 80.3028 20.3413 80.6334 19.712C80.9641 19.072 81.4174 18.576 81.9934 18.224C82.5801 17.8613 83.2361 17.68 83.9614 17.68C84.6761 17.68 85.3268 17.856 85.9134 18.208C86.5001 18.56 86.9588 19.0453 87.2894 19.664C87.6308 20.2827 87.8014 20.9867 87.8014 21.776V21.856ZM83.9614 17.984C83.3214 17.984 82.7401 18.1387 82.2174 18.448C81.6948 18.7573 81.2734 19.184 80.9534 19.728C80.6441 20.272 80.4734 20.88 80.4414 21.552H87.4974C87.4654 20.88 87.2894 20.272 86.9694 19.728C86.6494 19.184 86.2281 18.7573 85.7054 18.448C85.1828 18.1387 84.6014 17.984 83.9614 17.984Z" fill="#F5F1E6"/>
<path d="M20.0959 25.312L20.3406 24.8759L20.0959 25.312ZM18.0319 23.296L17.5995 23.5469L17.6008 23.5493L18.0319 23.296ZM18.0319 17.52L18.463 17.7733L18.4644 17.7709L18.0319 17.52ZM20.0959 15.488L20.3406 15.9241L20.0959 15.488ZM25.1359 15.12L24.9595 15.5879L24.9687 15.5912L25.1359 15.12ZM26.8319 16.176L27.2116 16.5014L27.5129 16.1498L27.1855 15.8224L26.8319 16.176ZM26.6399 16.4L26.2947 16.7617L26.6763 17.1259L27.0196 16.7254L26.6399 16.4ZM20.2559 15.76L20.0103 15.3245L20.0079 15.3259L20.2559 15.76ZM18.3039 17.696L17.8722 17.4437L17.8712 17.4455L18.3039 17.696ZM18.3039 23.12L17.8698 23.3681L17.8737 23.3747L18.3039 23.12ZM20.2559 25.04L20.0079 25.4741L20.0103 25.4755L20.2559 25.04ZM26.6399 24.384L27.0196 24.0586L26.6762 23.658L26.2946 24.0224L26.6399 24.384ZM26.8319 24.608L27.1855 24.9616L27.5129 24.6342L27.2116 24.2826L26.8319 24.608ZM25.1359 25.68L24.962 25.2112L25.1359 25.68ZM23.0239 25.548C22.0257 25.548 21.135 25.3216 20.3406 24.8759L19.8513 25.7481C20.8062 26.2837 21.8675 26.548 23.0239 26.548V25.548ZM20.3406 24.8759C19.5421 24.428 18.9189 23.8186 18.463 23.0427L17.6008 23.5493C18.1477 24.48 18.9005 25.2147 19.8513 25.7481L20.3406 24.8759ZM18.4644 23.0451C18.0103 22.2625 17.7799 21.3847 17.7799 20.4H16.7799C16.7799 21.5486 17.0509 22.6015 17.5995 23.5469L18.4644 23.0451ZM17.7799 20.4C17.7799 19.4152 18.0103 18.5439 18.463 17.7733L17.6008 17.2667C17.0509 18.2028 16.7799 19.2514 16.7799 20.4H17.7799ZM18.4644 17.7709C18.9206 16.9847 19.5436 16.3711 20.3406 15.9241L19.8513 15.0519C18.8989 15.5862 18.1459 16.3273 17.5995 17.2691L18.4644 17.7709ZM20.3406 15.9241C21.135 15.4784 22.0257 15.252 23.0239 15.252V14.252C21.8675 14.252 20.8062 14.5163 19.8513 15.0519L20.3406 15.9241ZM23.0239 15.252C23.7264 15.252 24.3701 15.3656 24.9595 15.5878L25.3123 14.6522C24.6005 14.3837 23.8361 14.252 23.0239 14.252V15.252ZM24.9687 15.5912C25.5641 15.8025 26.0646 16.1158 26.4784 16.5296L27.1855 15.8224C26.6606 15.2975 26.0305 14.9069 25.3031 14.6488L24.9687 15.5912ZM26.4523 15.8506L26.2603 16.0746L27.0196 16.7254L27.2116 16.5014L26.4523 15.8506ZM26.9852 16.0383C25.9408 15.0414 24.6058 14.556 23.0239 14.556V15.556C24.386 15.556 25.4617 15.9666 26.2947 16.7617L26.9852 16.0383ZM23.0239 14.556C21.9299 14.556 20.9218 14.8103 20.0103 15.3245L20.5016 16.1955C21.254 15.771 22.0913 15.556 23.0239 15.556V14.556ZM20.0079 15.3259C19.11 15.8389 18.3962 16.5472 17.8723 17.4437L18.7356 17.9483C19.1717 17.2022 19.7592 16.6197 20.504 16.1941L20.0079 15.3259ZM17.8712 17.4455C17.3552 18.3368 17.0999 19.3254 17.0999 20.4H18.0999C18.0999 19.4906 18.314 18.6765 18.7367 17.9465L17.8712 17.4455ZM17.0999 20.4C17.0999 21.4746 17.3552 22.4675 17.8698 23.3681L18.7381 22.8719C18.314 22.1299 18.0999 21.3094 18.0999 20.4H17.0999ZM17.8737 23.3747C18.398 24.2603 19.1116 24.962 20.0079 25.4741L20.504 24.6059C19.7576 24.1794 19.1698 23.601 18.7342 22.8653L17.8737 23.3747ZM20.0103 25.4755C20.9218 25.9897 21.9299 26.244 23.0239 26.244V25.244C22.0913 25.244 21.254 25.029 20.5016 24.6045L20.0103 25.4755ZM23.0239 26.244C24.5981 26.244 25.9321 25.7515 26.9853 24.7456L26.2946 24.0224C25.4491 24.8299 24.3725 25.244 23.0239 25.244V26.244ZM26.2603 24.7094L26.4523 24.9334L27.2116 24.2826L27.0196 24.0586L26.2603 24.7094ZM26.4784 24.2544C26.0631 24.6697 25.5602 24.9893 24.962 25.2112L25.3098 26.1488C26.0343 25.88 26.6621 25.4849 27.1855 24.9616L26.4784 24.2544ZM24.962 25.2112C24.3596 25.4347 23.7148 25.548 23.0239 25.548V26.548C23.8265 26.548 24.5897 26.4159 25.3098 26.1488L24.962 25.2112ZM30.1207 25.52L29.8645 25.9495L29.8734 25.9546L30.1207 25.52ZM28.6807 24.016L28.2395 24.2513L28.2426 24.257L28.6807 24.016ZM28.6807 19.712L28.2426 19.471L28.2412 19.4736L28.6807 19.712ZM30.1207 18.224L30.3712 18.6567L30.3735 18.6553L30.1207 18.224ZM34.2327 18.224L33.9765 18.6535L33.9854 18.6586L34.2327 18.224ZM35.6727 19.712L35.2314 19.9473L35.2363 19.9561L35.6727 19.712ZM35.6727 24.016L35.2345 23.775L35.2315 23.7807L35.6727 24.016ZM34.2327 25.52L34.4832 25.9527L34.4855 25.9513L34.2327 25.52ZM34.0727 25.248L33.8202 24.8164L34.0727 25.248ZM35.4007 23.872L35.8396 24.1114L35.8414 24.1081L35.4007 23.872ZM35.4007 19.856L34.9599 20.0921L34.9617 20.0954L35.4007 19.856ZM34.0727 18.48L33.8202 18.9116L33.8264 18.9151L34.0727 18.48ZM30.2967 18.48L30.543 18.9152L30.5491 18.9116L30.2967 18.48ZM28.9687 19.856L29.4076 20.0954L29.4094 20.0921L28.9687 19.856ZM28.9687 23.872L28.5279 24.1081L28.5297 24.1114L28.9687 23.872ZM30.2967 25.248L30.5491 24.8164L30.2967 25.248ZM32.1847 25.548C31.5083 25.548 30.9064 25.3918 30.368 25.0854L29.8734 25.9546C30.5723 26.3522 31.3464 26.548 32.1847 26.548V25.548ZM30.3768 25.0906C29.8476 24.7749 29.4294 24.3398 29.1188 23.775L28.2426 24.257C28.636 24.9722 29.1777 25.5397 29.8645 25.9494L30.3768 25.0906ZM29.1219 23.7807C28.823 23.2204 28.6687 22.5825 28.6687 21.856H27.6687C27.6687 22.7295 27.8557 23.5316 28.2395 24.2513L29.1219 23.7807ZM28.6687 21.856C28.6687 21.1293 28.823 20.4983 29.1202 19.9504L28.2412 19.4736C27.8557 20.1844 27.6687 20.9827 27.6687 21.856H28.6687ZM29.1188 19.953C29.4287 19.3895 29.8452 18.9612 30.3712 18.6567L29.8702 17.7913C29.1801 18.1908 28.6367 18.7545 28.2426 19.471L29.1188 19.953ZM30.3735 18.6553C30.9112 18.3402 31.5111 18.18 32.1847 18.18V17.18C31.3436 17.18 30.5675 17.3825 29.8678 17.7927L30.3735 18.6553ZM32.1847 18.18C32.8584 18.18 33.4514 18.3402 33.9765 18.6534L34.4888 17.7946C33.798 17.3825 33.0257 17.18 32.1847 17.18V18.18ZM33.9854 18.6586C34.5203 18.9629 34.9338 19.389 35.2315 19.9473L36.1139 19.4767C35.7289 18.755 35.1824 18.1891 34.4799 17.7894L33.9854 18.6586ZM35.2363 19.9561C35.5422 20.5029 35.7007 21.1319 35.7007 21.856H36.7007C36.7007 20.9801 36.5072 20.1798 36.1091 19.4679L35.2363 19.9561ZM35.7007 21.856C35.7007 22.58 35.5422 23.2157 35.2346 23.775L36.1108 24.257C36.5072 23.5363 36.7007 22.732 36.7007 21.856H35.7007ZM35.2315 23.7807C34.9331 24.3402 34.5179 24.7733 33.9798 25.0887L34.4855 25.9513C35.1848 25.5414 35.7296 24.9718 36.1139 24.2513L35.2315 23.7807ZM33.9822 25.0873C33.4562 25.3918 32.8611 25.548 32.1847 25.548V26.548C33.0229 26.548 33.7932 26.3522 34.4832 25.9527L33.9822 25.0873ZM32.1847 26.244C32.9613 26.244 33.6787 26.0577 34.3251 25.6796L33.8202 24.8164C33.336 25.0996 32.7947 25.244 32.1847 25.244V26.244ZM34.3251 25.6796C34.9706 25.302 35.477 24.7762 35.8396 24.1114L34.9617 23.6326C34.6843 24.1411 34.3054 24.5326 33.8202 24.8164L34.3251 25.6796ZM35.8414 24.1081C36.2042 23.431 36.3807 22.6765 36.3807 21.856H35.3807C35.3807 22.5288 35.2372 23.1184 34.9599 23.6359L35.8414 24.1081ZM36.3807 21.856C36.3807 21.0357 36.2042 20.285 35.8396 19.6166L34.9617 20.0954C35.2372 20.6004 35.3807 21.183 35.3807 21.856H36.3807ZM35.8414 19.6199C35.4788 18.9429 34.9703 18.4135 34.319 18.0449L33.8264 18.9151C34.3057 19.1865 34.6826 19.5744 34.9599 20.0921L35.8414 19.6199ZM34.3251 18.0484C33.6787 17.6703 32.9613 17.484 32.1847 17.484V18.484C32.7947 18.484 33.336 18.6284 33.8202 18.9116L34.3251 18.0484ZM32.1847 17.484C31.408 17.484 30.6907 17.6703 30.0442 18.0484L30.5491 18.9116C31.0333 18.6284 31.5747 18.484 32.1847 18.484V17.484ZM30.0504 18.0449C29.3991 18.4135 28.8906 18.9429 28.5279 19.6199L29.4094 20.0921C29.6868 19.5744 30.0636 19.1865 30.543 18.9151L30.0504 18.0449ZM28.5297 19.6166C28.1652 20.285 27.9887 21.0357 27.9887 21.856H28.9887C28.9887 21.183 29.1322 20.6004 29.4076 20.0954L28.5297 19.6166ZM27.9887 21.856C27.9887 22.6765 28.1652 23.431 28.5279 24.1081L29.4094 23.6359C29.1322 23.1184 28.9887 22.5288 28.9887 21.856H27.9887ZM28.5297 24.1114C28.8923 24.7762 29.3988 25.302 30.0442 25.6796L30.5491 24.8164C30.0639 24.5326 29.685 24.1411 29.4076 23.6326L28.5297 24.1114ZM30.0442 25.6796C30.6907 26.0577 31.408 26.244 32.1847 26.244V25.244C31.5747 25.244 31.0333 25.0996 30.5491 24.8164L30.0442 25.6796ZM45.1343 18.576L44.7776 18.9264L44.7808 18.9296L45.1343 18.576ZM46.0143 26V26.5H46.5143V26H46.0143ZM45.6943 26H45.1943V26.5H45.6943V26ZM44.9103 18.8L44.5461 19.1428L44.5532 19.15L44.9103 18.8ZM40.1583 18.96L39.7989 18.6124L39.7988 18.6125L40.1583 18.96ZM39.2303 26V26.5H39.7303V26H39.2303ZM38.9103 26H38.4103V26.5H38.9103V26ZM38.9103 17.728V17.228H38.4103V17.728H38.9103ZM39.2303 17.728H39.7303V17.228H39.2303V17.728ZM39.2303 19.936H38.7303L39.7002 20.1069L39.2303 19.936ZM40.5103 18.288L40.786 18.7052L40.7911 18.7017L40.5103 18.288ZM42.7023 18.18C43.6364 18.18 44.3061 18.4463 44.7776 18.9264L45.491 18.2256C44.7891 17.511 43.8375 17.18 42.7023 17.18V18.18ZM44.7808 18.9296C45.2454 19.3942 45.5143 20.0971 45.5143 21.12H46.5143C46.5143 19.9242 46.1965 18.9311 45.4879 18.2224L44.7808 18.9296ZM45.5143 21.12V26H46.5143V21.12H45.5143ZM46.0143 25.5H45.6943V26.5H46.0143V25.5ZM46.1943 26V21.12H45.1943V26H46.1943ZM46.1943 21.12C46.1943 20.0236 45.9104 19.1062 45.2674 18.45L44.5532 19.15C44.9555 19.5605 45.1943 20.1897 45.1943 21.12H46.1943ZM45.2744 18.4573C44.6438 17.7873 43.7659 17.484 42.7183 17.484V18.484C43.5694 18.484 44.1528 18.7247 44.5462 19.1427L45.2744 18.4573ZM42.7183 17.484C41.5333 17.484 40.5402 17.846 39.7989 18.6124L40.5177 19.3076C41.0351 18.7727 41.7487 18.484 42.7183 18.484V17.484ZM39.7988 18.6125C39.0735 19.3628 38.7303 20.3441 38.7303 21.504H39.7303C39.7303 20.5519 40.0057 19.8372 40.5178 19.3075L39.7988 18.6125ZM38.7303 21.504V26H39.7303V21.504H38.7303ZM39.2303 25.5H38.9103V26.5H39.2303V25.5ZM39.4103 26V17.728H38.4103V26H39.4103ZM38.9103 18.228H39.2303V17.228H38.9103V18.228ZM38.7303 17.728V19.936H39.7303V17.728H38.7303ZM39.7002 20.1069C39.9214 19.4987 40.2824 19.0378 40.7859 18.7052L40.2347 17.8708C39.5435 18.3275 39.0513 18.9653 38.7604 19.7651L39.7002 20.1069ZM40.7911 18.7017C41.2904 18.3629 41.9184 18.18 42.7023 18.18V17.18C41.7583 17.18 40.9249 17.4024 40.2296 17.8743L40.7911 18.7017ZM53.3418 25.456L53.7053 25.7993L54.039 25.446L53.6954 25.1024L53.3418 25.456ZM52.6218 25.904L52.78 26.3784L52.79 26.3749L52.6218 25.904ZM50.2378 25.504L49.8688 25.8414L49.8738 25.8469L49.879 25.8522L50.2378 25.504ZM49.7258 18.032H50.2258V17.532H49.7258V18.032ZM48.1258 18.032H47.6258V18.532H48.1258V18.032ZM48.1258 17.728V17.228H47.6258V17.728H48.1258ZM49.7258 17.728V18.228H50.2258V17.728H49.7258ZM49.7258 15.92V15.42H49.2258V15.92H49.7258ZM50.0458 15.92H50.5458V15.42H50.0458V15.92ZM50.0458 17.728H49.5458V18.228H50.0458V17.728ZM52.8458 17.728H53.3458V17.228H52.8458V17.728ZM52.8458 18.032V18.532H53.3458V18.032H52.8458ZM50.0458 18.032V17.532H49.5458V18.032H50.0458ZM50.4778 25.28L50.1119 25.6207L50.4778 25.28ZM53.1178 25.232L53.4714 24.8784L53.1284 24.5354L52.7751 24.8679L53.1178 25.232ZM52.9783 25.1127C52.861 25.2369 52.6928 25.3477 52.4536 25.4331L52.79 26.3749C53.1481 26.247 53.46 26.0591 53.7053 25.7993L52.9783 25.1127ZM52.4637 25.4297C52.2277 25.5083 51.9824 25.548 51.7258 25.548V26.548C52.0879 26.548 52.44 26.4917 52.7799 26.3783L52.4637 25.4297ZM51.7258 25.548C51.183 25.548 50.8309 25.3971 50.5966 25.1558L49.879 25.8522C50.3487 26.3362 50.9887 26.548 51.7258 26.548V25.548ZM50.6068 25.1666C50.3676 24.905 50.2258 24.539 50.2258 24.016H49.2258C49.2258 24.7303 49.4254 25.3564 49.8688 25.8414L50.6068 25.1666ZM50.2258 24.016V18.032H49.2258V24.016H50.2258ZM49.7258 17.532H48.1258V18.532H49.7258V17.532ZM48.6258 18.032V17.728H47.6258V18.032H48.6258ZM48.1258 18.228H49.7258V17.228H48.1258V18.228ZM50.2258 17.728V15.92H49.2258V17.728H50.2258ZM49.7258 16.42H50.0458V15.42H49.7258V16.42ZM49.5458 15.92V17.728H50.5458V15.92H49.5458ZM50.0458 18.228H52.8458V17.228H50.0458V18.228ZM52.3458 17.728V18.032H53.3458V17.728H52.3458ZM52.8458 17.532H50.0458V18.532H52.8458V17.532ZM49.5458 18.032V23.936H50.5458V18.032H49.5458ZM49.5458 23.936C49.5458 24.5997 49.7091 25.1881 50.1119 25.6207L50.8438 24.9393C50.6705 24.7532 50.5458 24.4457 50.5458 23.936H49.5458ZM50.1119 25.6207C50.5216 26.0608 51.0939 26.244 51.7418 26.244V25.244C51.2804 25.244 51.0101 25.1179 50.8438 24.9393L50.1119 25.6207ZM51.7418 26.244C52.4081 26.244 52.9942 26.0349 53.4605 25.5961L52.7751 24.8679C52.5161 25.1117 52.1848 25.244 51.7418 25.244V26.244ZM52.7643 25.5856L52.9883 25.8096L53.6954 25.1024L53.4714 24.8784L52.7643 25.5856ZM55.8009 17.728V17.228H55.3009V17.728H55.8009ZM56.1209 17.728H56.6209V17.228H56.1209V17.728ZM56.1209 26V26.5H56.6209V26H56.1209ZM55.8009 26H55.3009V26.5H55.8009V26ZM55.6569 15.312L55.2806 15.6413L55.2916 15.6538L55.3034 15.6656L55.6569 15.312ZM55.6569 14.736L55.3034 14.3824L55.3034 14.3824L55.6569 14.736ZM56.2489 14.736L55.8954 15.0896L55.9072 15.1013L55.9197 15.1123L56.2489 14.736ZM55.8009 18.228H56.1209V17.228H55.8009V18.228ZM55.6209 17.728V26H56.6209V17.728H55.6209ZM56.1209 25.5H55.8009V26.5H56.1209V25.5ZM56.3009 26V17.728H55.3009V26H56.3009ZM55.9609 14.94C55.9644 14.94 55.9762 14.941 55.991 14.9472C56.0055 14.9533 56.0119 14.9599 56.0105 14.9584L55.3034 15.6656C55.4795 15.8417 55.7068 15.94 55.9609 15.94V14.94ZM56.0332 14.9827C56.0303 14.9794 56.0345 14.9834 56.0389 14.9948C56.0435 15.0066 56.0449 15.0176 56.0449 15.024H55.0449C55.0449 15.2598 55.1317 15.471 55.2806 15.6413L56.0332 14.9827ZM56.0449 15.024C56.0449 15.0188 56.0456 15.028 56.0389 15.0452C56.0318 15.0635 56.0209 15.0791 56.0105 15.0896L55.3034 14.3824C55.1241 14.5617 55.0449 14.7902 55.0449 15.024H56.0449ZM56.0105 15.0896C56.0119 15.0881 56.0055 15.0947 55.991 15.1008C55.9762 15.107 55.9644 15.108 55.9609 15.108V14.108C55.7068 14.108 55.4795 14.2063 55.3034 14.3824L56.0105 15.0896ZM55.9609 15.108C55.9454 15.108 55.9268 15.1044 55.9099 15.0969C55.8941 15.0899 55.8897 15.0839 55.8954 15.0896L56.6025 14.3824C56.4368 14.2168 56.2181 14.108 55.9609 14.108V15.108ZM55.9197 15.1123C55.9121 15.1057 55.8985 15.0905 55.888 15.0671C55.8778 15.044 55.8769 15.0271 55.8769 15.024H56.8769C56.8769 14.7682 56.7763 14.533 56.5782 14.3597L55.9197 15.1123ZM55.8769 15.024C55.8769 15.0085 55.8805 14.9899 55.888 14.9729C55.895 14.9572 55.901 14.9528 55.8954 14.9584L56.6025 15.6656C56.7682 15.4999 56.8769 15.2811 56.8769 15.024H55.8769ZM55.8954 14.9584C55.8897 14.9641 55.8941 14.9581 55.9099 14.9511C55.9268 14.9436 55.9454 14.94 55.9609 14.94V15.94C56.2181 15.94 56.4368 15.8312 56.6025 15.6656L55.8954 14.9584ZM66.0249 18.576L65.6682 18.9264L65.6714 18.9296L66.0249 18.576ZM66.9049 26V26.5H67.4049V26H66.9049ZM66.5849 26H66.0849V26.5H66.5849V26ZM65.8009 18.8L65.4368 19.1428L65.4438 19.15L65.8009 18.8ZM61.0489 18.96L60.6895 18.6124L60.6894 18.6125L61.0489 18.96ZM60.1209 26V26.5H60.6209V26H60.1209ZM59.8009 26H59.3009V26.5H59.8009V26ZM59.8009 17.728V17.228H59.3009V17.728H59.8009ZM60.1209 17.728H60.6209V17.228H60.1209V17.728ZM60.1209 19.936H59.6209L60.5908 20.1069L60.1209 19.936ZM61.4009 18.288L61.6766 18.7052L61.6817 18.7017L61.4009 18.288ZM63.5929 18.18C64.5271 18.18 65.1968 18.4463 65.6682 18.9264L66.3817 18.2256C65.6798 17.511 64.7281 17.18 63.5929 17.18V18.18ZM65.6714 18.9296C66.136 19.3942 66.4049 20.0971 66.4049 21.12H67.4049C67.4049 19.9242 67.0872 18.9311 66.3785 18.2224L65.6714 18.9296ZM66.4049 21.12V26H67.4049V21.12H66.4049ZM66.9049 25.5H66.5849V26.5H66.9049V25.5ZM67.0849 26V21.12H66.0849V26H67.0849ZM67.0849 21.12C67.0849 20.0236 66.8011 19.1062 66.158 18.45L65.4438 19.15C65.8461 19.5605 66.0849 20.1897 66.0849 21.12H67.0849ZM66.165 18.4573C65.5345 17.7873 64.6565 17.484 63.6089 17.484V18.484C64.46 18.484 65.0434 18.7247 65.4368 19.1427L66.165 18.4573ZM63.6089 17.484C62.4239 17.484 61.4308 17.846 60.6895 18.6124L61.4083 19.3076C61.9258 18.7727 62.6393 18.484 63.6089 18.484V17.484ZM60.6894 18.6125C59.9642 19.3628 59.6209 20.3441 59.6209 21.504H60.6209C60.6209 20.5519 60.8964 19.8372 61.4084 19.3075L60.6894 18.6125ZM59.6209 21.504V26H60.6209V21.504H59.6209ZM60.1209 25.5H59.8009V26.5H60.1209V25.5ZM60.3009 26V17.728H59.3009V26H60.3009ZM59.8009 18.228H60.1209V17.228H59.8009V18.228ZM59.6209 17.728V19.936H60.6209V17.728H59.6209ZM60.5908 20.1069C60.812 19.4987 61.1731 19.0378 61.6766 18.7052L61.1253 17.8708C60.4341 18.3275 59.9419 18.9653 59.651 19.7651L60.5908 20.1069ZM61.6817 18.7017C62.181 18.3629 62.809 18.18 63.5929 18.18V17.18C62.6489 17.18 61.8155 17.4024 61.1202 17.8743L61.6817 18.7017ZM77.4324 17.728H77.9324V17.228H77.4324V17.728ZM77.4324 26V26.5H77.9324V26H77.4324ZM77.1124 26H76.6124V26.5H77.1124V26ZM77.1124 23.808H77.6124L76.6403 23.6435L77.1124 23.808ZM75.8804 25.456L75.5978 25.0435L75.5978 25.0435L75.8804 25.456ZM71.2884 25.168L70.9349 25.5216L70.9381 25.5247L71.2884 25.168ZM70.3924 17.728V17.228H69.8924V17.728H70.3924ZM70.7124 17.728H71.2124V17.228H70.7124V17.728ZM71.5124 24.944L71.1554 25.2941L71.1589 25.2976L71.5124 24.944ZM76.2164 24.784L76.582 25.1252L76.5848 25.1221L76.2164 24.784ZM77.1124 17.728V17.228H76.6124V17.728H77.1124ZM76.9324 17.728V26H77.9324V17.728H76.9324ZM77.4324 25.5H77.1124V26.5H77.4324V25.5ZM77.6124 26V23.808H76.6124V26H77.6124ZM76.6403 23.6435C76.4275 24.254 76.0797 24.7134 75.5978 25.0435L76.1631 25.8685C76.8332 25.4093 77.3067 24.77 77.5846 23.9725L76.6403 23.6435ZM75.5978 25.0435C75.1189 25.3717 74.5231 25.548 73.7844 25.548V26.548C74.6884 26.548 75.49 26.3296 76.1631 25.8685L75.5978 25.0435ZM73.7844 25.548C72.8112 25.548 72.1189 25.2828 71.6388 24.8113L70.9381 25.5247C71.6527 26.2266 72.6243 26.548 73.7844 26.548V25.548ZM71.642 24.8144C71.1651 24.3375 70.8924 23.6279 70.8924 22.608H69.8924C69.8924 23.8068 70.2171 24.8038 70.9349 25.5216L71.642 24.8144ZM70.8924 22.608V17.728H69.8924V22.608H70.8924ZM70.3924 18.228H70.7124V17.228H70.3924V18.228ZM70.2124 17.728V22.608H71.2124V17.728H70.2124ZM70.2124 22.608C70.2124 23.7077 70.5034 24.629 71.1554 25.294L71.8695 24.594C71.4548 24.171 71.2124 23.535 71.2124 22.608H70.2124ZM71.1589 25.2976C71.8108 25.9495 72.705 26.244 73.7684 26.244V25.244C72.8906 25.244 72.2807 25.0052 71.866 24.5904L71.1589 25.2976ZM73.7684 26.244C74.9143 26.244 75.8729 25.8849 76.582 25.1252L75.8509 24.4428C75.3653 24.9631 74.6919 25.244 73.7684 25.244V26.244ZM76.5848 25.1221C77.2828 24.3618 77.6124 23.3793 77.6124 22.224H76.6124C76.6124 23.1807 76.3447 23.9049 75.8481 24.4459L76.5848 25.1221ZM77.6124 22.224V17.728H76.6124V22.224H77.6124ZM77.1124 18.228H77.4324V17.228H77.1124V18.228ZM87.8014 21.856V22.356H88.3014V21.856H87.8014ZM80.4414 21.856V21.356H79.9414V21.856H80.4414ZM80.9374 23.872L80.5 24.1142L80.5019 24.1175L80.9374 23.872ZM82.2974 25.248L82.0485 25.6816L82.0519 25.6836L82.2974 25.248ZM85.8494 25.424L86.0488 25.8826L86.0534 25.8805L85.8494 25.424ZM87.0814 24.464L87.435 24.1104L87.0323 23.7078L86.6851 24.1591L87.0814 24.464ZM87.3054 24.688L87.6903 25.0072L87.9811 24.6565L87.659 24.3344L87.3054 24.688ZM85.9614 25.696L85.7601 25.2383L85.9614 25.696ZM82.1374 25.52L81.8845 25.9514L81.8934 25.9564L82.1374 25.52ZM80.6654 24.016L80.2273 24.257L80.2304 24.2625L80.6654 24.016ZM80.6334 19.712L81.0761 19.9446L81.0777 19.9415L80.6334 19.712ZM81.9934 18.224L82.2542 18.6506L82.2563 18.6493L81.9934 18.224ZM85.9134 18.208L85.6562 18.6367V18.6367L85.9134 18.208ZM87.2894 19.664L86.8484 19.8997L86.8516 19.9055L87.2894 19.664ZM82.2174 18.448L82.4721 18.8783L82.2174 18.448ZM80.9534 19.728L80.5224 19.4745L80.5188 19.4808L80.9534 19.728ZM80.4414 21.552L79.942 21.5282L79.9171 22.052H80.4414V21.552ZM87.4974 21.552V22.052H88.0218L87.9969 21.5282L87.4974 21.552ZM86.9694 19.728L86.5385 19.9815L86.9694 19.728ZM85.7054 18.448L85.4508 18.8783L85.7054 18.448ZM87.8014 21.356H80.4414V22.356H87.8014V21.356ZM79.9414 21.856C79.9414 22.6793 80.1245 23.4359 80.5 24.1142L81.3749 23.6298C81.089 23.1134 80.9414 22.5261 80.9414 21.856H79.9414ZM80.5019 24.1175C80.876 24.7814 81.3934 25.3055 82.0485 25.6816L82.5464 24.8144C82.0495 24.5291 81.6602 24.136 81.373 23.6265L80.5019 24.1175ZM82.0519 25.6836C82.7193 26.0597 83.4609 26.244 84.2654 26.244V25.244C83.6193 25.244 83.0489 25.0976 82.5429 24.8124L82.0519 25.6836ZM84.2654 26.244C84.8954 26.244 85.4917 26.1248 86.0488 25.8825L85.6501 24.9655C85.2258 25.1499 84.7661 25.244 84.2654 25.244V26.244ZM86.0534 25.8805C86.6268 25.6243 87.1048 25.2536 87.4778 24.7689L86.6851 24.1591C86.418 24.5064 86.0747 24.7757 85.6455 24.9675L86.0534 25.8805ZM86.7279 24.8176L86.9519 25.0416L87.659 24.3344L87.435 24.1104L86.7279 24.8176ZM86.9206 24.3688C86.6088 24.7448 86.2242 25.0341 85.7601 25.2383L86.1628 26.1537C86.7654 25.8885 87.2768 25.5059 87.6903 25.0072L86.9206 24.3688ZM85.7601 25.2383C85.2918 25.4444 84.7952 25.548 84.2654 25.548V26.548C84.9303 26.548 85.5644 26.417 86.1628 26.1537L85.7601 25.2383ZM84.2654 25.548C83.5533 25.548 82.9293 25.39 82.3815 25.0836L81.8934 25.9564C82.6042 26.354 83.3989 26.548 84.2654 26.548V25.548ZM82.3903 25.0887C81.8496 24.7717 81.4209 24.335 81.1004 23.7695L80.2304 24.2625C80.6353 24.977 81.188 25.543 81.8846 25.9513L82.3903 25.0887ZM81.1035 23.775C80.7959 23.2157 80.6374 22.58 80.6374 21.856H79.6374C79.6374 22.732 79.8309 23.5363 80.2273 24.257L81.1035 23.775ZM80.6374 21.856C80.6374 21.1267 80.7876 20.4936 81.0761 19.9446L80.1908 19.4794C79.818 20.1891 79.6374 20.9853 79.6374 21.856H80.6374ZM81.0777 19.9415C81.3693 19.3771 81.7615 18.9517 82.2542 18.6506L81.7327 17.7974C81.0734 18.2003 80.5589 18.7669 80.1892 19.4825L81.0777 19.9415ZM82.2563 18.6493C82.7599 18.338 83.324 18.18 83.9614 18.18V17.18C83.1482 17.18 82.4004 17.3846 81.7305 17.7987L82.2563 18.6493ZM83.9614 18.18C84.5897 18.18 85.1508 18.3335 85.6562 18.6367L86.1707 17.7793C85.5028 17.3785 84.7625 17.18 83.9614 17.18V18.18ZM85.6562 18.6367C86.1632 18.941 86.5593 19.3587 86.8485 19.8997L87.7304 19.4283C87.3582 18.732 86.837 18.179 86.1707 17.7793L85.6562 18.6367ZM86.8516 19.9055C87.1476 20.4419 87.3014 21.0611 87.3014 21.776H88.3014C88.3014 20.9123 88.114 20.1234 87.7272 19.4225L86.8516 19.9055ZM87.3014 21.776V21.856H88.3014V21.776H87.3014ZM83.9614 17.484C83.2369 17.484 82.5668 17.6603 81.9628 18.0177L82.4721 18.8783C82.9135 18.6171 83.406 18.484 83.9614 18.484V17.484ZM81.9628 18.0177C81.3644 18.3718 80.8836 18.8606 80.5225 19.4745L81.3844 19.9815C81.6633 19.5074 82.0251 19.1428 82.4721 18.8783L81.9628 18.0177ZM80.5188 19.4808C80.1677 20.0982 79.9775 20.7837 79.942 21.5282L80.9409 21.5758C80.9694 20.9763 81.1205 20.4458 81.3881 19.9752L80.5188 19.4808ZM80.4414 22.052H87.4974V21.052H80.4414V22.052ZM87.9969 21.5282C87.9613 20.7807 87.7642 20.093 87.4004 19.4745L86.5385 19.9815C86.8147 20.451 86.9696 20.9793 86.998 21.5758L87.9969 21.5282ZM87.4004 19.4745C87.0393 18.8606 86.5584 18.3718 85.9601 18.0177L85.4508 18.8783C85.8978 19.1428 86.2596 19.5074 86.5385 19.9815L87.4004 19.4745ZM85.9601 18.0177C85.3561 17.6603 84.686 17.484 83.9614 17.484V18.484C84.5169 18.484 85.0094 18.6171 85.4508 18.8783L85.9601 18.0177Z" fill="#F5F1E6"/>
<defs>
<filter id="filter0_d_153_136" x="-3" y="0" width="110.795" height="46.7539" filterUnits="userSpaceOnUse" color-interpolation-filters="sRGB">
<feFlood flood-opacity="0" result="BackgroundImageFix"/>
<feColorMatrix in="SourceAlpha" type="matrix" values="0 0 0 0 0 0 0 0 0 0 0 0 0 0 0 0 0 0 127 0" result="hardAlpha"/>
<feOffset dy="3"/>
<feGaussianBlur stdDeviation="1.5"/>
<feComposite in2="hardAlpha" operator="out"/>
<feColorMatrix type="matrix" values="0 0 0 0 0 0 0 0 0 0 0 0 0 0 0 0 0 0 0.160784 0"/>
<feBlend mode="normal" in2="BackgroundImageFix" result="effect1_dropShadow_153_136"/>
<feBlend mode="normal" in="SourceGraphic" in2="effect1_dropShadow_153_136" result="shape"/>
</filter>
</defs>
</svg>
