<svg width="111" height="47" viewBox="0 0 111 47" fill="none" xmlns="http://www.w3.org/2000/svg">
<g filter="url(#filter0_d_144_22)">
<path d="M3.5 20C3.5 9.23045 12.2304 0.5 23 0.5H87.7944C98.564 0.5 107.294 9.23045 107.294 20V20.7539C107.294 31.5235 98.564 40.2539 87.7944 40.2539H23C12.2304 40.2539 3.5 31.5235 3.5 20.7539V20Z" stroke="#D0FD0C" shape-rendering="crispEdges"/>
</g>
<path d="M26.0239 26.048C24.9466 26.048 23.9706 25.8027 23.0959 25.312C22.2213 24.8213 21.5333 24.1493 21.0319 23.296C20.5306 22.432 20.2799 21.4667 20.2799 20.4C20.2799 19.3333 20.5306 18.3733 21.0319 17.52C21.5333 16.656 22.2213 15.9787 23.0959 15.488C23.9706 14.9973 24.9466 14.752 26.0239 14.752C26.7813 14.752 27.4853 14.8747 28.1359 15.12C28.7973 15.3547 29.3626 15.7067 29.8319 16.176L29.6399 16.4C28.7013 15.504 27.4959 15.056 26.0239 15.056C25.0106 15.056 24.0879 15.2907 23.2559 15.76C22.4346 16.2293 21.7839 16.8747 21.3039 17.696C20.8346 18.5067 20.5999 19.408 20.5999 20.4C20.5999 21.392 20.8346 22.2987 21.3039 23.12C21.7839 23.9307 22.4346 24.5707 23.2559 25.04C24.0879 25.5093 25.0106 25.744 26.0239 25.744C27.4853 25.744 28.6906 25.2907 29.6399 24.384L29.8319 24.608C29.3626 25.0773 28.7973 25.4347 28.1359 25.68C27.4746 25.9253 26.7706 26.048 26.0239 26.048ZM35.1847 26.048C34.4274 26.048 33.7394 25.872 33.1207 25.52C32.5127 25.1573 32.0327 24.656 31.6807 24.016C31.3394 23.376 31.1687 22.656 31.1687 21.856C31.1687 21.056 31.3394 20.3413 31.6807 19.712C32.0327 19.072 32.5127 18.576 33.1207 18.224C33.7394 17.8613 34.4274 17.68 35.1847 17.68C35.942 17.68 36.6247 17.8613 37.2327 18.224C37.8514 18.576 38.3314 19.072 38.6727 19.712C39.0247 20.3413 39.2007 21.056 39.2007 21.856C39.2007 22.656 39.0247 23.376 38.6727 24.016C38.3314 24.656 37.8514 25.1573 37.2327 25.52C36.6247 25.872 35.942 26.048 35.1847 26.048ZM35.1847 25.744C35.878 25.744 36.5074 25.5787 37.0727 25.248C37.638 24.9173 38.0807 24.4587 38.4007 23.872C38.7207 23.2747 38.8807 22.6027 38.8807 21.856C38.8807 21.1093 38.7207 20.4427 38.4007 19.856C38.0807 19.2587 37.638 18.8 37.0727 18.48C36.5074 18.1493 35.878 17.984 35.1847 17.984C34.4914 17.984 33.862 18.1493 33.2967 18.48C32.7314 18.8 32.2887 19.2587 31.9687 19.856C31.6487 20.4427 31.4887 21.1093 31.4887 21.856C31.4887 22.6027 31.6487 23.2747 31.9687 23.872C32.2887 24.4587 32.7314 24.9173 33.2967 25.248C33.862 25.5787 34.4914 25.744 35.1847 25.744ZM45.7023 17.68C46.737 17.68 47.5476 17.9787 48.1343 18.576C48.721 19.1627 49.0143 20.0107 49.0143 21.12V26H48.6943V21.12C48.6943 20.1067 48.433 19.3333 47.9103 18.8C47.3983 18.256 46.6676 17.984 45.7183 17.984C44.641 17.984 43.7876 18.3093 43.1583 18.96C42.5396 19.6 42.2303 20.448 42.2303 21.504V26H41.9103V17.728H42.2303V19.936C42.4863 19.232 42.913 18.6827 43.5103 18.288C44.1076 17.8827 44.8383 17.68 45.7023 17.68ZM56.3418 25.456C56.1605 25.648 55.9205 25.7973 55.6218 25.904C55.3338 26 55.0351 26.048 54.7258 26.048C54.0858 26.048 53.5898 25.8667 53.2378 25.504C52.8965 25.1307 52.7258 24.6347 52.7258 24.016V18.032H51.1258V17.728H52.7258V15.92H53.0458V17.728H55.8458V18.032H53.0458V23.936C53.0458 24.5227 53.1898 24.9707 53.4778 25.28C53.7658 25.5893 54.1871 25.744 54.7418 25.744C55.2965 25.744 55.7551 25.5733 56.1178 25.232L56.3418 25.456ZM58.8009 17.728H59.1209V26H58.8009V17.728ZM58.9609 15.44C58.8436 15.44 58.7423 15.3973 58.6569 15.312C58.5823 15.2267 58.5449 15.1307 58.5449 15.024C58.5449 14.9067 58.5823 14.8107 58.6569 14.736C58.7423 14.6507 58.8436 14.608 58.9609 14.608C59.0676 14.608 59.1636 14.6507 59.2489 14.736C59.3343 14.8107 59.3769 14.9067 59.3769 15.024C59.3769 15.1307 59.3343 15.2267 59.2489 15.312C59.1636 15.3973 59.0676 15.44 58.9609 15.44ZM66.5929 17.68C67.6276 17.68 68.4383 17.9787 69.0249 18.576C69.6116 19.1627 69.9049 20.0107 69.9049 21.12V26H69.5849V21.12C69.5849 20.1067 69.3236 19.3333 68.8009 18.8C68.2889 18.256 67.5583 17.984 66.6089 17.984C65.5316 17.984 64.6783 18.3093 64.0489 18.96C63.4303 19.6 63.1209 20.448 63.1209 21.504V26H62.8009V17.728H63.1209V19.936C63.3769 19.232 63.8036 18.6827 64.4009 18.288C64.9983 17.8827 65.7289 17.68 66.5929 17.68ZM80.4324 17.728V26H80.1124V23.808C79.8671 24.512 79.4564 25.0613 78.8804 25.456C78.3044 25.8507 77.6058 26.048 76.7844 26.048C75.7178 26.048 74.8858 25.7547 74.2884 25.168C73.6911 24.5707 73.3924 23.7173 73.3924 22.608V17.728H73.7124V22.608C73.7124 23.6213 73.9791 24.4 74.5124 24.944C75.0458 25.4773 75.7978 25.744 76.7684 25.744C77.8031 25.744 78.6191 25.424 79.2164 24.784C79.8138 24.1333 80.1124 23.28 80.1124 22.224V17.728H80.4324ZM90.8014 21.856H83.4414C83.4414 22.6027 83.6068 23.2747 83.9374 23.872C84.2681 24.4587 84.7214 24.9173 85.2974 25.248C85.8841 25.5787 86.5401 25.744 87.2654 25.744C87.8308 25.744 88.3588 25.6373 88.8494 25.424C89.3508 25.2 89.7614 24.88 90.0814 24.464L90.3054 24.688C89.9428 25.1253 89.4948 25.4613 88.9614 25.696C88.4281 25.9307 87.8628 26.048 87.2654 26.048C86.4761 26.048 85.7668 25.872 85.1374 25.52C84.5188 25.1573 84.0281 24.656 83.6654 24.016C83.3134 23.376 83.1374 22.656 83.1374 21.856C83.1374 21.056 83.3028 20.3413 83.6334 19.712C83.9641 19.072 84.4174 18.576 84.9934 18.224C85.5801 17.8613 86.2361 17.68 86.9614 17.68C87.6761 17.68 88.3268 17.856 88.9134 18.208C89.5001 18.56 89.9588 19.0453 90.2894 19.664C90.6308 20.2827 90.8014 20.9867 90.8014 21.776V21.856ZM86.9614 17.984C86.3214 17.984 85.7401 18.1387 85.2174 18.448C84.6948 18.7573 84.2734 19.184 83.9534 19.728C83.6441 20.272 83.4734 20.88 83.4414 21.552H90.4974C90.4654 20.88 90.2894 20.272 89.9694 19.728C89.6494 19.184 89.2281 18.7573 88.7054 18.448C88.1828 18.1387 87.6014 17.984 86.9614 17.984Z" fill="#F5F1E6"/>
<path d="M23.0959 25.312L23.3406 24.8759L23.0959 25.312ZM21.0319 23.296L20.5995 23.5469L20.6008 23.5493L21.0319 23.296ZM21.0319 17.52L21.463 17.7733L21.4644 17.7709L21.0319 17.52ZM23.0959 15.488L23.3406 15.9241L23.0959 15.488ZM28.1359 15.12L27.9595 15.5879L27.9687 15.5912L28.1359 15.12ZM29.8319 16.176L30.2116 16.5014L30.5129 16.1498L30.1855 15.8224L29.8319 16.176ZM29.6399 16.4L29.2947 16.7617L29.6763 17.1259L30.0196 16.7254L29.6399 16.4ZM23.2559 15.76L23.0103 15.3245L23.0079 15.3259L23.2559 15.76ZM21.3039 17.696L20.8722 17.4437L20.8712 17.4455L21.3039 17.696ZM21.3039 23.12L20.8698 23.3681L20.8737 23.3747L21.3039 23.12ZM23.2559 25.04L23.0079 25.4741L23.0103 25.4755L23.2559 25.04ZM29.6399 24.384L30.0196 24.0586L29.6762 23.658L29.2946 24.0224L29.6399 24.384ZM29.8319 24.608L30.1855 24.9616L30.5129 24.6342L30.2116 24.2826L29.8319 24.608ZM28.1359 25.68L27.962 25.2112L28.1359 25.68ZM26.0239 25.548C25.0257 25.548 24.135 25.3216 23.3406 24.8759L22.8513 25.7481C23.8062 26.2837 24.8675 26.548 26.0239 26.548V25.548ZM23.3406 24.8759C22.5421 24.428 21.9189 23.8186 21.463 23.0427L20.6008 23.5493C21.1477 24.48 21.9005 25.2147 22.8513 25.7481L23.3406 24.8759ZM21.4644 23.0451C21.0103 22.2625 20.7799 21.3847 20.7799 20.4H19.7799C19.7799 21.5486 20.0509 22.6015 20.5995 23.5469L21.4644 23.0451ZM20.7799 20.4C20.7799 19.4152 21.0103 18.5439 21.463 17.7733L20.6008 17.2667C20.0509 18.2028 19.7799 19.2514 19.7799 20.4H20.7799ZM21.4644 17.7709C21.9206 16.9847 22.5436 16.3711 23.3406 15.9241L22.8513 15.0519C21.8989 15.5862 21.1459 16.3273 20.5995 17.2691L21.4644 17.7709ZM23.3406 15.9241C24.135 15.4784 25.0257 15.252 26.0239 15.252V14.252C24.8675 14.252 23.8062 14.5163 22.8513 15.0519L23.3406 15.9241ZM26.0239 15.252C26.7264 15.252 27.3701 15.3656 27.9595 15.5878L28.3123 14.6522C27.6005 14.3837 26.8361 14.252 26.0239 14.252V15.252ZM27.9687 15.5912C28.5641 15.8025 29.0646 16.1158 29.4784 16.5296L30.1855 15.8224C29.6606 15.2975 29.0305 14.9069 28.3031 14.6488L27.9687 15.5912ZM29.4523 15.8506L29.2603 16.0746L30.0196 16.7254L30.2116 16.5014L29.4523 15.8506ZM29.9852 16.0383C28.9408 15.0414 27.6058 14.556 26.0239 14.556V15.556C27.386 15.556 28.4617 15.9666 29.2947 16.7617L29.9852 16.0383ZM26.0239 14.556C24.9299 14.556 23.9218 14.8103 23.0103 15.3245L23.5016 16.1955C24.254 15.771 25.0913 15.556 26.0239 15.556V14.556ZM23.0079 15.3259C22.11 15.8389 21.3962 16.5472 20.8723 17.4437L21.7356 17.9483C22.1717 17.2022 22.7592 16.6197 23.504 16.1941L23.0079 15.3259ZM20.8712 17.4455C20.3552 18.3368 20.0999 19.3254 20.0999 20.4H21.0999C21.0999 19.4906 21.314 18.6765 21.7367 17.9465L20.8712 17.4455ZM20.0999 20.4C20.0999 21.4746 20.3552 22.4675 20.8698 23.3681L21.7381 22.8719C21.314 22.1299 21.0999 21.3094 21.0999 20.4H20.0999ZM20.8737 23.3747C21.398 24.2603 22.1116 24.962 23.0079 25.4741L23.504 24.6059C22.7576 24.1794 22.1698 23.601 21.7342 22.8653L20.8737 23.3747ZM23.0103 25.4755C23.9218 25.9897 24.9299 26.244 26.0239 26.244V25.244C25.0913 25.244 24.254 25.029 23.5016 24.6045L23.0103 25.4755ZM26.0239 26.244C27.5981 26.244 28.9321 25.7515 29.9853 24.7456L29.2946 24.0224C28.4491 24.8299 27.3725 25.244 26.0239 25.244V26.244ZM29.2603 24.7094L29.4523 24.9334L30.2116 24.2826L30.0196 24.0586L29.2603 24.7094ZM29.4784 24.2544C29.0631 24.6697 28.5602 24.9893 27.962 25.2112L28.3098 26.1488C29.0343 25.88 29.6621 25.4849 30.1855 24.9616L29.4784 24.2544ZM27.962 25.2112C27.3596 25.4347 26.7148 25.548 26.0239 25.548V26.548C26.8265 26.548 27.5897 26.4159 28.3098 26.1488L27.962 25.2112ZM33.1207 25.52L32.8645 25.9495L32.8734 25.9546L33.1207 25.52ZM31.6807 24.016L31.2395 24.2513L31.2426 24.257L31.6807 24.016ZM31.6807 19.712L31.2426 19.471L31.2412 19.4736L31.6807 19.712ZM33.1207 18.224L33.3712 18.6567L33.3735 18.6553L33.1207 18.224ZM37.2327 18.224L36.9765 18.6535L36.9854 18.6586L37.2327 18.224ZM38.6727 19.712L38.2314 19.9473L38.2363 19.9561L38.6727 19.712ZM38.6727 24.016L38.2345 23.775L38.2315 23.7807L38.6727 24.016ZM37.2327 25.52L37.4832 25.9527L37.4855 25.9513L37.2327 25.52ZM37.0727 25.248L36.8202 24.8164L37.0727 25.248ZM38.4007 23.872L38.8396 24.1114L38.8414 24.1081L38.4007 23.872ZM38.4007 19.856L37.9599 20.0921L37.9617 20.0954L38.4007 19.856ZM37.0727 18.48L36.8202 18.9116L36.8264 18.9151L37.0727 18.48ZM33.2967 18.48L33.543 18.9152L33.5491 18.9116L33.2967 18.48ZM31.9687 19.856L32.4076 20.0954L32.4094 20.0921L31.9687 19.856ZM31.9687 23.872L31.5279 24.1081L31.5297 24.1114L31.9687 23.872ZM33.2967 25.248L33.5491 24.8164L33.2967 25.248ZM35.1847 25.548C34.5083 25.548 33.9064 25.3918 33.368 25.0854L32.8734 25.9546C33.5723 26.3522 34.3464 26.548 35.1847 26.548V25.548ZM33.3768 25.0906C32.8476 24.7749 32.4294 24.3398 32.1188 23.775L31.2426 24.257C31.636 24.9722 32.1777 25.5397 32.8645 25.9494L33.3768 25.0906ZM32.1219 23.7807C31.823 23.2204 31.6687 22.5825 31.6687 21.856H30.6687C30.6687 22.7295 30.8557 23.5316 31.2395 24.2513L32.1219 23.7807ZM31.6687 21.856C31.6687 21.1293 31.823 20.4983 32.1202 19.9504L31.2412 19.4736C30.8557 20.1844 30.6687 20.9827 30.6687 21.856H31.6687ZM32.1188 19.953C32.4287 19.3895 32.8452 18.9612 33.3712 18.6567L32.8702 17.7913C32.1801 18.1908 31.6367 18.7545 31.2426 19.471L32.1188 19.953ZM33.3735 18.6553C33.9112 18.3402 34.5111 18.18 35.1847 18.18V17.18C34.3436 17.18 33.5675 17.3825 32.8678 17.7927L33.3735 18.6553ZM35.1847 18.18C35.8584 18.18 36.4514 18.3402 36.9765 18.6534L37.4888 17.7946C36.798 17.3825 36.0257 17.18 35.1847 17.18V18.18ZM36.9854 18.6586C37.5203 18.9629 37.9338 19.389 38.2315 19.9473L39.1139 19.4767C38.7289 18.755 38.1824 18.1891 37.4799 17.7894L36.9854 18.6586ZM38.2363 19.9561C38.5422 20.5029 38.7007 21.1319 38.7007 21.856H39.7007C39.7007 20.9801 39.5072 20.1798 39.1091 19.4679L38.2363 19.9561ZM38.7007 21.856C38.7007 22.58 38.5422 23.2157 38.2346 23.775L39.1108 24.257C39.5072 23.5363 39.7007 22.732 39.7007 21.856H38.7007ZM38.2315 23.7807C37.9331 24.3402 37.5179 24.7733 36.9798 25.0887L37.4855 25.9513C38.1848 25.5414 38.7296 24.9718 39.1139 24.2513L38.2315 23.7807ZM36.9822 25.0873C36.4562 25.3918 35.8611 25.548 35.1847 25.548V26.548C36.0229 26.548 36.7932 26.3522 37.4832 25.9527L36.9822 25.0873ZM35.1847 26.244C35.9613 26.244 36.6787 26.0577 37.3251 25.6796L36.8202 24.8164C36.336 25.0996 35.7947 25.244 35.1847 25.244V26.244ZM37.3251 25.6796C37.9706 25.302 38.477 24.7762 38.8396 24.1114L37.9617 23.6326C37.6843 24.1411 37.3054 24.5326 36.8202 24.8164L37.3251 25.6796ZM38.8414 24.1081C39.2042 23.431 39.3807 22.6765 39.3807 21.856H38.3807C38.3807 22.5288 38.2372 23.1184 37.9599 23.6359L38.8414 24.1081ZM39.3807 21.856C39.3807 21.0357 39.2042 20.285 38.8396 19.6166L37.9617 20.0954C38.2372 20.6004 38.3807 21.183 38.3807 21.856H39.3807ZM38.8414 19.6199C38.4788 18.9429 37.9703 18.4135 37.319 18.0449L36.8264 18.9151C37.3057 19.1865 37.6826 19.5744 37.9599 20.0921L38.8414 19.6199ZM37.3251 18.0484C36.6787 17.6703 35.9613 17.484 35.1847 17.484V18.484C35.7947 18.484 36.336 18.6284 36.8202 18.9116L37.3251 18.0484ZM35.1847 17.484C34.408 17.484 33.6907 17.6703 33.0442 18.0484L33.5491 18.9116C34.0333 18.6284 34.5747 18.484 35.1847 18.484V17.484ZM33.0504 18.0449C32.3991 18.4135 31.8906 18.9429 31.5279 19.6199L32.4094 20.0921C32.6868 19.5744 33.0636 19.1865 33.543 18.9151L33.0504 18.0449ZM31.5297 19.6166C31.1652 20.285 30.9887 21.0357 30.9887 21.856H31.9887C31.9887 21.183 32.1322 20.6004 32.4076 20.0954L31.5297 19.6166ZM30.9887 21.856C30.9887 22.6765 31.1652 23.431 31.5279 24.1081L32.4094 23.6359C32.1322 23.1184 31.9887 22.5288 31.9887 21.856H30.9887ZM31.5297 24.1114C31.8923 24.7762 32.3988 25.302 33.0442 25.6796L33.5491 24.8164C33.0639 24.5326 32.685 24.1411 32.4076 23.6326L31.5297 24.1114ZM33.0442 25.6796C33.6907 26.0577 34.408 26.244 35.1847 26.244V25.244C34.5747 25.244 34.0333 25.0996 33.5491 24.8164L33.0442 25.6796ZM48.1343 18.576L47.7776 18.9264L47.7808 18.9296L48.1343 18.576ZM49.0143 26V26.5H49.5143V26H49.0143ZM48.6943 26H48.1943V26.5H48.6943V26ZM47.9103 18.8L47.5461 19.1428L47.5532 19.15L47.9103 18.8ZM43.1583 18.96L42.7989 18.6124L42.7988 18.6125L43.1583 18.96ZM42.2303 26V26.5H42.7303V26H42.2303ZM41.9103 26H41.4103V26.5H41.9103V26ZM41.9103 17.728V17.228H41.4103V17.728H41.9103ZM42.2303 17.728H42.7303V17.228H42.2303V17.728ZM42.2303 19.936H41.7303L42.7002 20.1069L42.2303 19.936ZM43.5103 18.288L43.786 18.7052L43.7911 18.7017L43.5103 18.288ZM45.7023 18.18C46.6364 18.18 47.3061 18.4463 47.7776 18.9264L48.491 18.2256C47.7891 17.511 46.8375 17.18 45.7023 17.18V18.18ZM47.7808 18.9296C48.2454 19.3942 48.5143 20.0971 48.5143 21.12H49.5143C49.5143 19.9242 49.1965 18.9311 48.4879 18.2224L47.7808 18.9296ZM48.5143 21.12V26H49.5143V21.12H48.5143ZM49.0143 25.5H48.6943V26.5H49.0143V25.5ZM49.1943 26V21.12H48.1943V26H49.1943ZM49.1943 21.12C49.1943 20.0236 48.9104 19.1062 48.2674 18.45L47.5532 19.15C47.9555 19.5605 48.1943 20.1897 48.1943 21.12H49.1943ZM48.2744 18.4573C47.6438 17.7873 46.7659 17.484 45.7183 17.484V18.484C46.5694 18.484 47.1528 18.7247 47.5462 19.1427L48.2744 18.4573ZM45.7183 17.484C44.5333 17.484 43.5402 17.846 42.7989 18.6124L43.5177 19.3076C44.0351 18.7727 44.7487 18.484 45.7183 18.484V17.484ZM42.7988 18.6125C42.0735 19.3628 41.7303 20.3441 41.7303 21.504H42.7303C42.7303 20.5519 43.0057 19.8372 43.5178 19.3075L42.7988 18.6125ZM41.7303 21.504V26H42.7303V21.504H41.7303ZM42.2303 25.5H41.9103V26.5H42.2303V25.5ZM42.4103 26V17.728H41.4103V26H42.4103ZM41.9103 18.228H42.2303V17.228H41.9103V18.228ZM41.7303 17.728V19.936H42.7303V17.728H41.7303ZM42.7002 20.1069C42.9214 19.4987 43.2824 19.0378 43.7859 18.7052L43.2347 17.8708C42.5435 18.3275 42.0513 18.9653 41.7604 19.7651L42.7002 20.1069ZM43.7911 18.7017C44.2904 18.3629 44.9184 18.18 45.7023 18.18V17.18C44.7583 17.18 43.9249 17.4024 43.2296 17.8743L43.7911 18.7017ZM56.3418 25.456L56.7053 25.7993L57.039 25.446L56.6954 25.1024L56.3418 25.456ZM55.6218 25.904L55.78 26.3784L55.79 26.3749L55.6218 25.904ZM53.2378 25.504L52.8688 25.8414L52.8738 25.8469L52.879 25.8522L53.2378 25.504ZM52.7258 18.032H53.2258V17.532H52.7258V18.032ZM51.1258 18.032H50.6258V18.532H51.1258V18.032ZM51.1258 17.728V17.228H50.6258V17.728H51.1258ZM52.7258 17.728V18.228H53.2258V17.728H52.7258ZM52.7258 15.92V15.42H52.2258V15.92H52.7258ZM53.0458 15.92H53.5458V15.42H53.0458V15.92ZM53.0458 17.728H52.5458V18.228H53.0458V17.728ZM55.8458 17.728H56.3458V17.228H55.8458V17.728ZM55.8458 18.032V18.532H56.3458V18.032H55.8458ZM53.0458 18.032V17.532H52.5458V18.032H53.0458ZM53.4778 25.28L53.1119 25.6207L53.4778 25.28ZM56.1178 25.232L56.4714 24.8784L56.1284 24.5354L55.7751 24.8679L56.1178 25.232ZM55.9783 25.1127C55.861 25.2369 55.6928 25.3477 55.4536 25.4331L55.79 26.3749C56.1481 26.247 56.46 26.0591 56.7053 25.7993L55.9783 25.1127ZM55.4637 25.4297C55.2277 25.5083 54.9824 25.548 54.7258 25.548V26.548C55.0879 26.548 55.44 26.4917 55.7799 26.3783L55.4637 25.4297ZM54.7258 25.548C54.183 25.548 53.8309 25.3971 53.5966 25.1558L52.879 25.8522C53.3487 26.3362 53.9887 26.548 54.7258 26.548V25.548ZM53.6068 25.1666C53.3676 24.905 53.2258 24.539 53.2258 24.016H52.2258C52.2258 24.7303 52.4254 25.3564 52.8688 25.8414L53.6068 25.1666ZM53.2258 24.016V18.032H52.2258V24.016H53.2258ZM52.7258 17.532H51.1258V18.532H52.7258V17.532ZM51.6258 18.032V17.728H50.6258V18.032H51.6258ZM51.1258 18.228H52.7258V17.228H51.1258V18.228ZM53.2258 17.728V15.92H52.2258V17.728H53.2258ZM52.7258 16.42H53.0458V15.42H52.7258V16.42ZM52.5458 15.92V17.728H53.5458V15.92H52.5458ZM53.0458 18.228H55.8458V17.228H53.0458V18.228ZM55.3458 17.728V18.032H56.3458V17.728H55.3458ZM55.8458 17.532H53.0458V18.532H55.8458V17.532ZM52.5458 18.032V23.936H53.5458V18.032H52.5458ZM52.5458 23.936C52.5458 24.5997 52.7091 25.1881 53.1119 25.6207L53.8438 24.9393C53.6705 24.7532 53.5458 24.4457 53.5458 23.936H52.5458ZM53.1119 25.6207C53.5216 26.0608 54.0939 26.244 54.7418 26.244V25.244C54.2804 25.244 54.0101 25.1179 53.8438 24.9393L53.1119 25.6207ZM54.7418 26.244C55.4081 26.244 55.9942 26.0349 56.4605 25.5961L55.7751 24.8679C55.5161 25.1117 55.1848 25.244 54.7418 25.244V26.244ZM55.7643 25.5856L55.9883 25.8096L56.6954 25.1024L56.4714 24.8784L55.7643 25.5856ZM58.8009 17.728V17.228H58.3009V17.728H58.8009ZM59.1209 17.728H59.6209V17.228H59.1209V17.728ZM59.1209 26V26.5H59.6209V26H59.1209ZM58.8009 26H58.3009V26.5H58.8009V26ZM58.6569 15.312L58.2806 15.6413L58.2916 15.6538L58.3034 15.6656L58.6569 15.312ZM58.6569 14.736L58.3034 14.3824L58.3034 14.3824L58.6569 14.736ZM59.2489 14.736L58.8954 15.0896L58.9072 15.1013L58.9197 15.1123L59.2489 14.736ZM58.8009 18.228H59.1209V17.228H58.8009V18.228ZM58.6209 17.728V26H59.6209V17.728H58.6209ZM59.1209 25.5H58.8009V26.5H59.1209V25.5ZM59.3009 26V17.728H58.3009V26H59.3009ZM58.9609 14.94C58.9644 14.94 58.9762 14.941 58.991 14.9472C59.0055 14.9533 59.0119 14.9599 59.0105 14.9584L58.3034 15.6656C58.4795 15.8417 58.7068 15.94 58.9609 15.94V14.94ZM59.0332 14.9827C59.0303 14.9794 59.0345 14.9834 59.0389 14.9948C59.0435 15.0066 59.0449 15.0176 59.0449 15.024H58.0449C58.0449 15.2598 58.1317 15.471 58.2806 15.6413L59.0332 14.9827ZM59.0449 15.024C59.0449 15.0188 59.0456 15.028 59.0389 15.0452C59.0318 15.0635 59.0209 15.0791 59.0105 15.0896L58.3034 14.3824C58.1241 14.5617 58.0449 14.7902 58.0449 15.024H59.0449ZM59.0105 15.0896C59.0119 15.0881 59.0055 15.0947 58.991 15.1008C58.9762 15.107 58.9644 15.108 58.9609 15.108V14.108C58.7068 14.108 58.4795 14.2063 58.3034 14.3824L59.0105 15.0896ZM58.9609 15.108C58.9454 15.108 58.9268 15.1044 58.9099 15.0969C58.8941 15.0899 58.8897 15.0839 58.8954 15.0896L59.6025 14.3824C59.4368 14.2168 59.2181 14.108 58.9609 14.108V15.108ZM58.9197 15.1123C58.9121 15.1057 58.8985 15.0905 58.888 15.0671C58.8778 15.044 58.8769 15.0271 58.8769 15.024H59.8769C59.8769 14.7682 59.7763 14.533 59.5782 14.3597L58.9197 15.1123ZM58.8769 15.024C58.8769 15.0085 58.8805 14.9899 58.888 14.9729C58.895 14.9572 58.901 14.9528 58.8954 14.9584L59.6025 15.6656C59.7682 15.4999 59.8769 15.2811 59.8769 15.024H58.8769ZM58.8954 14.9584C58.8897 14.9641 58.8941 14.9581 58.9099 14.9511C58.9268 14.9436 58.9454 14.94 58.9609 14.94V15.94C59.2181 15.94 59.4368 15.8312 59.6025 15.6656L58.8954 14.9584ZM69.0249 18.576L68.6682 18.9264L68.6714 18.9296L69.0249 18.576ZM69.9049 26V26.5H70.4049V26H69.9049ZM69.5849 26H69.0849V26.5H69.5849V26ZM68.8009 18.8L68.4368 19.1428L68.4438 19.15L68.8009 18.8ZM64.0489 18.96L63.6895 18.6124L63.6894 18.6125L64.0489 18.96ZM63.1209 26V26.5H63.6209V26H63.1209ZM62.8009 26H62.3009V26.5H62.8009V26ZM62.8009 17.728V17.228H62.3009V17.728H62.8009ZM63.1209 17.728H63.6209V17.228H63.1209V17.728ZM63.1209 19.936H62.6209L63.5908 20.1069L63.1209 19.936ZM64.4009 18.288L64.6766 18.7052L64.6817 18.7017L64.4009 18.288ZM66.5929 18.18C67.5271 18.18 68.1968 18.4463 68.6682 18.9264L69.3817 18.2256C68.6798 17.511 67.7281 17.18 66.5929 17.18V18.18ZM68.6714 18.9296C69.136 19.3942 69.4049 20.0971 69.4049 21.12H70.4049C70.4049 19.9242 70.0872 18.9311 69.3785 18.2224L68.6714 18.9296ZM69.4049 21.12V26H70.4049V21.12H69.4049ZM69.9049 25.5H69.5849V26.5H69.9049V25.5ZM70.0849 26V21.12H69.0849V26H70.0849ZM70.0849 21.12C70.0849 20.0236 69.8011 19.1062 69.158 18.45L68.4438 19.15C68.8461 19.5605 69.0849 20.1897 69.0849 21.12H70.0849ZM69.165 18.4573C68.5345 17.7873 67.6565 17.484 66.6089 17.484V18.484C67.46 18.484 68.0434 18.7247 68.4368 19.1427L69.165 18.4573ZM66.6089 17.484C65.4239 17.484 64.4308 17.846 63.6895 18.6124L64.4083 19.3076C64.9258 18.7727 65.6393 18.484 66.6089 18.484V17.484ZM63.6894 18.6125C62.9642 19.3628 62.6209 20.3441 62.6209 21.504H63.6209C63.6209 20.5519 63.8964 19.8372 64.4084 19.3075L63.6894 18.6125ZM62.6209 21.504V26H63.6209V21.504H62.6209ZM63.1209 25.5H62.8009V26.5H63.1209V25.5ZM63.3009 26V17.728H62.3009V26H63.3009ZM62.8009 18.228H63.1209V17.228H62.8009V18.228ZM62.6209 17.728V19.936H63.6209V17.728H62.6209ZM63.5908 20.1069C63.812 19.4987 64.1731 19.0378 64.6766 18.7052L64.1253 17.8708C63.4341 18.3275 62.9419 18.9653 62.651 19.7651L63.5908 20.1069ZM64.6817 18.7017C65.181 18.3629 65.809 18.18 66.5929 18.18V17.18C65.6489 17.18 64.8155 17.4024 64.1202 17.8743L64.6817 18.7017ZM80.4324 17.728H80.9324V17.228H80.4324V17.728ZM80.4324 26V26.5H80.9324V26H80.4324ZM80.1124 26H79.6124V26.5H80.1124V26ZM80.1124 23.808H80.6124L79.6403 23.6435L80.1124 23.808ZM78.8804 25.456L78.5978 25.0435L78.5978 25.0435L78.8804 25.456ZM74.2884 25.168L73.9349 25.5216L73.9381 25.5247L74.2884 25.168ZM73.3924 17.728V17.228H72.8924V17.728H73.3924ZM73.7124 17.728H74.2124V17.228H73.7124V17.728ZM74.5124 24.944L74.1554 25.2941L74.1589 25.2976L74.5124 24.944ZM79.2164 24.784L79.582 25.1252L79.5848 25.1221L79.2164 24.784ZM80.1124 17.728V17.228H79.6124V17.728H80.1124ZM79.9324 17.728V26H80.9324V17.728H79.9324ZM80.4324 25.5H80.1124V26.5H80.4324V25.5ZM80.6124 26V23.808H79.6124V26H80.6124ZM79.6403 23.6435C79.4275 24.254 79.0797 24.7134 78.5978 25.0435L79.1631 25.8685C79.8332 25.4093 80.3067 24.77 80.5846 23.9725L79.6403 23.6435ZM78.5978 25.0435C78.1189 25.3717 77.5231 25.548 76.7844 25.548V26.548C77.6884 26.548 78.49 26.3296 79.1631 25.8685L78.5978 25.0435ZM76.7844 25.548C75.8112 25.548 75.1189 25.2828 74.6388 24.8113L73.9381 25.5247C74.6527 26.2266 75.6243 26.548 76.7844 26.548V25.548ZM74.642 24.8144C74.1651 24.3375 73.8924 23.6279 73.8924 22.608H72.8924C72.8924 23.8068 73.2171 24.8038 73.9349 25.5216L74.642 24.8144ZM73.8924 22.608V17.728H72.8924V22.608H73.8924ZM73.3924 18.228H73.7124V17.228H73.3924V18.228ZM73.2124 17.728V22.608H74.2124V17.728H73.2124ZM73.2124 22.608C73.2124 23.7077 73.5034 24.629 74.1554 25.294L74.8695 24.594C74.4548 24.171 74.2124 23.535 74.2124 22.608H73.2124ZM74.1589 25.2976C74.8108 25.9495 75.705 26.244 76.7684 26.244V25.244C75.8906 25.244 75.2807 25.0052 74.866 24.5904L74.1589 25.2976ZM76.7684 26.244C77.9143 26.244 78.8729 25.8849 79.582 25.1252L78.8509 24.4428C78.3653 24.9631 77.6919 25.244 76.7684 25.244V26.244ZM79.5848 25.1221C80.2828 24.3618 80.6124 23.3793 80.6124 22.224H79.6124C79.6124 23.1807 79.3447 23.9049 78.8481 24.4459L79.5848 25.1221ZM80.6124 22.224V17.728H79.6124V22.224H80.6124ZM80.1124 18.228H80.4324V17.228H80.1124V18.228ZM90.8014 21.856V22.356H91.3014V21.856H90.8014ZM83.4414 21.856V21.356H82.9414V21.856H83.4414ZM83.9374 23.872L83.5 24.1142L83.5019 24.1175L83.9374 23.872ZM85.2974 25.248L85.0485 25.6816L85.0519 25.6836L85.2974 25.248ZM88.8494 25.424L89.0488 25.8826L89.0534 25.8805L88.8494 25.424ZM90.0814 24.464L90.435 24.1104L90.0323 23.7078L89.6851 24.1591L90.0814 24.464ZM90.3054 24.688L90.6903 25.0072L90.9811 24.6565L90.659 24.3344L90.3054 24.688ZM88.9614 25.696L88.7601 25.2383L88.9614 25.696ZM85.1374 25.52L84.8845 25.9514L84.8934 25.9564L85.1374 25.52ZM83.6654 24.016L83.2273 24.257L83.2304 24.2625L83.6654 24.016ZM83.6334 19.712L84.0761 19.9446L84.0777 19.9415L83.6334 19.712ZM84.9934 18.224L85.2542 18.6506L85.2563 18.6493L84.9934 18.224ZM88.9134 18.208L88.6562 18.6367V18.6367L88.9134 18.208ZM90.2894 19.664L89.8484 19.8997L89.8516 19.9055L90.2894 19.664ZM85.2174 18.448L85.4721 18.8783L85.2174 18.448ZM83.9534 19.728L83.5224 19.4745L83.5188 19.4808L83.9534 19.728ZM83.4414 21.552L82.942 21.5282L82.9171 22.052H83.4414V21.552ZM90.4974 21.552V22.052H91.0218L90.9969 21.5282L90.4974 21.552ZM89.9694 19.728L89.5385 19.9815L89.9694 19.728ZM88.7054 18.448L88.4508 18.8783L88.7054 18.448ZM90.8014 21.356H83.4414V22.356H90.8014V21.356ZM82.9414 21.856C82.9414 22.6793 83.1245 23.4359 83.5 24.1142L84.3749 23.6298C84.089 23.1134 83.9414 22.5261 83.9414 21.856H82.9414ZM83.5019 24.1175C83.876 24.7814 84.3934 25.3055 85.0485 25.6816L85.5464 24.8144C85.0495 24.5291 84.6602 24.136 84.373 23.6265L83.5019 24.1175ZM85.0519 25.6836C85.7193 26.0597 86.4609 26.244 87.2654 26.244V25.244C86.6193 25.244 86.0489 25.0976 85.5429 24.8124L85.0519 25.6836ZM87.2654 26.244C87.8954 26.244 88.4917 26.1248 89.0488 25.8825L88.6501 24.9655C88.2258 25.1499 87.7661 25.244 87.2654 25.244V26.244ZM89.0534 25.8805C89.6268 25.6243 90.1048 25.2536 90.4778 24.7689L89.6851 24.1591C89.418 24.5064 89.0747 24.7757 88.6455 24.9675L89.0534 25.8805ZM89.7279 24.8176L89.9519 25.0416L90.659 24.3344L90.435 24.1104L89.7279 24.8176ZM89.9206 24.3688C89.6088 24.7448 89.2242 25.0341 88.7601 25.2383L89.1628 26.1537C89.7654 25.8885 90.2768 25.5059 90.6903 25.0072L89.9206 24.3688ZM88.7601 25.2383C88.2918 25.4444 87.7952 25.548 87.2654 25.548V26.548C87.9303 26.548 88.5644 26.417 89.1628 26.1537L88.7601 25.2383ZM87.2654 25.548C86.5533 25.548 85.9293 25.39 85.3815 25.0836L84.8934 25.9564C85.6042 26.354 86.3989 26.548 87.2654 26.548V25.548ZM85.3903 25.0887C84.8496 24.7717 84.4209 24.335 84.1004 23.7695L83.2304 24.2625C83.6353 24.977 84.188 25.543 84.8846 25.9513L85.3903 25.0887ZM84.1035 23.775C83.7959 23.2157 83.6374 22.58 83.6374 21.856H82.6374C82.6374 22.732 82.8309 23.5363 83.2273 24.257L84.1035 23.775ZM83.6374 21.856C83.6374 21.1267 83.7876 20.4936 84.0761 19.9446L83.1908 19.4794C82.818 20.1891 82.6374 20.9853 82.6374 21.856H83.6374ZM84.0777 19.9415C84.3693 19.3771 84.7615 18.9517 85.2542 18.6506L84.7327 17.7974C84.0734 18.2003 83.5589 18.7669 83.1892 19.4825L84.0777 19.9415ZM85.2563 18.6493C85.7599 18.338 86.324 18.18 86.9614 18.18V17.18C86.1482 17.18 85.4004 17.3846 84.7305 17.7987L85.2563 18.6493ZM86.9614 18.18C87.5897 18.18 88.1508 18.3335 88.6562 18.6367L89.1707 17.7793C88.5028 17.3785 87.7625 17.18 86.9614 17.18V18.18ZM88.6562 18.6367C89.1632 18.941 89.5593 19.3587 89.8485 19.8997L90.7304 19.4283C90.3582 18.732 89.837 18.179 89.1707 17.7793L88.6562 18.6367ZM89.8516 19.9055C90.1476 20.4419 90.3014 21.0611 90.3014 21.776H91.3014C91.3014 20.9123 91.114 20.1234 90.7272 19.4225L89.8516 19.9055ZM90.3014 21.776V21.856H91.3014V21.776H90.3014ZM86.9614 17.484C86.2369 17.484 85.5668 17.6603 84.9628 18.0177L85.4721 18.8783C85.9135 18.6171 86.406 18.484 86.9614 18.484V17.484ZM84.9628 18.0177C84.3644 18.3718 83.8836 18.8606 83.5225 19.4745L84.3844 19.9815C84.6633 19.5074 85.0251 19.1428 85.4721 18.8783L84.9628 18.0177ZM83.5188 19.4808C83.1677 20.0982 82.9775 20.7837 82.942 21.5282L83.9409 21.5758C83.9694 20.9763 84.1205 20.4458 84.3881 19.9752L83.5188 19.4808ZM83.4414 22.052H90.4974V21.052H83.4414V22.052ZM90.9969 21.5282C90.9613 20.7807 90.7642 20.093 90.4004 19.4745L89.5385 19.9815C89.8147 20.451 89.9696 20.9793 89.998 21.5758L90.9969 21.5282ZM90.4004 19.4745C90.0393 18.8606 89.5584 18.3718 88.9601 18.0177L88.4508 18.8783C88.8978 19.1428 89.2596 19.5074 89.5385 19.9815L90.4004 19.4745ZM88.9601 18.0177C88.3561 17.6603 87.686 17.484 86.9614 17.484V18.484C87.5169 18.484 88.0094 18.6171 88.4508 18.8783L88.9601 18.0177Z" fill="#F5F1E6"/>
<defs>
<filter id="filter0_d_144_22" x="0" y="0" width="110.795" height="46.7539" filterUnits="userSpaceOnUse" color-interpolation-filters="sRGB">
<feFlood flood-opacity="0" result="BackgroundImageFix"/>
<feColorMatrix in="SourceAlpha" type="matrix" values="0 0 0 0 0 0 0 0 0 0 0 0 0 0 0 0 0 0 127 0" result="hardAlpha"/>
<feOffset dy="3"/>
<feGaussianBlur stdDeviation="1.5"/>
<feComposite in2="hardAlpha" operator="out"/>
<feColorMatrix type="matrix" values="0 0 0 0 0 0 0 0 0 0 0 0 0 0 0 0 0 0 0.160784 0"/>
<feBlend mode="normal" in2="BackgroundImageFix" result="effect1_dropShadow_144_22"/>
<feBlend mode="normal" in="SourceGraphic" in2="effect1_dropShadow_144_22" result="shape"/>
</filter>
</defs>
</svg>
