<svg width="22" height="22" viewBox="0 0 22 22" fill="none" xmlns="http://www.w3.org/2000/svg">
<path d="M21.7861 8.84565H20.9V8.8H11V13.2H17.2167C16.3097 15.7614 13.8727 17.6 11 17.6C7.35515 17.6 4.4 14.6448 4.4 11C4.4 7.35515 7.35515 4.4 11 4.4C12.6825 4.4 14.2131 5.0347 15.3786 6.07145L18.4899 2.9601C16.5253 1.12915 13.8974 0 11 0C4.92525 0 0 4.92525 0 11C0 17.0748 4.92525 22 11 22C17.0748 22 22 17.0748 22 11C22 10.2625 21.9241 9.5425 21.7861 8.84565Z" fill="#FFC107"/>
<path d="M1.26807 5.88005L4.88212 8.5305C5.86002 6.1094 8.22832 4.4 10.9998 4.4C12.6822 4.4 14.2129 5.0347 15.3783 6.07145L18.4897 2.9601C16.5251 1.12915 13.8972 0 10.9998 0C6.77467 0 3.11057 2.38535 1.26807 5.88005Z" fill="#FF3D00"/>
<path d="M11.0003 21.9999C13.8416 21.9999 16.4233 20.9126 18.3752 19.1443L14.9707 16.2634C13.8292 17.1315 12.4344 17.6011 11.0003 17.5999C8.13917 17.5999 5.70982 15.7756 4.79462 13.2296L1.20752 15.9934C3.02802 19.5557 6.72512 21.9999 11.0003 21.9999Z" fill="#4CAF50"/>
<path d="M21.786 8.84558H20.9V8.79993H11V13.1999H17.2167C16.7828 14.419 16.0013 15.4842 14.9688 16.264L14.9704 16.2629L18.375 19.1438C18.1341 19.3627 22 16.4999 22 10.9999C22 10.2624 21.9241 9.54243 21.786 8.84558Z" fill="#1976D2"/>
</svg>
