<svg width="71" height="41" viewBox="0 0 71 41" fill="none" xmlns="http://www.w3.org/2000/svg">
<g filter="url(#filter0_d_302_28)">
<path d="M0 20C0 8.95431 8.95431 0 20 0H51C62.0457 0 71 8.95431 71 20V21C71 32.0457 62.0457 41 51 41H20C8.9543 41 0 32.0457 0 21V20Z" fill="#D0FD0C"/>
</g>
<path d="M17.2349 26.09C15.6599 26.09 14.1149 25.535 13.3349 24.725L13.7699 23.87C14.5199 24.605 15.8549 25.145 17.2349 25.145C19.1999 25.145 20.0549 24.32 20.0549 23.285C20.0549 20.405 13.5899 22.175 13.5899 18.29C13.5899 16.745 14.7899 15.41 17.4599 15.41C18.6449 15.41 19.8749 15.755 20.7149 16.34L20.3399 17.225C19.4399 16.64 18.3899 16.355 17.4599 16.355C15.5399 16.355 14.6849 17.21 14.6849 18.26C14.6849 21.14 21.1499 19.4 21.1499 23.225C21.1499 24.77 19.9199 26.09 17.2349 26.09ZM30.2284 22.055C30.2284 22.145 30.2134 22.265 30.2134 22.385H23.6134C23.7334 24.035 24.9934 25.13 26.7184 25.13C27.6784 25.13 28.5334 24.785 29.1334 24.095L29.7334 24.785C29.0284 25.625 27.9334 26.075 26.6884 26.075C24.2284 26.075 22.5484 24.395 22.5484 22.055C22.5484 19.715 24.1834 18.05 26.4034 18.05C28.6234 18.05 30.2284 19.685 30.2284 22.055ZM26.4034 18.965C24.8734 18.965 23.7484 20.045 23.6134 21.59H29.2084C29.0734 20.045 27.9484 18.965 26.4034 18.965ZM32.3961 26V14.87H33.4611V26H32.3961ZM43.3095 22.055C43.3095 22.145 43.2945 22.265 43.2945 22.385H36.6945C36.8145 24.035 38.0745 25.13 39.7995 25.13C40.7595 25.13 41.6145 24.785 42.2145 24.095L42.8145 24.785C42.1095 25.625 41.0145 26.075 39.7695 26.075C37.3095 26.075 35.6295 24.395 35.6295 22.055C35.6295 19.715 37.2645 18.05 39.4845 18.05C41.7045 18.05 43.3095 19.685 43.3095 22.055ZM39.4845 18.965C37.9545 18.965 36.8295 20.045 36.6945 21.59H42.2895C42.1545 20.045 41.0295 18.965 39.4845 18.965ZM48.7472 26.075C46.3922 26.075 44.6822 24.41 44.6822 22.055C44.6822 19.7 46.3922 18.05 48.7472 18.05C50.0822 18.05 51.2072 18.575 51.8372 19.61L51.0422 20.15C50.5022 19.355 49.6622 18.98 48.7472 18.98C47.0222 18.98 45.7622 20.21 45.7622 22.055C45.7622 23.915 47.0222 25.13 48.7472 25.13C49.6622 25.13 50.5022 24.77 51.0422 23.975L51.8372 24.515C51.2072 25.535 50.0822 26.075 48.7472 26.075ZM57.7972 24.755L58.1722 25.52C57.7522 25.895 57.1222 26.075 56.5072 26.075C55.0222 26.075 54.1972 25.235 54.1972 23.78V19.01H52.7872V18.11H54.1972V16.385H55.2622V18.11H57.6622V19.01H55.2622V23.72C55.2622 24.65 55.7422 25.16 56.6272 25.16C57.0622 25.16 57.4972 25.025 57.7972 24.755Z" fill="black"/>
<defs>
<filter id="filter0_d_302_28" x="-3" y="0" width="77" height="47" filterUnits="userSpaceOnUse" color-interpolation-filters="sRGB">
<feFlood flood-opacity="0" result="BackgroundImageFix"/>
<feColorMatrix in="SourceAlpha" type="matrix" values="0 0 0 0 0 0 0 0 0 0 0 0 0 0 0 0 0 0 127 0" result="hardAlpha"/>
<feOffset dy="3"/>
<feGaussianBlur stdDeviation="1.5"/>
<feComposite in2="hardAlpha" operator="out"/>
<feColorMatrix type="matrix" values="0 0 0 0 0 0 0 0 0 0 0 0 0 0 0 0 0 0 0.160784 0"/>
<feBlend mode="normal" in2="BackgroundImageFix" result="effect1_dropShadow_302_28"/>
<feBlend mode="normal" in="SourceGraphic" in2="effect1_dropShadow_302_28" result="shape"/>
</filter>
</defs>
</svg>
