<svg width="80" height="65" viewBox="0 0 80 65" fill="none" xmlns="http://www.w3.org/2000/svg">
<path d="M1.85 0.499999H3.7V18H1.85V0.499999ZM26.9119 13.325H17.1619L15.0619 18H13.1369L21.1369 0.499999H22.9619L30.9619 18H29.0119L26.9119 13.325ZM26.2369 11.825L22.0369 2.425L17.8369 11.825H26.2369ZM52.0318 0.499999V18H50.2568V4L43.3818 15.775H42.5068L35.6318 4.075V18H33.8568V0.499999H35.3818L42.9818 13.475L50.5068 0.499999H52.0318ZM18.85 21.5L15.35 39H13.3L5.475 25.525L2.8 39H0.3L3.8 21.5H5.85L13.675 34.975L16.35 21.5H18.85ZM29.0131 39.2C27.2964 39.2 25.8214 38.8917 24.5881 38.275C23.3548 37.6583 22.4131 36.8 21.7631 35.7C21.1131 34.5833 20.7881 33.2917 20.7881 31.825C20.7881 29.875 21.2298 28.1 22.1131 26.5C22.9964 24.9 24.2381 23.6333 25.8381 22.7C27.4548 21.7667 29.3131 21.3 31.4131 21.3C33.1298 21.3 34.6048 21.6083 35.8381 22.225C37.0881 22.8417 38.0381 23.7083 38.6881 24.825C39.3381 25.925 39.6631 27.2083 39.6631 28.675C39.6631 30.625 39.2214 32.4 38.3381 34C37.4548 35.6 36.2048 36.8667 34.5881 37.8C32.9714 38.7333 31.1131 39.2 29.0131 39.2ZM29.2381 36.975C30.8048 36.975 32.1881 36.6083 33.3881 35.875C34.5881 35.1417 35.5131 34.1583 36.1631 32.925C36.8131 31.675 37.1381 30.3083 37.1381 28.825C37.1381 27.2083 36.6214 25.925 35.5881 24.975C34.5714 24.0083 33.1131 23.525 31.2131 23.525C29.6464 23.525 28.2631 23.8917 27.0631 24.625C25.8631 25.3583 24.9298 26.35 24.2631 27.6C23.6131 28.85 23.2881 30.2083 23.2881 31.675C23.2881 33.2917 23.8048 34.5833 24.8381 35.55C25.8714 36.5 27.3381 36.975 29.2381 36.975ZM47.865 23.675H41.89L42.315 21.5H56.79L56.34 23.675H50.365L47.29 39H44.815L47.865 23.675ZM6.675 60.15C5.375 60.15 4.125 59.9417 2.925 59.525C1.74167 59.1083 0.825 58.5583 0.175 57.875L0.9 56.45C1.53333 57.0833 2.375 57.6 3.425 58C4.475 58.3833 5.55833 58.575 6.675 58.575C8.24167 58.575 9.41667 58.2917 10.2 57.725C10.9833 57.1417 11.375 56.3917 11.375 55.475C11.375 54.775 11.1583 54.2167 10.725 53.8C10.3083 53.3833 9.79167 53.0667 9.175 52.85C8.55833 52.6167 7.7 52.3667 6.6 52.1C5.28333 51.7667 4.23333 51.45 3.45 51.15C2.66667 50.8333 1.99167 50.3583 1.425 49.725C0.875 49.0917 0.6 48.2333 0.6 47.15C0.6 46.2667 0.833333 45.4667 1.3 44.75C1.76667 44.0167 2.48333 43.4333 3.45 43C4.41667 42.5667 5.61667 42.35 7.05 42.35C8.05 42.35 9.025 42.4917 9.975 42.775C10.9417 43.0417 11.775 43.4167 12.475 43.9L11.85 45.375C11.1167 44.8917 10.3333 44.5333 9.5 44.3C8.66667 44.05 7.85 43.925 7.05 43.925C5.51667 43.925 4.35833 44.225 3.575 44.825C2.80833 45.4083 2.425 46.1667 2.425 47.1C2.425 47.8 2.63333 48.3667 3.05 48.8C3.48333 49.2167 4.01667 49.5417 4.65 49.775C5.3 49.9917 6.16667 50.2333 7.25 50.5C8.53333 50.8167 9.56667 51.1333 10.35 51.45C11.15 51.75 11.825 52.2167 12.375 52.85C12.925 53.4667 13.2 54.3083 13.2 55.375C13.2 56.2583 12.9583 57.0667 12.475 57.8C12.0083 58.5167 11.2833 59.0917 10.3 59.525C9.31667 59.9417 8.10833 60.15 6.675 60.15ZM23.7809 59.2C23.4475 59.5 23.0309 59.7333 22.5309 59.9C22.0475 60.05 21.5392 60.125 21.0059 60.125C19.7725 60.125 18.8225 59.7917 18.1559 59.125C17.4892 58.4583 17.1559 57.5167 17.1559 56.3V48.35H14.8059V46.85H17.1559V43.975H18.9309V46.85H22.9309V48.35H18.9309V56.2C18.9309 56.9833 19.1225 57.5833 19.5059 58C19.9059 58.4 20.4725 58.6 21.2059 58.6C21.5725 58.6 21.9225 58.5417 22.2559 58.425C22.6059 58.3083 22.9059 58.1417 23.1559 57.925L23.7809 59.2ZM38.8621 46.85V60H37.1621V57.6C36.6954 58.4 36.0538 59.025 35.2371 59.475C34.4204 59.9083 33.4871 60.125 32.4371 60.125C30.7204 60.125 29.3621 59.65 28.3621 58.7C27.3788 57.7333 26.8871 56.325 26.8871 54.475V46.85H28.6621V54.3C28.6621 55.6833 29.0038 56.7333 29.6871 57.45C30.3704 58.1667 31.3454 58.525 32.6121 58.525C33.9954 58.525 35.0871 58.1083 35.8871 57.275C36.6871 56.425 37.0871 55.25 37.0871 53.75V46.85H38.8621ZM50.6084 46.75C51.8417 46.75 52.9584 47.0333 53.9584 47.6C54.9584 48.15 55.7417 48.9333 56.3084 49.95C56.8751 50.9667 57.1584 52.125 57.1584 53.425C57.1584 54.7417 56.8751 55.9083 56.3084 56.925C55.7417 57.9417 54.9584 58.7333 53.9584 59.3C52.9751 59.85 51.8584 60.125 50.6084 60.125C49.5417 60.125 48.5751 59.9083 47.7084 59.475C46.8584 59.025 46.1584 58.375 45.6084 57.525V64.85H43.8334V46.85H45.5334V49.45C46.0667 48.5833 46.7667 47.9167 47.6334 47.45C48.5167 46.9833 49.5084 46.75 50.6084 46.75ZM50.4834 58.55C51.4001 58.55 52.2334 58.3417 52.9834 57.925C53.7334 57.4917 54.3167 56.8833 54.7334 56.1C55.1667 55.3167 55.3834 54.425 55.3834 53.425C55.3834 52.425 55.1667 51.5417 54.7334 50.775C54.3167 49.9917 53.7334 49.3833 52.9834 48.95C52.2334 48.5167 51.4001 48.3 50.4834 48.3C49.5501 48.3 48.7084 48.5167 47.9584 48.95C47.2251 49.3833 46.6417 49.9917 46.2084 50.775C45.7917 51.5417 45.5834 52.425 45.5834 53.425C45.5834 54.425 45.7917 55.3167 46.2084 56.1C46.6417 56.8833 47.2251 57.4917 47.9584 57.925C48.7084 58.3417 49.5501 58.55 50.4834 58.55ZM60.7768 46.85H62.5518V60H60.7768V46.85ZM61.6768 43.975C61.3101 43.975 61.0018 43.85 60.7518 43.6C60.5018 43.35 60.3768 43.05 60.3768 42.7C60.3768 42.3667 60.5018 42.075 60.7518 41.825C61.0018 41.575 61.3101 41.45 61.6768 41.45C62.0434 41.45 62.3518 41.575 62.6018 41.825C62.8518 42.0583 62.9768 42.3417 62.9768 42.675C62.9768 43.0417 62.8518 43.35 62.6018 43.6C62.3518 43.85 62.0434 43.975 61.6768 43.975ZM79.4906 41.45V60H77.7906V57.4C77.2573 58.2833 76.549 58.9583 75.6656 59.425C74.799 59.8917 73.8156 60.125 72.7156 60.125C71.4823 60.125 70.3656 59.8417 69.3656 59.275C68.3656 58.7083 67.5823 57.9167 67.0156 56.9C66.449 55.8833 66.1656 54.725 66.1656 53.425C66.1656 52.125 66.449 50.9667 67.0156 49.95C67.5823 48.9333 68.3656 48.15 69.3656 47.6C70.3656 47.0333 71.4823 46.75 72.7156 46.75C73.7823 46.75 74.7406 46.975 75.5906 47.425C76.4573 47.8583 77.1656 48.5 77.7156 49.35V41.45H79.4906ZM72.8656 58.55C73.7823 58.55 74.6073 58.3417 75.3406 57.925C76.0906 57.4917 76.674 56.8833 77.0906 56.1C77.524 55.3167 77.7406 54.425 77.7406 53.425C77.7406 52.425 77.524 51.5333 77.0906 50.75C76.674 49.9667 76.0906 49.3667 75.3406 48.95C74.6073 48.5167 73.7823 48.3 72.8656 48.3C71.9323 48.3 71.0906 48.5167 70.3406 48.95C69.6073 49.3667 69.024 49.9667 68.5906 50.75C68.174 51.5333 67.9656 52.425 67.9656 53.425C67.9656 54.425 68.174 55.3167 68.5906 56.1C69.024 56.8833 69.6073 57.4917 70.3406 57.925C71.0906 58.3417 71.9323 58.55 72.8656 58.55Z" fill="#E5FF00"/>
</svg>
