<svg width="286" height="301" viewBox="0 0 286 301" fill="none" xmlns="http://www.w3.org/2000/svg">
<path d="M6.26 63V-4.29153e-06H12.92V63H6.26ZM104.043 63L96.4829 46.17H61.3829L53.8229 63H46.8929L75.6929 -4.29153e-06H82.2629L111.063 63H104.043ZM63.8129 40.77H94.0529L78.9329 6.93L63.8129 40.77ZM181.425 -4.29153e-06H186.915V63H180.525V12.6L155.775 54.99H152.625L127.875 12.87V63H121.485V-4.29153e-06H126.975L154.335 46.71L181.425 -4.29153e-06ZM58.46 110H67.46L54.86 173H47.48L19.31 124.49L9.68 173H0.68L13.28 110H20.66L48.83 158.51L58.46 110ZM104.047 173.72C85.2371 173.72 74.4371 162.92 74.4371 147.17C74.4371 126.2 89.4671 109.28 112.687 109.28C131.497 109.28 142.387 120.08 142.387 135.83C142.387 156.8 127.267 173.72 104.047 173.72ZM104.857 165.71C122.317 165.71 133.297 152.21 133.297 136.37C133.297 125.03 125.917 117.29 111.967 117.29C94.5071 117.29 83.4371 130.79 83.4371 146.63C83.4371 157.97 90.9071 165.71 104.857 165.71ZM160.934 173L171.914 117.83H150.404L151.934 110H204.044L202.424 117.83H180.914L169.844 173H160.934ZM23.63 283.54C14.18 283.54 4.91 280.21 0.23 275.35L2.84 270.22C7.34 274.63 15.35 277.87 23.63 277.87C35.42 277.87 40.55 272.92 40.55 266.71C40.55 249.43 1.76 260.05 1.76 236.74C1.76 227.47 8.96 219.46 24.98 219.46C32.09 219.46 39.47 221.53 44.51 225.04L42.26 230.35C36.86 226.84 30.56 225.13 24.98 225.13C13.46 225.13 8.33 230.26 8.33 236.56C8.33 253.84 47.12 243.4 47.12 266.35C47.12 275.62 39.74 283.54 23.63 283.54ZM82.9611 275.53L85.2111 280.12C82.6911 282.37 78.9111 283.45 75.2211 283.45C66.3111 283.45 61.3611 278.41 61.3611 269.68V241.06H52.9011V235.66H61.3611V225.31H67.7511V235.66H82.1511V241.06H67.7511V269.32C67.7511 274.9 70.6311 277.96 75.9411 277.96C78.5511 277.96 81.1611 277.15 82.9611 275.53ZM133.114 235.66H139.504V283H133.384V274.36C130.054 280.12 123.934 283.45 116.374 283.45C104.314 283.45 96.3936 276.7 96.3936 263.11V235.66H102.784V262.48C102.784 272.56 108.004 277.69 117.004 277.69C126.904 277.69 133.114 271.3 133.114 260.5V235.66ZM181.79 235.3C195.29 235.3 205.37 245.02 205.37 259.33C205.37 273.73 195.29 283.45 181.79 283.45C174.23 283.45 167.75 280.21 163.79 274.09V300.46H157.4V235.66H163.52V245.02C167.39 238.72 173.96 235.3 181.79 235.3ZM181.34 277.78C191.33 277.78 198.98 270.4 198.98 259.33C198.98 248.35 191.33 240.88 181.34 240.88C171.26 240.88 163.7 248.35 163.7 259.33C163.7 270.4 171.26 277.78 181.34 277.78ZM221.636 225.31C219.026 225.31 216.956 223.24 216.956 220.72C216.956 218.29 219.026 216.22 221.636 216.22C224.246 216.22 226.316 218.2 226.316 220.63C226.316 223.24 224.336 225.31 221.636 225.31ZM218.396 283V235.66H224.786V283H218.396ZM279.376 216.22H285.766V283H279.646V273.64C275.776 280.03 269.206 283.45 261.376 283.45C247.876 283.45 237.796 273.64 237.796 259.33C237.796 245.02 247.876 235.3 261.376 235.3C268.936 235.3 275.416 238.54 279.376 244.66V216.22ZM261.916 277.78C271.906 277.78 279.466 270.4 279.466 259.33C279.466 248.26 271.906 240.88 261.916 240.88C251.836 240.88 244.276 248.26 244.276 259.33C244.276 270.4 251.836 277.78 261.916 277.78Z" fill="black"/>
</svg>
