<svg width="286" height="225" viewBox="0 0 286 225" fill="none" xmlns="http://www.w3.org/2000/svg">
<path d="M6.26 63V-4.29153e-06H12.92V63H6.26ZM104.043 63L96.4829 46.17H61.3829L53.8229 63H46.8929L75.6929 -4.29153e-06H82.2629L111.063 63H104.043ZM63.8129 40.77H94.0529L78.9329 6.93L63.8129 40.77ZM181.425 -4.29153e-06H186.915V63H180.525V12.6L155.775 54.99H152.625L127.875 12.87V63H121.485V-4.29153e-06H126.975L154.335 46.71L181.425 -4.29153e-06ZM58.46 72H67.46L54.86 135H47.48L19.31 86.49L9.68 135H0.68L13.28 72H20.66L48.83 120.51L58.46 72ZM104.047 135.72C85.2371 135.72 74.4371 124.92 74.4371 109.17C74.4371 88.2 89.4671 71.28 112.687 71.28C131.497 71.28 142.387 82.08 142.387 97.83C142.387 118.8 127.267 135.72 104.047 135.72ZM104.857 127.71C122.317 127.71 133.297 114.21 133.297 98.37C133.297 87.03 125.917 79.29 111.967 79.29C94.5071 79.29 83.4371 92.79 83.4371 108.63C83.4371 119.97 90.9071 127.71 104.857 127.71ZM160.934 135L171.914 79.83H150.404L151.934 72H204.044L202.424 79.83H180.914L169.844 135H160.934ZM23.63 207.54C14.18 207.54 4.91 204.21 0.23 199.35L2.84 194.22C7.34 198.63 15.35 201.87 23.63 201.87C35.42 201.87 40.55 196.92 40.55 190.71C40.55 173.43 1.76 184.05 1.76 160.74C1.76 151.47 8.96 143.46 24.98 143.46C32.09 143.46 39.47 145.53 44.51 149.04L42.26 154.35C36.86 150.84 30.56 149.13 24.98 149.13C13.46 149.13 8.33 154.26 8.33 160.56C8.33 177.84 47.12 167.4 47.12 190.35C47.12 199.62 39.74 207.54 23.63 207.54ZM82.9611 199.53L85.2111 204.12C82.6911 206.37 78.9111 207.45 75.2211 207.45C66.3111 207.45 61.3611 202.41 61.3611 193.68V165.06H52.9011V159.66H61.3611V149.31H67.7511V159.66H82.1511V165.06H67.7511V193.32C67.7511 198.9 70.6311 201.96 75.9411 201.96C78.5511 201.96 81.1611 201.15 82.9611 199.53ZM133.114 159.66H139.504V207H133.384V198.36C130.054 204.12 123.934 207.45 116.374 207.45C104.314 207.45 96.3936 200.7 96.3936 187.11V159.66H102.784V186.48C102.784 196.56 108.004 201.69 117.004 201.69C126.904 201.69 133.114 195.3 133.114 184.5V159.66ZM181.79 159.3C195.29 159.3 205.37 169.02 205.37 183.33C205.37 197.73 195.29 207.45 181.79 207.45C174.23 207.45 167.75 204.21 163.79 198.09V224.46H157.4V159.66H163.52V169.02C167.39 162.72 173.96 159.3 181.79 159.3ZM181.34 201.78C191.33 201.78 198.98 194.4 198.98 183.33C198.98 172.35 191.33 164.88 181.34 164.88C171.26 164.88 163.7 172.35 163.7 183.33C163.7 194.4 171.26 201.78 181.34 201.78ZM221.636 149.31C219.026 149.31 216.956 147.24 216.956 144.72C216.956 142.29 219.026 140.22 221.636 140.22C224.246 140.22 226.316 142.2 226.316 144.63C226.316 147.24 224.336 149.31 221.636 149.31ZM218.396 207V159.66H224.786V207H218.396ZM279.376 140.22H285.766V207H279.646V197.64C275.776 204.03 269.206 207.45 261.376 207.45C247.876 207.45 237.796 197.64 237.796 183.33C237.796 169.02 247.876 159.3 261.376 159.3C268.936 159.3 275.416 162.54 279.376 168.66V140.22ZM261.916 201.78C271.906 201.78 279.466 194.4 279.466 183.33C279.466 172.26 271.906 164.88 261.916 164.88C251.836 164.88 244.276 172.26 244.276 183.33C244.276 194.4 251.836 201.78 261.916 201.78Z" fill="black"/>
</svg>
