<svg width="7" height="36" viewBox="0 0 7 36" fill="none" xmlns="http://www.w3.org/2000/svg">
<path d="M2.214 0.7V7H1.566V1.276H0.081V0.7H2.214ZM4.20595 7.045C4.07395 7.045 3.95995 6.997 3.86395 6.901C3.77395 6.805 3.72895 6.688 3.72895 6.55C3.72895 6.412 3.77395 6.298 3.86395 6.208C3.95995 6.112 4.07395 6.064 4.20595 6.064C4.33795 6.064 4.45195 6.112 4.54795 6.208C4.64395 6.298 4.69195 6.412 4.69195 6.55C4.69195 6.688 4.64395 6.805 4.54795 6.901C4.45195 6.997 4.33795 7.045 4.20595 7.045ZM4.77 20.424V21H0.351V20.541L2.97 17.976C3.3 17.652 3.522 17.373 3.636 17.139C3.756 16.899 3.816 16.659 3.816 16.419C3.816 16.047 3.687 15.759 3.429 15.555C3.177 15.345 2.814 15.24 2.34 15.24C1.602 15.24 1.029 15.474 0.621 15.942L0.162 15.546C0.408 15.258 0.72 15.036 1.098 14.88C1.482 14.724 1.914 14.646 2.394 14.646C3.036 14.646 3.543 14.799 3.915 15.105C4.293 15.405 4.482 15.819 4.482 16.347C4.482 16.671 4.41 16.983 4.266 17.283C4.122 17.583 3.849 17.928 3.447 18.318L1.305 20.424H4.77ZM6.15713 21.045C6.02513 21.045 5.91113 20.997 5.81513 20.901C5.72513 20.805 5.68013 20.688 5.68013 20.55C5.68013 20.412 5.72513 20.298 5.81513 20.208C5.91113 20.112 6.02513 20.064 6.15713 20.064C6.28913 20.064 6.40313 20.112 6.49913 20.208C6.59513 20.298 6.64313 20.412 6.64313 20.55C6.64313 20.688 6.59513 20.805 6.49913 20.901C6.40313 20.997 6.28913 21.045 6.15713 21.045ZM2.61 31.4C3.27 31.436 3.771 31.616 4.113 31.94C4.461 32.258 4.635 32.675 4.635 33.191C4.635 33.551 4.548 33.872 4.374 34.154C4.2 34.43 3.942 34.649 3.6 34.811C3.258 34.973 2.841 35.054 2.349 35.054C1.893 35.054 1.461 34.982 1.053 34.838C0.651 34.688 0.327 34.49 0.081 34.244L0.396 33.731C0.606 33.947 0.885 34.124 1.233 34.262C1.581 34.394 1.953 34.46 2.349 34.46C2.865 34.46 3.264 34.349 3.546 34.127C3.828 33.899 3.969 33.587 3.969 33.191C3.969 32.801 3.828 32.495 3.546 32.273C3.264 32.051 2.838 31.94 2.268 31.94H1.818V31.463L3.564 29.276H0.342V28.7H4.392V29.159L2.61 31.4ZM6.03408 35.045C5.90208 35.045 5.78808 34.997 5.69208 34.901C5.60208 34.805 5.55708 34.688 5.55708 34.55C5.55708 34.412 5.60208 34.298 5.69208 34.208C5.78808 34.112 5.90208 34.064 6.03408 34.064C6.16608 34.064 6.28008 34.112 6.37608 34.208C6.47208 34.298 6.52008 34.412 6.52008 34.55C6.52008 34.688 6.47208 34.805 6.37608 34.901C6.28008 34.997 6.16608 35.045 6.03408 35.045Z" fill="black"/>
</svg>
