<svg width="307" height="39" viewBox="0 0 307 39" fill="none" xmlns="http://www.w3.org/2000/svg">
<path d="M14.68 0.499997C19.5933 0.499997 23.4433 1.67333 26.23 4.02C29.0167 6.36667 30.41 9.59333 30.41 13.7C30.41 17.8067 29.0167 21.0333 26.23 23.38C23.4433 25.69 19.5933 26.845 14.68 26.845H4.34V39H0.27V0.499997H14.68ZM14.57 23.27C18.3833 23.27 21.2983 22.445 23.315 20.795C25.3317 19.1083 26.34 16.7433 26.34 13.7C26.34 10.5833 25.3317 8.2 23.315 6.55C21.2983 4.86333 18.3833 4.02 14.57 4.02H4.34V23.27H14.57ZM39.2104 0.499997H43.2804V35.48H64.8404V39H39.2104V0.499997ZM95.8505 28.715H74.4005L69.7805 39H65.5455L83.1455 0.499997H87.1605L104.761 39H100.471L95.8505 28.715ZM94.3655 25.415L85.1255 4.735L75.8855 25.415H94.3655ZM122.074 25.69V39H118.059V25.69L102.659 0.499997H107.004L120.204 22.115L133.404 0.499997H137.474L122.074 25.69ZM190.355 0.499997V39H186.34V21.235H162.25V39H158.18V0.499997H162.25V17.66H186.34V0.499997H190.355ZM266.003 39L257.203 26.625C256.213 26.735 255.187 26.79 254.123 26.79H243.783V39H239.713V0.499997H254.123C259.037 0.499997 262.887 1.67333 265.673 4.02C268.46 6.36667 269.853 9.59333 269.853 13.7C269.853 16.7067 269.083 19.255 267.543 21.345C266.04 23.3983 263.877 24.8833 261.053 25.8L270.458 39H266.003ZM254.013 23.325C257.827 23.325 260.742 22.4817 262.758 20.795C264.775 19.1083 265.783 16.7433 265.783 13.7C265.783 10.5833 264.775 8.2 262.758 6.55C260.742 4.86333 257.827 4.02 254.013 4.02H243.783V23.325H254.013ZM306.684 35.48V39H279.459V0.499997H305.859V4.02H283.529V17.715H303.439V21.18H283.529V35.48H306.684Z" fill="#F5F1E6"/>
<path d="M230.146 35.48V39H202.921V0.499997H229.321V4.02H206.991V17.715H226.901V21.18H206.991V35.48H230.146Z" fill="#D0FD0C"/>
</svg>
