<svg xmlns="http://www.w3.org/2000/svg" width="24.25" height="24.25" viewBox="0 0 24.25 24.25">
  <g id="Icon_ionic-ios-add-circle-outline" data-name="Icon ionic-ios-add-circle-outline" transform="translate(-3.375 -3.375)">
    <path id="Path_26" data-name="Path 26" d="M22,15.787H17.653V11.444a.933.933,0,1,0-1.865,0v4.343H11.444a.893.893,0,0,0-.933.933.9.9,0,0,0,.933.933h4.343V22a.9.9,0,0,0,.933.933A.928.928,0,0,0,17.653,22V17.653H22a.933.933,0,0,0,0-1.865Z" transform="translate(-1.22 -1.22)"/>
    <path id="Path_27" data-name="Path 27" d="M15.5,5.007A10.489,10.489,0,1,1,8.079,8.079,10.423,10.423,0,0,1,15.5,5.007m0-1.632A12.125,12.125,0,1,0,27.625,15.5,12.123,12.123,0,0,0,15.5,3.375Z"/>
  </g>
</svg>
