<svg width="71" height="69" viewBox="0 0 71 69" fill="none" xmlns="http://www.w3.org/2000/svg">
<path d="M23 0.5H48C60.4264 0.5 70.5 10.5736 70.5 23V46C70.5 58.4264 60.4264 68.5 48 68.5H23C10.5736 68.5 0.5 58.4264 0.5 46V23C0.5 10.5736 10.5736 0.5 23 0.5Z" fill="#E5FF00"/>
<path d="M45.8333 32.9167C45.8333 38.9458 40.9458 43.8333 34.9167 43.8333C28.8876 43.8333 24 38.9458 24 32.9167C24 26.8876 28.8876 22 34.9167 22C40.9458 22 45.8333 26.8876 45.8333 32.9167Z" stroke="#242424" stroke-linecap="round" stroke-linejoin="round"/>
<path d="M48.5629 46.5625L42.627 40.6266" stroke="#242424" stroke-linecap="round" stroke-linejoin="round"/>
</svg>