<svg width="260" height="130" viewBox="0 0 260 130" fill="none" xmlns="http://www.w3.org/2000/svg">
<path d="M13.472 4.192L11.616 5.632C10.368 4 9.28 2.816 7.392 2.816C5.408 2.816 4.288 4.224 4.288 5.728C4.288 6.976 5.024 8.288 6.336 9.28C10.656 12.48 13.824 14.688 13.824 18.4C13.824 21.632 11.104 24.576 7.36 24.576C4.192 24.576 2.112 22.816 0.416 19.712L2.368 18.528C3.744 21.056 5.408 22.336 7.168 22.336C9.568 22.336 11.424 20.576 11.424 18.432C11.424 15.904 9.056 14.464 3.84 10.24C2.752 9.376 1.888 7.552 1.888 5.824C1.888 2.656 4.352 0.447998 7.456 0.447998C10.272 0.447998 11.968 2.144 13.472 4.192ZM35.1695 15.68H19.8735C19.9695 19.584 22.6255 22.432 26.2735 22.432C29.8255 22.432 31.5215 20.416 32.7695 18.368L34.5935 19.328C32.8655 22.72 30.2095 24.416 26.4975 24.416C20.8655 24.416 17.6335 20.096 17.6335 15.552C17.6335 10.912 21.0575 6.56 26.3695 6.56C31.2015 6.56 35.1055 10.048 35.1695 15.68ZM20.0975 13.76H32.7695C31.8735 10.24 29.3455 8.672 26.4015 8.672C23.3615 8.672 21.0895 10.304 20.0975 13.76ZM38.99 24V0.447998H41.166V24H38.99ZM62.5163 15.68H47.2203C47.3163 19.584 49.9723 22.432 53.6203 22.432C57.1723 22.432 58.8683 20.416 60.1163 18.368L61.9403 19.328C60.2123 22.72 57.5563 24.416 53.8443 24.416C48.2123 24.416 44.9803 20.096 44.9803 15.552C44.9803 10.912 48.4043 6.56 53.7163 6.56C58.5483 6.56 62.4523 10.048 62.5163 15.68ZM47.4443 13.76H60.1163C59.2203 10.24 56.6923 8.672 53.7483 8.672C50.7083 8.672 48.4363 10.304 47.4443 13.76ZM81.4087 19.456L83.1687 20.576C81.5047 23.104 78.6247 24.416 75.2007 24.416C69.6007 24.416 65.8567 20.384 65.8567 15.648C65.8567 10.656 69.7607 6.56 75.3607 6.56C78.6247 6.56 81.6007 7.904 83.1687 10.528L81.4087 11.616C79.9047 9.632 77.8247 8.672 75.2647 8.672C70.9447 8.672 68.0967 11.84 68.0967 15.488C68.0967 19.2 70.9127 22.432 75.2967 22.432C77.7607 22.432 79.8087 21.44 81.4087 19.456ZM89.3915 7.008V0.671999H91.5675V7.008H95.0555V8.928H91.5675V24H89.3915V8.928H86.3835V7.008H89.3915ZM119.638 15.296V7.008H121.942V15.808C121.942 21.536 119.35 24.416 114.486 24.416C109.622 24.416 106.998 21.536 106.998 15.808V7.008H109.302V15.296C109.302 17.088 109.302 18.56 109.782 19.584C110.582 21.312 112.342 22.304 114.486 22.304C116.054 22.304 117.43 21.728 118.326 20.8C119.67 19.36 119.638 17.728 119.638 15.296ZM129.027 7.008V10.112C130.723 7.744 133.059 6.56 135.779 6.56C140.739 6.56 144.579 10.624 144.579 15.456C144.579 20.288 140.835 24.416 135.843 24.416C133.187 24.416 130.883 23.328 129.027 21.088V30.208H126.851V7.008H129.027ZM135.619 8.672C131.811 8.672 128.867 11.648 128.867 15.584C128.867 19.808 132.131 22.432 135.619 22.432C139.395 22.432 142.339 19.232 142.339 15.52C142.339 11.872 139.523 8.672 135.619 8.672ZM159.586 7.008V0.671999H161.762V7.008H165.25V8.928H161.762V24H159.586V8.928H156.578V7.008H159.586ZM176.606 6.56C181.694 6.56 185.47 10.688 185.47 15.552C185.47 20.384 181.726 24.448 176.606 24.448C171.486 24.448 167.742 20.384 167.742 15.552C167.742 10.688 171.518 6.56 176.606 6.56ZM176.606 8.672C172.958 8.672 169.982 11.808 169.982 15.584C169.982 19.296 172.766 22.336 176.606 22.336C180.414 22.336 183.23 19.296 183.23 15.584C183.23 11.808 180.222 8.672 176.606 8.672ZM4.384 40.008V33.672H6.56V40.008H10.048V41.928H6.56V57H4.384V41.928H1.376V40.008H4.384ZM18.2678 57L11.0358 40.008H13.3078L18.4918 52.328L23.9318 40.008H24.3158L29.7878 52.328L35.0678 40.008H37.3398L29.9798 57H29.5638L24.1558 44.84L18.7158 57H18.2678ZM48.0615 39.56C53.1495 39.56 56.9255 43.688 56.9255 48.552C56.9255 53.384 53.1815 57.448 48.0615 57.448C42.9415 57.448 39.1975 53.384 39.1975 48.552C39.1975 43.688 42.9735 39.56 48.0615 39.56ZM48.0615 41.672C44.4135 41.672 41.4375 44.808 41.4375 48.584C41.4375 52.296 44.2215 55.336 48.0615 55.336C51.8695 55.336 54.6855 52.296 54.6855 48.584C54.6855 44.808 51.6775 41.672 48.0615 41.672ZM74.8972 57L67.6652 40.008H69.9372L75.1212 52.328L80.5612 40.008H80.9452L86.4172 52.328L91.6972 40.008H93.9692L86.6092 57H86.1932L80.7852 44.84L75.3452 57H74.8972ZM96.339 57V40.008H98.515V57H96.339ZM97.395 33C98.387 33 99.219 33.8 99.219 34.792C99.219 35.784 98.387 36.616 97.395 36.616C96.403 36.616 95.603 35.784 95.603 34.792C95.603 33.768 96.435 33 97.395 33ZM117.913 57V54.088C116.057 56.328 113.721 57.416 111.065 57.416C106.105 57.416 102.361 53.288 102.361 48.456C102.361 43.624 106.201 39.56 111.129 39.56C113.881 39.56 116.217 40.744 117.913 43.112V33.448H120.089V57H117.913ZM111.321 41.672C107.417 41.672 104.601 44.872 104.601 48.52C104.601 52.2 107.481 55.432 111.289 55.432C114.777 55.432 118.041 52.808 118.041 48.584C118.041 44.648 115.129 41.672 111.321 41.672ZM141.931 40.008V53.544C141.931 56.328 141.771 58.632 140.395 60.52C138.955 62.472 136.427 63.624 133.195 63.624C128.299 63.624 125.931 61.64 124.427 58.344H126.795C128.075 60.584 130.059 61.64 133.067 61.64C135.883 61.64 137.963 60.616 138.987 58.76C139.627 57.576 139.723 56.36 139.723 55.048V53.768C138.027 55.912 135.563 57 132.907 57C128.203 57 124.203 53.416 124.203 48.392C124.203 43.336 128.395 39.56 132.907 39.56C135.915 39.56 137.931 40.84 139.723 42.952V40.008H141.931ZM133.259 41.672C129.451 41.672 126.443 44.584 126.443 48.52C126.443 51.912 128.843 54.888 133.323 54.888C137.035 54.888 139.819 52.328 139.819 48.36C139.819 44.264 136.779 41.672 133.259 41.672ZM163.399 48.68H148.103C148.199 52.584 150.855 55.432 154.503 55.432C158.055 55.432 159.751 53.416 160.999 51.368L162.823 52.328C161.095 55.72 158.439 57.416 154.727 57.416C149.095 57.416 145.863 53.096 145.863 48.552C145.863 43.912 149.287 39.56 154.599 39.56C159.431 39.56 163.335 43.048 163.399 48.68ZM148.327 46.76H160.999C160.103 43.24 157.575 41.672 154.631 41.672C151.591 41.672 149.319 43.304 148.327 46.76ZM169.491 40.008V33.672H171.667V40.008H175.155V41.928H171.667V57H169.491V41.928H166.483V40.008H169.491ZM176.847 55.016L178.223 53.448C179.311 54.664 180.495 55.336 181.775 55.336C183.439 55.336 184.911 54.12 184.911 52.52C184.911 51.528 184.335 50.6 183.503 50.152C179.599 47.976 177.615 47.048 177.615 44.072C177.615 41.384 179.695 39.56 182.287 39.56C184.143 39.56 185.551 40.456 186.991 41.864L185.583 43.304C184.559 42.312 183.535 41.672 182.159 41.672C180.751 41.672 179.599 42.664 179.599 43.944C179.599 44.808 180.143 45.768 180.911 46.216C184.815 48.488 186.991 49.352 186.991 52.424C186.991 55.08 184.943 57.448 181.871 57.448C179.983 57.448 178.063 56.584 176.847 55.016ZM201.808 40.008V33.672H203.984V40.008H207.472V41.928H203.984V57H201.808V41.928H198.8V40.008H201.808ZM210.764 57V33.448H212.94V43.048C214.7 40.744 216.78 39.56 219.308 39.56C222.988 39.56 225.58 42.152 225.58 47.24V57H223.404V47.752C223.404 43.752 222.188 41.544 218.892 41.544C217.068 41.544 215.564 42.344 214.412 43.848C213.164 45.48 212.94 47.144 212.94 49.864V57H210.764ZM245.143 43.112V40.008H247.287V57H245.143V54.088C243.287 56.328 240.951 57.416 238.295 57.416C233.335 57.416 229.591 53.288 229.591 48.456C229.591 43.624 233.431 39.56 238.359 39.56C241.111 39.56 243.447 40.744 245.143 43.112ZM238.551 41.672C234.647 41.672 231.831 44.872 231.831 48.52C231.831 52.2 234.711 55.432 238.519 55.432C242.007 55.432 245.303 52.808 245.303 48.584C245.303 44.648 242.359 41.672 238.551 41.672ZM254.219 40.008V33.672H256.395V40.008H259.883V41.928H256.395V57H254.219V41.928H251.211V40.008H254.219Z" fill="#F5F1E6"/>
<path d="M2.432 90V66.448H4.608V76.048C6.368 73.744 8.448 72.56 10.976 72.56C14.656 72.56 17.248 75.152 17.248 80.24V90H15.072V80.752C15.072 76.752 13.856 74.544 10.56 74.544C8.736 74.544 7.232 75.344 6.08 76.848C4.832 78.48 4.608 80.144 4.608 82.864V90H2.432ZM38.7633 81.68H23.4672C23.5632 85.584 26.2192 88.432 29.8672 88.432C33.4192 88.432 35.1152 86.416 36.3633 84.368L38.1873 85.328C36.4592 88.72 33.8033 90.416 30.0912 90.416C24.4592 90.416 21.2272 86.096 21.2272 81.552C21.2272 76.912 24.6512 72.56 29.9632 72.56C34.7952 72.56 38.6992 76.048 38.7633 81.68ZM23.6912 79.76H36.3633C35.4672 76.24 32.9392 74.672 29.9952 74.672C26.9552 74.672 24.6832 76.304 23.6912 79.76ZM42.5837 90V66.448H44.7597V90H42.5837ZM51.582 73.008V76.112C53.278 73.744 55.614 72.56 58.334 72.56C63.294 72.56 67.134 76.624 67.134 81.456C67.134 86.288 63.39 90.416 58.398 90.416C55.742 90.416 53.438 89.328 51.582 87.088V96.208H49.406V73.008H51.582ZM58.174 74.672C54.366 74.672 51.422 77.648 51.422 81.584C51.422 85.808 54.686 88.432 58.174 88.432C61.95 88.432 64.894 85.232 64.894 81.52C64.894 77.872 62.078 74.672 58.174 74.672ZM69.6505 88.016L71.0265 86.448C72.1145 87.664 73.2985 88.336 74.5785 88.336C76.2425 88.336 77.7145 87.12 77.7145 85.52C77.7145 84.528 77.1385 83.6 76.3065 83.152C72.4025 80.976 70.4185 80.048 70.4185 77.072C70.4185 74.384 72.4985 72.56 75.0905 72.56C76.9465 72.56 78.3545 73.456 79.7945 74.864L78.3865 76.304C77.3625 75.312 76.3385 74.672 74.9625 74.672C73.5545 74.672 72.4025 75.664 72.4025 76.944C72.4025 77.808 72.9465 78.768 73.7145 79.216C77.6185 81.488 79.7945 82.352 79.7945 85.424C79.7945 88.08 77.7465 90.448 74.6745 90.448C72.7865 90.448 70.8665 89.584 69.6505 88.016ZM97.8118 88.72L90.8358 73.008H93.1398L98.9958 86.096L104.66 73.008H106.996L96.8518 96.208H94.5478L97.8118 88.72ZM117.944 72.56C123.032 72.56 126.808 76.688 126.808 81.552C126.808 86.384 123.064 90.448 117.944 90.448C112.824 90.448 109.08 86.384 109.08 81.552C109.08 76.688 112.856 72.56 117.944 72.56ZM117.944 74.672C114.296 74.672 111.32 77.808 111.32 81.584C111.32 85.296 114.104 88.336 117.944 88.336C121.752 88.336 124.568 85.296 124.568 81.584C124.568 77.808 121.56 74.672 117.944 74.672ZM143.265 81.296V73.008H145.569V81.808C145.569 87.536 142.977 90.416 138.113 90.416C133.249 90.416 130.625 87.536 130.625 81.808V73.008H132.929V81.296C132.929 83.088 132.929 84.56 133.409 85.584C134.209 87.312 135.969 88.304 138.113 88.304C139.681 88.304 141.057 87.728 141.953 86.8C143.297 85.36 143.265 83.728 143.265 81.296Z" fill="#E5FF00"/>
<path d="M159.096 90V73.008H161.272V90H159.096ZM160.152 66C161.144 66 161.976 66.8 161.976 67.792C161.976 68.784 161.144 69.616 160.152 69.616C159.16 69.616 158.36 68.784 158.36 67.792C158.36 66.768 159.192 66 160.152 66ZM168.031 73.008V76.048C169.791 73.744 171.903 72.56 174.399 72.56C178.111 72.56 180.703 75.12 180.703 80.464V90H178.527V80.752C178.527 76.752 177.279 74.544 173.983 74.544C172.159 74.544 170.655 75.344 169.503 76.848C168.223 78.512 168.031 80.176 168.031 82.864V90H165.855V73.008H168.031ZM199.541 88.72L192.565 73.008H194.869L200.725 86.096L206.389 73.008H208.725L198.581 96.208H196.277L199.541 88.72ZM219.673 72.56C224.761 72.56 228.537 76.688 228.537 81.552C228.537 86.384 224.793 90.448 219.673 90.448C214.553 90.448 210.809 86.384 210.809 81.552C210.809 76.688 214.585 72.56 219.673 72.56ZM219.673 74.672C216.025 74.672 213.049 77.808 213.049 81.584C213.049 85.296 215.833 88.336 219.673 88.336C223.481 88.336 226.297 85.296 226.297 81.584C226.297 77.808 223.289 74.672 219.673 74.672ZM244.994 81.296V73.008H247.298V81.808C247.298 87.536 244.706 90.416 239.842 90.416C234.978 90.416 232.354 87.536 232.354 81.808V73.008H234.658V81.296C234.658 83.088 234.658 84.56 235.138 85.584C235.938 87.312 237.698 88.304 239.842 88.304C241.41 88.304 242.786 87.728 243.682 86.8C245.026 85.36 244.994 83.728 244.994 81.296ZM253.615 73.008V75.472C254.895 73.616 256.271 72.56 257.999 72.56C258.991 72.56 259.503 72.88 259.951 73.136L258.799 74.992C258.543 74.864 258.127 74.672 257.647 74.672C256.047 74.672 254.607 76.048 253.967 78.384C253.679 79.472 253.615 81.232 253.615 83.536V90H251.311V73.008H253.615ZM2.432 123V99.448H4.608V109.048C6.368 106.744 8.448 105.56 10.976 105.56C14.656 105.56 17.248 108.152 17.248 113.24V123H15.072V113.752C15.072 109.752 13.856 107.544 10.56 107.544C8.736 107.544 7.232 108.344 6.08 109.848C4.832 111.48 4.608 113.144 4.608 115.864V123H2.432ZM30.0912 105.56C35.1792 105.56 38.9552 109.688 38.9552 114.552C38.9552 119.384 35.2113 123.448 30.0912 123.448C24.9712 123.448 21.2272 119.384 21.2272 114.552C21.2272 109.688 25.0032 105.56 30.0912 105.56ZM30.0912 107.672C26.4432 107.672 23.4672 110.808 23.4672 114.584C23.4672 118.296 26.2512 121.336 30.0912 121.336C33.8993 121.336 36.7153 118.296 36.7153 114.584C36.7153 110.808 33.7072 107.672 30.0912 107.672ZM56.788 115.576V123H54.612V114.296C54.612 112.984 54.484 111.896 54.452 111.128C54.356 109.272 52.852 107.672 50.612 107.672C49.108 107.672 47.604 108.408 46.644 109.656C45.428 111.224 45.204 113.24 45.204 115.8V123H43.028V106.008H45.204V108.92C46.708 106.744 48.596 105.56 51.028 105.56C53.62 105.56 55.476 106.904 56.404 109.656C57.908 106.936 60.148 105.56 62.644 105.56C66.164 105.56 68.436 108.088 68.436 112.92V123H66.26V113.72C66.26 112.472 66.1 111.48 66.068 110.84C65.972 109.336 64.532 107.672 62.228 107.672C60.116 107.672 58.26 108.952 57.396 111.128C56.852 112.504 56.788 114.008 56.788 115.576ZM89.8913 114.68H74.5953C74.6913 118.584 77.3473 121.432 80.9953 121.432C84.5473 121.432 86.2433 119.416 87.4913 117.368L89.3153 118.328C87.5873 121.72 84.9313 123.416 81.2193 123.416C75.5873 123.416 72.3553 119.096 72.3553 114.552C72.3553 109.912 75.7793 105.56 81.0913 105.56C85.9233 105.56 89.8273 109.048 89.8913 114.68ZM74.8193 112.76H87.4913C86.5953 109.24 84.0673 107.672 81.1233 107.672C78.0833 107.672 75.8113 109.304 74.8193 112.76ZM105.179 106.008V109.112C106.875 106.744 109.211 105.56 111.931 105.56C116.891 105.56 120.731 109.624 120.731 114.456C120.731 119.288 116.987 123.416 111.995 123.416C109.339 123.416 107.035 122.328 105.179 120.088V129.208H103.003V106.008H105.179ZM111.771 107.672C107.963 107.672 105.019 110.648 105.019 114.584C105.019 118.808 108.283 121.432 111.771 121.432C115.547 121.432 118.491 118.232 118.491 114.52C118.491 110.872 115.675 107.672 111.771 107.672ZM139.631 109.112V106.008H141.775V123H139.631V120.088C137.775 122.328 135.439 123.416 132.783 123.416C127.823 123.416 124.079 119.288 124.079 114.456C124.079 109.624 127.919 105.56 132.847 105.56C135.599 105.56 137.935 106.744 139.631 109.112ZM133.039 107.672C129.135 107.672 126.319 110.872 126.319 114.52C126.319 118.2 129.199 121.432 133.007 121.432C136.495 121.432 139.791 118.808 139.791 114.584C139.791 110.648 136.847 107.672 133.039 107.672ZM163.619 106.008V119.544C163.619 122.328 163.459 124.632 162.083 126.52C160.643 128.472 158.115 129.624 154.883 129.624C149.987 129.624 147.619 127.64 146.115 124.344H148.483C149.763 126.584 151.747 127.64 154.755 127.64C157.571 127.64 159.651 126.616 160.675 124.76C161.315 123.576 161.411 122.36 161.411 121.048V119.768C159.715 121.912 157.251 123 154.595 123C149.891 123 145.891 119.416 145.891 114.392C145.891 109.336 150.083 105.56 154.595 105.56C157.603 105.56 159.619 106.84 161.411 108.952V106.008H163.619ZM154.947 107.672C151.139 107.672 148.131 110.584 148.131 114.52C148.131 117.912 150.531 120.888 155.011 120.888C158.723 120.888 161.507 118.328 161.507 114.36C161.507 110.264 158.467 107.672 154.947 107.672ZM185.086 114.68H169.79C169.886 118.584 172.542 121.432 176.19 121.432C179.742 121.432 181.438 119.416 182.686 117.368L184.51 118.328C182.782 121.72 180.126 123.416 176.414 123.416C170.782 123.416 167.55 119.096 167.55 114.552C167.55 109.912 170.974 105.56 176.286 105.56C181.118 105.56 185.022 109.048 185.086 114.68ZM170.014 112.76H182.686C181.79 109.24 179.262 107.672 176.318 107.672C173.278 107.672 171.006 109.304 170.014 112.76Z" fill="#F2F1ED"/>
</svg>
