<svg width="105" height="41" viewBox="0 0 105 41" fill="none" xmlns="http://www.w3.org/2000/svg">
<rect x="0.5" y="0.5" width="103.79" height="39.75" rx="19.5" fill="#rgb(36, 36, 36)" stroke="#rgb(208, 253, 12)"/>
<path d="M33.8686 27.114C31.8736 27.114 29.9166 26.411 28.9286 25.385L29.4796 24.302C30.4296 25.233 32.1206 25.917 33.8686 25.917C36.3576 25.917 37.4406 24.872 37.4406 23.561C37.4406 19.913 29.2516 22.155 29.2516 17.234C29.2516 15.277 30.7716 13.586 34.1536 13.586C35.6546 13.586 37.2126 14.023 38.2766 14.764L37.8016 15.885C36.6616 15.144 35.3316 14.783 34.1536 14.783C31.7216 14.783 30.6386 15.866 30.6386 17.196C30.6386 20.844 38.8276 18.64 38.8276 23.485C38.8276 25.442 37.2696 27.114 33.8686 27.114ZM50.3271 22.003C50.3271 22.117 50.3081 22.269 50.3081 22.421H41.9481C42.1001 24.511 43.6961 25.898 45.8811 25.898C47.0971 25.898 48.1801 25.461 48.9401 24.587L49.7001 25.461C48.8071 26.525 47.4201 27.095 45.8431 27.095C42.7271 27.095 40.5991 24.967 40.5991 22.003C40.5991 19.039 42.6701 16.93 45.4821 16.93C48.2941 16.93 50.3271 19.001 50.3271 22.003ZM45.4821 18.089C43.5441 18.089 42.1191 19.457 41.9481 21.414H49.0351C48.8641 19.457 47.4391 18.089 45.4821 18.089ZM58.1649 16.93C60.5969 16.93 62.2689 18.336 62.2689 21.205V27H60.9199V21.338C60.9199 19.229 59.8179 18.146 57.9179 18.146C55.7709 18.146 54.4219 19.476 54.4219 21.756V27H53.0729V17.006H54.3649V18.849C55.0869 17.633 56.4359 16.93 58.1649 16.93ZM73.7394 12.902H75.0884V27H73.7964V25.024C72.9794 26.373 71.5924 27.095 69.9394 27.095C67.0894 27.095 64.9614 25.024 64.9614 22.003C64.9614 18.982 67.0894 16.93 69.9394 16.93C71.5354 16.93 72.9034 17.614 73.7394 18.906V12.902ZM70.0534 25.898C72.1624 25.898 73.7584 24.34 73.7584 22.003C73.7584 19.666 72.1624 18.108 70.0534 18.108C67.9254 18.108 66.3294 19.666 66.3294 22.003C66.3294 24.34 67.9254 25.898 70.0534 25.898Z" fill="rgb(245, 241, 230)"/>
</svg>
