<svg width="111" height="47" viewBox="0 0 111 47" fill="none" xmlns="http://www.w3.org/2000/svg">
<g filter="url(#filter0_d_444_2)">
<path d="M23 0.5H87.7944C98.564 0.5 107.294 9.23045 107.294 20V20.7539C107.294 31.5235 98.564 40.2539 87.7944 40.2539H23C12.2304 40.2539 3.5 31.5235 3.5 20.7539V20C3.5 9.23045 12.2304 0.5 23 0.5Z" stroke="#D0FD0C" shape-rendering="crispEdges"/>
</g>
<path d="M40.1531 26.048C38.5211 26.048 36.9691 25.392 36.2171 24.464L36.4411 24.256C37.1451 25.088 38.5691 25.744 40.1371 25.744C42.5691 25.744 43.6571 24.624 43.6571 23.248C43.6571 19.488 36.5371 21.696 36.5371 17.568C36.5371 16.096 37.6571 14.752 40.2811 14.752C41.4811 14.752 42.7131 15.152 43.5291 15.776L43.3531 16.032C42.4571 15.376 41.3051 15.056 40.2971 15.056C37.9451 15.056 36.8571 16.192 36.8571 17.584C36.8571 21.36 43.9771 19.2 43.9771 23.248C43.9771 24.736 42.8091 26.048 40.1531 26.048ZM53.4264 21.776V21.856H46.0664C46.0664 24.144 47.6984 25.744 49.8904 25.744C50.9944 25.744 52.0504 25.328 52.7064 24.464L52.9304 24.688C52.1944 25.584 51.0744 26.048 49.8904 26.048C47.5064 26.048 45.7624 24.304 45.7624 21.856C45.7624 19.408 47.3944 17.68 49.5864 17.68C51.7624 17.68 53.4264 19.376 53.4264 21.776ZM49.5864 17.984C47.6344 17.984 46.1784 19.504 46.0664 21.552H53.1224C53.0104 19.504 51.5384 17.984 49.5864 17.984ZM59.9211 17.68C61.9531 17.68 63.2331 18.88 63.2331 21.12V26H62.9131V21.12C62.9131 19.072 61.8091 17.984 59.9371 17.984C57.7611 17.984 56.4491 19.408 56.4491 21.504V26H56.1291V17.728H56.4491V19.936C56.9451 18.56 58.1611 17.68 59.9211 17.68ZM73.5526 14.128H73.8726V26H73.5526V23.472C72.9926 25.04 71.5846 26.048 69.8566 26.048C67.5846 26.048 65.8406 24.304 65.8406 21.856C65.8406 19.408 67.5846 17.68 69.8566 17.68C71.5846 17.68 72.9926 18.688 73.5526 20.24V14.128ZM69.8566 25.744C71.9686 25.744 73.5526 24.144 73.5526 21.856C73.5526 19.568 71.9686 17.984 69.8566 17.984C67.7446 17.984 66.1606 19.568 66.1606 21.856C66.1606 24.144 67.7446 25.744 69.8566 25.744Z" fill="#F5F1E6"/>
<path d="M36.2171 24.464L35.8768 24.0976L35.5343 24.4156L35.8286 24.7788L36.2171 24.464ZM36.4411 24.256L36.8228 23.933L36.4845 23.5333L36.1008 23.8896L36.4411 24.256ZM43.5291 15.776L43.9411 16.0593L44.2104 15.6676L43.8328 15.3788L43.5291 15.776ZM43.3531 16.032L43.0577 16.4354L43.4733 16.7397L43.7651 16.3153L43.3531 16.032ZM40.1531 25.548C38.627 25.548 37.2375 24.9291 36.6055 24.1492L35.8286 24.7788C36.7006 25.8549 38.4152 26.548 40.1531 26.548V25.548ZM36.5573 24.8304L36.7813 24.6224L36.1008 23.8896L35.8768 24.0976L36.5573 24.8304ZM36.0594 24.579C36.8755 25.5435 38.4508 26.244 40.1371 26.244V25.244C38.6873 25.244 37.4146 24.6325 36.8228 23.933L36.0594 24.579ZM40.1371 26.244C41.423 26.244 42.4255 25.9485 43.1177 25.4053C43.8227 24.8522 44.1571 24.0789 44.1571 23.248H43.1571C43.1571 23.7931 42.9475 24.2678 42.5004 24.6187C42.0406 24.9795 41.2831 25.244 40.1371 25.244V26.244ZM44.1571 23.248C44.1571 22.6948 44.0248 22.223 43.7736 21.8263C43.5247 21.4331 43.1782 21.1438 42.795 20.922C42.051 20.4915 41.0779 20.2705 40.2155 20.0602C39.3084 19.8391 38.5052 19.6266 37.9213 19.2486C37.6397 19.0662 37.4245 18.8539 37.2775 18.5957C37.1314 18.3389 37.0371 18.0094 37.0371 17.568H36.0371C36.0371 18.1586 36.1653 18.6631 36.4085 19.0904C36.6509 19.5163 36.992 19.8381 37.3778 20.0879C38.1289 20.5744 39.1058 20.8189 39.9786 21.0318C40.8962 21.2555 41.7032 21.4455 42.2941 21.7875C42.5784 21.952 42.7882 22.1392 42.9287 22.3612C43.0669 22.5795 43.1571 22.8612 43.1571 23.248H44.1571ZM37.0371 17.568C37.0371 16.9644 37.2632 16.4044 37.75 15.988C38.2427 15.5666 39.0509 15.252 40.2811 15.252V14.252C38.8872 14.252 37.8234 14.6094 37.1001 15.228C36.3709 15.8516 36.0371 16.6996 36.0371 17.568H37.0371ZM40.2811 15.252C41.3848 15.252 42.5067 15.6236 43.2253 16.1732L43.8328 15.3788C42.9194 14.6804 41.5773 14.252 40.2811 14.252V15.252ZM43.117 15.4927L42.941 15.7487L43.7651 16.3153L43.9411 16.0593L43.117 15.4927ZM43.6484 15.6286C42.6572 14.9029 41.3989 14.556 40.2971 14.556V15.556C41.2112 15.556 42.2569 15.8491 43.0577 16.4354L43.6484 15.6286ZM40.2971 14.556C39.0461 14.556 38.062 14.8579 37.3805 15.4093C36.6888 15.9691 36.3571 16.7482 36.3571 17.584H37.3571C37.3571 17.0278 37.5693 16.5429 38.0096 16.1867C38.4601 15.8221 39.1961 15.556 40.2971 15.556V14.556ZM36.3571 17.584C36.3571 18.1388 36.4892 18.6124 36.7395 19.0113C36.9876 19.4066 37.3333 19.6991 37.7165 19.924C38.4609 20.3608 39.4336 20.5869 40.2976 20.7995C41.2059 21.023 42.0104 21.2345 42.5957 21.6078C42.8781 21.7879 43.0926 21.9963 43.2386 22.2481C43.3835 22.4981 43.4771 22.8184 43.4771 23.248H44.4771C44.4771 22.6656 44.3481 22.1679 44.1037 21.7465C43.8603 21.3268 43.5186 21.0103 43.1334 20.7647C42.3838 20.2865 41.4082 20.043 40.5365 19.8285C39.6205 19.6031 38.8132 19.4082 38.2226 19.0615C37.9383 18.8947 37.7277 18.7047 37.5865 18.4797C37.4475 18.2581 37.3571 17.9732 37.3571 17.584H36.3571ZM43.4771 23.248C43.4771 23.8533 43.2438 24.4077 42.7432 24.8201C42.2343 25.2392 41.4033 25.548 40.1531 25.548V26.548C41.5588 26.548 42.6398 26.2008 43.379 25.5919C44.1263 24.9763 44.4771 24.1307 44.4771 23.248H43.4771ZM53.4264 21.856V22.356H53.9264V21.856H53.4264ZM46.0664 21.856V21.356H45.5664V21.856H46.0664ZM52.7064 24.464L53.06 24.1104L52.6548 23.7052L52.3082 24.1616L52.7064 24.464ZM52.9304 24.688L53.3168 25.0054L53.6046 24.655L53.284 24.3344L52.9304 24.688ZM46.0664 21.552L45.5672 21.5247L45.5383 22.052H46.0664V21.552ZM53.1224 21.552V22.052H53.6505L53.6217 21.5247L53.1224 21.552ZM52.9264 21.776V21.856H53.9264V21.776H52.9264ZM53.4264 21.356H46.0664V22.356H53.4264V21.356ZM45.5664 21.856C45.5664 24.4174 47.4195 26.244 49.8904 26.244V25.244C47.9773 25.244 46.5664 23.8706 46.5664 21.856H45.5664ZM49.8904 26.244C51.1135 26.244 52.3336 25.7819 53.1047 24.7664L52.3082 24.1616C51.7672 24.8741 50.8754 25.244 49.8904 25.244V26.244ZM52.3529 24.8176L52.5769 25.0416L53.284 24.3344L53.06 24.1104L52.3529 24.8176ZM52.5441 24.3706C51.9159 25.1353 50.9463 25.548 49.8904 25.548V26.548C51.2025 26.548 52.473 26.0327 53.3168 25.0054L52.5441 24.3706ZM49.8904 25.548C47.7877 25.548 46.2624 24.033 46.2624 21.856H45.2624C45.2624 24.575 47.2252 26.548 49.8904 26.548V25.548ZM46.2624 21.856C46.2624 19.6463 47.707 18.18 49.5864 18.18V17.18C47.0819 17.18 45.2624 19.1697 45.2624 21.856H46.2624ZM49.5864 18.18C51.4626 18.18 52.9264 19.6278 52.9264 21.776H53.9264C53.9264 19.1242 52.0623 17.18 49.5864 17.18V18.18ZM49.5864 17.484C47.3343 17.484 45.6917 19.2475 45.5672 21.5247L46.5657 21.5793C46.6652 19.7605 47.9345 18.484 49.5864 18.484V17.484ZM46.0664 22.052H53.1224V21.052H46.0664V22.052ZM53.6217 21.5247C53.497 19.2445 51.8357 17.484 49.5864 17.484V18.484C51.2412 18.484 52.5239 19.7635 52.6232 21.5793L53.6217 21.5247ZM63.2331 26V26.5H63.7331V26H63.2331ZM62.9131 26H62.4131V26.5H62.9131V26ZM56.4491 26V26.5H56.9491V26H56.4491ZM56.1291 26H55.6291V26.5H56.1291V26ZM56.1291 17.728V17.228H55.6291V17.728H56.1291ZM56.4491 17.728H56.9491V17.228H56.4491V17.728ZM56.4491 19.936H55.9491L56.9194 20.1056L56.4491 19.936ZM59.9211 18.18C60.8391 18.18 61.5259 18.4492 61.9837 18.9117C62.4417 19.3745 62.7331 20.0943 62.7331 21.12H63.7331C63.7331 19.9057 63.3845 18.9055 62.6944 18.2083C62.0042 17.5108 61.035 17.18 59.9211 17.18V18.18ZM62.7331 21.12V26H63.7331V21.12H62.7331ZM63.2331 25.5H62.9131V26.5H63.2331V25.5ZM63.4131 26V21.12H62.4131V26H63.4131ZM63.4131 21.12C63.4131 20.0094 63.1127 19.0848 62.4867 18.4366C61.8583 17.7861 60.9695 17.484 59.9371 17.484V18.484C60.7766 18.484 61.3758 18.7259 61.7674 19.1314C62.1614 19.5392 62.4131 20.1826 62.4131 21.12H63.4131ZM59.9371 17.484C58.7367 17.484 57.7272 17.8795 57.0183 18.6097C56.3115 19.3378 55.9491 20.3514 55.9491 21.504H56.9491C56.9491 20.5606 57.2427 19.8142 57.7358 19.3063C58.2269 18.8005 58.9615 18.484 59.9371 18.484V17.484ZM55.9491 21.504V26H56.9491V21.504H55.9491ZM56.4491 25.5H56.1291V26.5H56.4491V25.5ZM56.6291 26V17.728H55.6291V26H56.6291ZM56.1291 18.228H56.4491V17.228H56.1291V18.228ZM55.9491 17.728V19.936H56.9491V17.728H55.9491ZM56.9194 20.1056C57.3378 18.9451 58.3529 18.18 59.9211 18.18V17.18C57.9692 17.18 56.5524 18.1749 55.9787 19.7664L56.9194 20.1056ZM73.5526 14.128V13.628H73.0526V14.128H73.5526ZM73.8726 14.128H74.3726V13.628H73.8726V14.128ZM73.8726 26V26.5H74.3726V26H73.8726ZM73.5526 26H73.0526V26.5H73.5526V26ZM73.5526 23.472H74.0526L73.0817 23.3038L73.5526 23.472ZM73.5526 20.24L73.0822 20.4097L74.0526 20.24H73.5526ZM73.5526 14.628H73.8726V13.628H73.5526V14.628ZM73.3726 14.128V26H74.3726V14.128H73.3726ZM73.8726 25.5H73.5526V26.5H73.8726V25.5ZM74.0526 26V23.472H73.0526V26H74.0526ZM73.0817 23.3038C72.5932 24.6715 71.3746 25.548 69.8566 25.548V26.548C71.7945 26.548 73.3919 25.4085 74.0234 23.6402L73.0817 23.3038ZM69.8566 25.548C67.8748 25.548 66.3406 24.0421 66.3406 21.856H65.3406C65.3406 24.5658 67.2943 26.548 69.8566 26.548V25.548ZM66.3406 21.856C66.3406 19.6724 67.8723 18.18 69.8566 18.18V17.18C67.2969 17.18 65.3406 19.1436 65.3406 21.856H66.3406ZM69.8566 18.18C71.3756 18.18 72.5944 19.0576 73.0822 20.4097L74.0229 20.0703C73.3908 18.3184 71.7935 17.18 69.8566 17.18V18.18ZM74.0526 20.24V14.128H73.0526V20.24H74.0526ZM69.8566 26.244C72.2627 26.244 74.0526 24.4018 74.0526 21.856H73.0526C73.0526 23.8862 71.6744 25.244 69.8566 25.244V26.244ZM74.0526 21.856C74.0526 19.3074 72.26 17.484 69.8566 17.484V18.484C71.6771 18.484 73.0526 19.8286 73.0526 21.856H74.0526ZM69.8566 17.484C67.4531 17.484 65.6606 19.3074 65.6606 21.856H66.6606C66.6606 19.8286 68.036 18.484 69.8566 18.484V17.484ZM65.6606 21.856C65.6606 24.4018 67.4504 26.244 69.8566 26.244V25.244C68.0387 25.244 66.6606 23.8862 66.6606 21.856H65.6606Z" fill="#F5F1E6"/>
<defs>
<filter id="filter0_d_444_2" x="0" y="0" width="110.795" height="46.7539" filterUnits="userSpaceOnUse" color-interpolation-filters="sRGB">
<feFlood flood-opacity="0" result="BackgroundImageFix"/>
<feColorMatrix in="SourceAlpha" type="matrix" values="0 0 0 0 0 0 0 0 0 0 0 0 0 0 0 0 0 0 127 0" result="hardAlpha"/>
<feOffset dy="3"/>
<feGaussianBlur stdDeviation="1.5"/>
<feComposite in2="hardAlpha" operator="out"/>
<feColorMatrix type="matrix" values="0 0 0 0 0 0 0 0 0 0 0 0 0 0 0 0 0 0 0.160784 0"/>
<feBlend mode="normal" in2="BackgroundImageFix" result="effect1_dropShadow_444_2"/>
<feBlend mode="normal" in="SourceGraphic" in2="effect1_dropShadow_444_2" result="shape"/>
</filter>
</defs>
</svg>
