<svg xmlns="http://www.w3.org/2000/svg" width="159" height="51" viewBox="0 0 159 51">
  <defs>
    <style>
      .cls-1 {
        fill: #d0fd0c;
      }

      .cls-2, .cls-3 {
        fill: #f5f1e6;
      }

      .cls-2 {
        font-size: 20px;
        font-family: Montserrat-Thin, Montserrat;
        font-weight: 200;
      }
    </style>
  </defs>
  <g id="Group_130" data-name="Group 130" transform="translate(-30 -519.5)">
    <g id="Group_131" data-name="Group 131">
      <path id="Rectangle_158" data-name="Rectangle 158" class="cls-1" d="M19,1A18,18,0,0,0,1,19V32A18,18,0,0,0,19,50H140a18,18,0,0,0,18-18V19A18,18,0,0,0,140,1H19m0-1H140a19,19,0,0,1,19,19V32a19,19,0,0,1-19,19H19A19,19,0,0,1,0,32V19A19,19,0,0,1,19,0Z" transform="translate(30 519.5)"/>
    </g>
    <text id="Let_s_start" data-name="Let’s start" class="cls-2" transform="translate(96 551.564)"><tspan x="-46.36" y="0">Let’s start</tspan></text>
    <path id="Let_s_start_-_Outline" data-name="Let’s start - Outline" class="cls-3" d="M43.56.56a2.8,2.8,0,0,1-3-3.04V-9.46h-2v-1.38h2V-13.1h1.4v2.26h3.5v1.38h-3.5v6.88c0,1.2.515,1.76,1.62,1.76a1.968,1.968,0,0,0,1.375-.5l.353-.337.972.972-.339.353A3.332,3.332,0,0,1,43.56.56ZM24.12.56A4.727,4.727,0,0,1,21.1-.349,3.1,3.1,0,0,1,19.96-2.84c0-.986.407-3.28,4.18-3.28h3.42v-.64a2.826,2.826,0,0,0-.689-2.084A2.883,2.883,0,0,0,24.78-9.52a4.9,4.9,0,0,0-3.415,1.3l-.353.338-.987-.987.368-.353A6.422,6.422,0,0,1,24.76-10.9a4.272,4.272,0,0,1,3.1,1.067,4.089,4.089,0,0,1,1.1,3.053V.5h-1.4V-.67A4.888,4.888,0,0,1,24.12.56Zm0-5.3c-1.831,0-2.76.633-2.76,1.88,0,1.3,1.006,2.04,2.76,2.04a3.418,3.418,0,0,0,3.44-2.24V-4.74ZM16.36.56a2.8,2.8,0,0,1-3-3.04V-9.46h-2v-1.38h2V-13.1h1.4v2.26h3.5v1.38h-3.5v6.88c0,1.2.515,1.76,1.62,1.76a1.968,1.968,0,0,0,1.375-.5l.353-.337.972.972-.339.353A3.332,3.332,0,0,1,16.36.56ZM6.82.56a6.32,6.32,0,0,1-4.4-1.575l-.291-.306.835-1.113.408.4A5.123,5.123,0,0,0,6.82-.82a4.03,4.03,0,0,0,2.347-.543A1.45,1.45,0,0,0,9.76-2.62c0-1.192-1.116-1.468-2.936-1.821C4.978-4.8,2.68-5.242,2.68-7.74c0-1.458,1.089-3.16,4.16-3.16a6.23,6.23,0,0,1,3.737,1.173l.37.3L10.11-8.306l-.4-.324A4.7,4.7,0,0,0,6.84-9.52c-1.023,0-2.74.231-2.74,1.78,0,1.264,1.142,1.552,3.006,1.918a9.149,9.149,0,0,1,2.65.795,2.59,2.59,0,0,1,1.4,2.407A2.8,2.8,0,0,1,10.006-.294,5.26,5.26,0,0,1,6.82.56ZM-7.44.56a6.32,6.32,0,0,1-4.4-1.575l-.291-.306.835-1.113.408.4A5.123,5.123,0,0,0-7.44-.82a4.03,4.03,0,0,0,2.347-.543A1.45,1.45,0,0,0-4.5-2.62c0-1.192-1.116-1.468-2.936-1.821-1.846-.357-4.144-.8-4.144-3.3,0-1.458,1.089-3.16,4.16-3.16A6.23,6.23,0,0,1-3.683-9.727l.37.3L-4.15-8.306l-.4-.324A4.7,4.7,0,0,0-7.42-9.52c-1.023,0-2.74.231-2.74,1.78,0,1.264,1.142,1.552,3.006,1.918a9.149,9.149,0,0,1,2.65.795A2.59,2.59,0,0,1-3.1-2.62,2.8,2.8,0,0,1-4.254-.294,5.26,5.26,0,0,1-7.44.56Zm-10.82,0a2.8,2.8,0,0,1-3-3.04V-9.46h-2v-1.38h2V-13.1h1.4v2.26h3.5v1.38h-3.5v6.88c0,1.2.515,1.76,1.62,1.76a1.968,1.968,0,0,0,1.375-.5l.353-.337.972.972-.339.353A3.332,3.332,0,0,1-18.26.56Zm-10.46,0a5.513,5.513,0,0,1-5.66-5.74,5.984,5.984,0,0,1,1.5-4.1A5.085,5.085,0,0,1-29.1-10.9a5.156,5.156,0,0,1,3.782,1.591A5.792,5.792,0,0,1-23.8-5.28v.6h-9.177A4.1,4.1,0,0,0-28.72-.82a3.838,3.838,0,0,0,3.122-1.4l.347-.456,1.006,1.006-.288.35A5.359,5.359,0,0,1-28.72.56Zm-4.224-6.62h7.708A3.918,3.918,0,0,0-29.1-9.52,3.906,3.906,0,0,0-32.944-6.06ZM33.84.5h-1.4V-10.84h1.4v1.332A4.67,4.67,0,0,1,37.4-10.9h.5v1.4h-.62c-2.186,0-3.44,1.436-3.44,3.94Zm-68.3,0H-44.2v-15h1.4V-.88h8.34Zm20.992-11.12h-1.369l.62-2.93a1.012,1.012,0,0,1-.443-.83,1.021,1.021,0,0,1,1.02-1.02,1.035,1.035,0,0,1,1.02,1.02,2.578,2.578,0,0,1-.063.541c-.008.04-.016.082-.025.128l-.006.03Z" transform="translate(96 551.564)"/>
    <path id="Icon_ionic-ios-arrow-back" data-name="Icon ionic-ios-arrow-back" class="cls-3" d="M16.28,12.489,11.515,7.727A.9.9,0,1,1,12.79,6.457l5.4,5.395a.9.9,0,0,1,.026,1.241l-5.421,5.432a.9.9,0,1,1-1.275-1.271Z" transform="translate(158.247 532.074)"/>
  </g>
</svg>
