<svg width="226" height="145" viewBox="0 0 226 145" fill="none" xmlns="http://www.w3.org/2000/svg">
<path d="M14.15 11.5C17.5833 11.5 20.2167 12.3667 22.05 14.1C23.8833 15.8 24.8 18.3333 24.8 21.7V38H21.4V33.9C20.6 35.2667 19.4167 36.3333 17.85 37.1C16.3167 37.8667 14.4833 38.25 12.35 38.25C9.41667 38.25 7.08333 37.55 5.35 36.15C3.61667 34.75 2.75 32.9 2.75 30.6C2.75 28.3667 3.55 26.5667 5.15 25.2C6.78333 23.8333 9.36667 23.15 12.9 23.15H21.25V21.55C21.25 19.2833 20.6167 17.5667 19.35 16.4C18.0833 15.2 16.2333 14.6 13.8 14.6C12.1333 14.6 10.5333 14.8833 9 15.45C7.46667 15.9833 6.15 16.7333 5.05 17.7L3.45 15.05C4.78333 13.9167 6.38333 13.05 8.25 12.45C10.1167 11.8167 12.0833 11.5 14.15 11.5ZM12.9 35.45C14.9 35.45 16.6167 35 18.05 34.1C19.4833 33.1667 20.55 31.8333 21.25 30.1V25.8H13C8.5 25.8 6.25 27.3667 6.25 30.5C6.25 32.0333 6.83333 33.25 8 34.15C9.16667 35.0167 10.8 35.45 12.9 35.45ZM45.7422 11.5C48.2089 11.5 50.4422 12.0667 52.4422 13.2C54.4422 14.3 56.0089 15.8667 57.1422 17.9C58.2755 19.9333 58.8422 22.25 58.8422 24.85C58.8422 27.45 58.2755 29.7667 57.1422 31.8C56.0089 33.8333 54.4422 35.4167 52.4422 36.55C50.4422 37.6833 48.2089 38.25 45.7422 38.25C43.5422 38.25 41.5589 37.7833 39.7922 36.85C38.0589 35.9167 36.6589 34.5667 35.5922 32.8V38H32.1922V0.899998H35.7422V16.7C36.8422 15 38.2422 13.7167 39.9422 12.85C41.6755 11.95 43.6089 11.5 45.7422 11.5ZM45.4922 35.1C47.3255 35.1 48.9922 34.6833 50.4922 33.85C51.9922 32.9833 53.1589 31.7667 53.9922 30.2C54.8589 28.6333 55.2922 26.85 55.2922 24.85C55.2922 22.85 54.8589 21.0667 53.9922 19.5C53.1589 17.9333 51.9922 16.7333 50.4922 15.9C48.9922 15.0333 47.3255 14.6 45.4922 14.6C43.6255 14.6 41.9422 15.0333 40.4422 15.9C38.9755 16.7333 37.8089 17.9333 36.9422 19.5C36.1089 21.0667 35.6922 22.85 35.6922 24.85C35.6922 26.85 36.1089 28.6333 36.9422 30.2C37.8089 31.7667 38.9755 32.9833 40.4422 33.85C41.9422 34.6833 43.6255 35.1 45.4922 35.1ZM74.5789 38.25C72.0456 38.25 69.7622 37.6833 67.7289 36.55C65.6956 35.3833 64.0956 33.7833 62.9289 31.75C61.7622 29.7167 61.1789 27.4167 61.1789 24.85C61.1789 22.2833 61.7622 19.9833 62.9289 17.95C64.0956 15.9167 65.6956 14.3333 67.7289 13.2C69.7622 12.0667 72.0456 11.5 74.5789 11.5C77.1122 11.5 79.3956 12.0667 81.4289 13.2C83.4622 14.3333 85.0456 15.9167 86.1789 17.95C87.3456 19.9833 87.9289 22.2833 87.9289 24.85C87.9289 27.4167 87.3456 29.7167 86.1789 31.75C85.0456 33.7833 83.4622 35.3833 81.4289 36.55C79.3956 37.6833 77.1122 38.25 74.5789 38.25ZM74.5789 35.1C76.4456 35.1 78.1122 34.6833 79.5789 33.85C81.0789 32.9833 82.2456 31.7667 83.0789 30.2C83.9122 28.6333 84.3289 26.85 84.3289 24.85C84.3289 22.85 83.9122 21.0667 83.0789 19.5C82.2456 17.9333 81.0789 16.7333 79.5789 15.9C78.1122 15.0333 76.4456 14.6 74.5789 14.6C72.7122 14.6 71.0289 15.0333 69.5289 15.9C68.0622 16.7333 66.8956 17.9333 66.0289 19.5C65.1956 21.0667 64.7789 22.85 64.7789 24.85C64.7789 26.85 65.1956 28.6333 66.0289 30.2C66.8956 31.7667 68.0622 32.9833 69.5289 33.85C71.0289 34.6833 72.7122 35.1 74.5789 35.1ZM116.627 11.7V38H113.227V33.2C112.293 34.8 111.01 36.05 109.377 36.95C107.743 37.8167 105.877 38.25 103.777 38.25C100.343 38.25 97.6266 37.3 95.6266 35.4C93.6599 33.4667 92.6766 30.65 92.6766 26.95V11.7H96.2266V26.6C96.2266 29.3667 96.9099 31.4667 98.2766 32.9C99.6432 34.3333 101.593 35.05 104.127 35.05C106.893 35.05 109.077 34.2167 110.677 32.55C112.277 30.85 113.077 28.5 113.077 25.5V11.7H116.627ZM138.169 36.4C137.502 37 136.669 37.4667 135.669 37.8C134.702 38.1 133.686 38.25 132.619 38.25C130.152 38.25 128.252 37.5833 126.919 36.25C125.586 34.9167 124.919 33.0333 124.919 30.6V14.7H120.219V11.7H124.919V5.95H128.469V11.7H136.469V14.7H128.469V30.4C128.469 31.9667 128.852 33.1667 129.619 34C130.419 34.8 131.552 35.2 133.019 35.2C133.752 35.2 134.452 35.0833 135.119 34.85C135.819 34.6167 136.419 34.2833 136.919 33.85L138.169 36.4ZM167.068 36.4C166.401 37 165.568 37.4667 164.568 37.8C163.601 38.1 162.584 38.25 161.518 38.25C159.051 38.25 157.151 37.5833 155.818 36.25C154.484 34.9167 153.818 33.0333 153.818 30.6V14.7H149.118V11.7H153.818V5.95H157.368V11.7H165.368V14.7H157.368V30.4C157.368 31.9667 157.751 33.1667 158.518 34C159.318 34.8 160.451 35.2 161.918 35.2C162.651 35.2 163.351 35.0833 164.018 34.85C164.718 34.6167 165.318 34.2833 165.818 33.85L167.068 36.4ZM184.68 11.5C187.98 11.5 190.597 12.4667 192.53 14.4C194.497 16.3 195.48 19.0833 195.48 22.75V38H191.93V23.1C191.93 20.3667 191.247 18.2833 189.88 16.85C188.513 15.4167 186.563 14.7 184.03 14.7C181.197 14.7 178.947 15.55 177.28 17.25C175.647 18.9167 174.83 21.2333 174.83 24.2V38H171.28V0.899998H174.83V16.3C175.797 14.7667 177.13 13.5833 178.83 12.75C180.53 11.9167 182.48 11.5 184.68 11.5ZM225.866 25.95H203.866C204.066 28.6833 205.116 30.9 207.016 32.6C208.916 34.2667 211.316 35.1 214.216 35.1C215.849 35.1 217.349 34.8167 218.716 34.25C220.082 33.65 221.266 32.7833 222.266 31.65L224.266 33.95C223.099 35.35 221.632 36.4167 219.866 37.15C218.132 37.8833 216.216 38.25 214.116 38.25C211.416 38.25 209.016 37.6833 206.916 36.55C204.849 35.3833 203.232 33.7833 202.066 31.75C200.899 29.7167 200.316 27.4167 200.316 24.85C200.316 22.2833 200.866 19.9833 201.966 17.95C203.099 15.9167 204.632 14.3333 206.566 13.2C208.532 12.0667 210.732 11.5 213.166 11.5C215.599 11.5 217.782 12.0667 219.716 13.2C221.649 14.3333 223.166 15.9167 224.266 17.95C225.366 19.95 225.916 22.25 225.916 24.85L225.866 25.95ZM213.166 14.55C210.632 14.55 208.499 15.3667 206.766 17C205.066 18.6 204.099 20.7 203.866 23.3H222.516C222.282 20.7 221.299 18.6 219.566 17C217.866 15.3667 215.732 14.55 213.166 14.55ZM13.65 52.65C12.1167 52.65 10.95 53.0667 10.15 53.9C9.38333 54.7333 9 55.9667 9 57.6V60.7H17.1V63.7H9.1V87H5.55V63.7H0.85V60.7H5.55V57.45C5.55 55.05 6.23333 53.15 7.6 51.75C9 50.35 10.9667 49.65 13.5 49.65C14.5 49.65 15.4667 49.8 16.4 50.1C17.3333 50.3667 18.1167 50.7667 18.75 51.3L17.55 53.95C16.5167 53.0833 15.2167 52.65 13.65 52.65ZM42.1039 74.95H20.1039C20.3039 77.6833 21.3539 79.9 23.2539 81.6C25.1539 83.2667 27.5539 84.1 30.4539 84.1C32.0872 84.1 33.5872 83.8167 34.9539 83.25C36.3206 82.65 37.5039 81.7833 38.5039 80.65L40.5039 82.95C39.3372 84.35 37.8706 85.4167 36.1039 86.15C34.3706 86.8833 32.4539 87.25 30.3539 87.25C27.6539 87.25 25.2539 86.6833 23.1539 85.55C21.0872 84.3833 19.4706 82.7833 18.3039 80.75C17.1372 78.7167 16.5539 76.4167 16.5539 73.85C16.5539 71.2833 17.1039 68.9833 18.2039 66.95C19.3372 64.9167 20.8706 63.3333 22.8039 62.2C24.7706 61.0667 26.9706 60.5 29.4039 60.5C31.8372 60.5 34.0206 61.0667 35.9539 62.2C37.8872 63.3333 39.4039 64.9167 40.5039 66.95C41.6039 68.95 42.1539 71.25 42.1539 73.85L42.1039 74.95ZM29.4039 63.55C26.8706 63.55 24.7372 64.3667 23.0039 66C21.3039 67.6 20.3372 69.7 20.1039 72.3H38.7539C38.5206 69.7 37.5372 67.6 35.8039 66C34.1039 64.3667 31.9706 63.55 29.4039 63.55ZM70.0297 74.95H48.0297C48.2297 77.6833 49.2797 79.9 51.1797 81.6C53.0797 83.2667 55.4797 84.1 58.3797 84.1C60.013 84.1 61.513 83.8167 62.8797 83.25C64.2464 82.65 65.4297 81.7833 66.4297 80.65L68.4297 82.95C67.263 84.35 65.7964 85.4167 64.0297 86.15C62.2964 86.8833 60.3797 87.25 58.2797 87.25C55.5797 87.25 53.1797 86.6833 51.0797 85.55C49.013 84.3833 47.3964 82.7833 46.2297 80.75C45.063 78.7167 44.4797 76.4167 44.4797 73.85C44.4797 71.2833 45.0297 68.9833 46.1297 66.95C47.263 64.9167 48.7964 63.3333 50.7297 62.2C52.6964 61.0667 54.8964 60.5 57.3297 60.5C59.763 60.5 61.9464 61.0667 63.8797 62.2C65.813 63.3333 67.3297 64.9167 68.4297 66.95C69.5297 68.95 70.0797 71.25 70.0797 73.85L70.0297 74.95ZM57.3297 63.55C54.7964 63.55 52.663 64.3667 50.9297 66C49.2297 67.6 48.263 69.7 48.0297 72.3H66.6797C66.4464 69.7 65.463 67.6 63.7297 66C62.0297 64.3667 59.8964 63.55 57.3297 63.55ZM75.0555 49.9H78.6055V87H75.0555V49.9ZM86.2332 60.7H89.7832V87H86.2332V60.7ZM88.0332 54.95C87.2999 54.95 86.6832 54.7 86.1832 54.2C85.6832 53.7 85.4332 53.1 85.4332 52.4C85.4332 51.7333 85.6832 51.15 86.1832 50.65C86.6832 50.15 87.2999 49.9 88.0332 49.9C88.7665 49.9 89.3832 50.15 89.8832 50.65C90.3832 51.1167 90.6332 51.6833 90.6332 52.35C90.6332 53.0833 90.3832 53.7 89.8832 54.2C89.3832 54.7 88.7665 54.95 88.0332 54.95ZM110.811 60.5C114.111 60.5 116.728 61.4667 118.661 63.4C120.628 65.3 121.611 68.0833 121.611 71.75V87H118.061V72.1C118.061 69.3667 117.378 67.2833 116.011 65.85C114.644 64.4167 112.694 63.7 110.161 63.7C107.328 63.7 105.078 64.55 103.411 66.25C101.778 67.9167 100.961 70.2333 100.961 73.2V87H97.4109V60.7H100.811V65.55C101.778 63.95 103.111 62.7167 104.811 61.85C106.544 60.95 108.544 60.5 110.811 60.5ZM153.446 60.7V83.8C153.446 88.2667 152.346 91.5667 150.146 93.7C147.98 95.8667 144.696 96.95 140.296 96.95C137.863 96.95 135.546 96.5833 133.346 95.85C131.18 95.15 129.413 94.1667 128.046 92.9L129.846 90.2C131.113 91.3333 132.646 92.2167 134.446 92.85C136.28 93.4833 138.196 93.8 140.196 93.8C143.53 93.8 145.98 93.0167 147.546 91.45C149.113 89.9167 149.896 87.5167 149.896 84.25V80.9C148.796 82.5667 147.346 83.8333 145.546 84.7C143.78 85.5667 141.813 86 139.646 86C137.18 86 134.93 85.4667 132.896 84.4C130.896 83.3 129.313 81.7833 128.146 79.85C127.013 77.8833 126.446 75.6667 126.446 73.2C126.446 70.7333 127.013 68.5333 128.146 66.6C129.313 64.6667 130.896 63.1667 132.896 62.1C134.896 61.0333 137.146 60.5 139.646 60.5C141.88 60.5 143.896 60.95 145.696 61.85C147.496 62.75 148.946 64.05 150.046 65.75V60.7H153.446ZM139.996 82.85C141.896 82.85 143.613 82.45 145.146 81.65C146.68 80.8167 147.863 79.6667 148.696 78.2C149.563 76.7333 149.996 75.0667 149.996 73.2C149.996 71.3333 149.563 69.6833 148.696 68.25C147.863 66.7833 146.68 65.65 145.146 64.85C143.646 64.0167 141.93 63.6 139.996 63.6C138.096 63.6 136.38 64 134.846 64.8C133.346 65.6 132.163 66.7333 131.296 68.2C130.463 69.6667 130.046 71.3333 130.046 73.2C130.046 75.0667 130.463 76.7333 131.296 78.2C132.163 79.6667 133.346 80.8167 134.846 81.65C136.38 82.45 138.096 82.85 139.996 82.85ZM182.71 87.25C180.176 87.25 177.893 86.6833 175.86 85.55C173.826 84.3833 172.226 82.7833 171.06 80.75C169.893 78.7167 169.31 76.4167 169.31 73.85C169.31 71.2833 169.893 68.9833 171.06 66.95C172.226 64.9167 173.826 63.3333 175.86 62.2C177.893 61.0667 180.176 60.5 182.71 60.5C185.243 60.5 187.526 61.0667 189.56 62.2C191.593 63.3333 193.176 64.9167 194.31 66.95C195.476 68.9833 196.06 71.2833 196.06 73.85C196.06 76.4167 195.476 78.7167 194.31 80.75C193.176 82.7833 191.593 84.3833 189.56 85.55C187.526 86.6833 185.243 87.25 182.71 87.25ZM182.71 84.1C184.576 84.1 186.243 83.6833 187.71 82.85C189.21 81.9833 190.376 80.7667 191.21 79.2C192.043 77.6333 192.46 75.85 192.46 73.85C192.46 71.85 192.043 70.0667 191.21 68.5C190.376 66.9333 189.21 65.7333 187.71 64.9C186.243 64.0333 184.576 63.6 182.71 63.6C180.843 63.6 179.16 64.0333 177.66 64.9C176.193 65.7333 175.026 66.9333 174.16 68.5C173.326 70.0667 172.91 71.85 172.91 73.85C172.91 75.85 173.326 77.6333 174.16 79.2C175.026 80.7667 176.193 81.9833 177.66 82.85C179.16 83.6833 180.843 84.1 182.71 84.1ZM209.757 52.65C208.224 52.65 207.057 53.0667 206.257 53.9C205.491 54.7333 205.107 55.9667 205.107 57.6V60.7H213.207V63.7H205.207V87H201.657V63.7H196.957V60.7H201.657V57.45C201.657 55.05 202.341 53.15 203.707 51.75C205.107 50.35 207.074 49.65 209.607 49.65C210.607 49.65 211.574 49.8 212.507 50.1C213.441 50.3667 214.224 50.7667 214.857 51.3L213.657 53.95C212.624 53.0833 211.324 52.65 209.757 52.65ZM4.95 108.7H8.5V135H4.95V108.7ZM6.75 102.95C6.01667 102.95 5.4 102.7 4.9 102.2C4.4 101.7 4.15 101.1 4.15 100.4C4.15 99.7333 4.4 99.15 4.9 98.65C5.4 98.15 6.01667 97.9 6.75 97.9C7.48333 97.9 8.1 98.15 8.6 98.65C9.1 99.1167 9.35 99.6833 9.35 100.35C9.35 101.083 9.1 101.7 8.6 102.2C8.1 102.7 7.48333 102.95 6.75 102.95ZM29.5277 108.5C32.8277 108.5 35.4444 109.467 37.3777 111.4C39.3444 113.3 40.3277 116.083 40.3277 119.75V135H36.7777V120.1C36.7777 117.367 36.0944 115.283 34.7277 113.85C33.3611 112.417 31.4111 111.7 28.8777 111.7C26.0444 111.7 23.7944 112.55 22.1277 114.25C20.4944 115.917 19.6777 118.233 19.6777 121.2V135H16.1277V108.7H19.5277V113.55C20.4944 111.95 21.8277 110.717 23.5277 109.85C25.2611 108.95 27.2611 108.5 29.5277 108.5ZM56.4156 100.65C54.8823 100.65 53.7156 101.067 52.9156 101.9C52.149 102.733 51.7656 103.967 51.7656 105.6V108.7H59.8656V111.7H51.8656V135H48.3156V111.7H43.6156V108.7H48.3156V105.45C48.3156 103.05 48.999 101.15 50.3656 99.75C51.7656 98.35 53.7323 97.65 56.2656 97.65C57.2656 97.65 58.2323 97.8 59.1656 98.1C60.099 98.3667 60.8823 98.7667 61.5156 99.3L60.3156 101.95C59.2823 101.083 57.9823 100.65 56.4156 100.65ZM84.8695 122.95H62.8695C63.0695 125.683 64.1195 127.9 66.0195 129.6C67.9195 131.267 70.3195 132.1 73.2195 132.1C74.8529 132.1 76.3529 131.817 77.7195 131.25C79.0862 130.65 80.2695 129.783 81.2695 128.65L83.2695 130.95C82.1029 132.35 80.6362 133.417 78.8695 134.15C77.1362 134.883 75.2195 135.25 73.1195 135.25C70.4195 135.25 68.0195 134.683 65.9195 133.55C63.8529 132.383 62.2362 130.783 61.0695 128.75C59.9029 126.717 59.3195 124.417 59.3195 121.85C59.3195 119.283 59.8695 116.983 60.9695 114.95C62.1029 112.917 63.6362 111.333 65.5695 110.2C67.5362 109.067 69.7362 108.5 72.1695 108.5C74.6029 108.5 76.7862 109.067 78.7195 110.2C80.6529 111.333 82.1695 112.917 83.2695 114.95C84.3695 116.95 84.9195 119.25 84.9195 121.85L84.8695 122.95ZM72.1695 111.55C69.6362 111.55 67.5029 112.367 65.7695 114C64.0695 115.6 63.1029 117.7 62.8695 120.3H81.5195C81.2862 117.7 80.3029 115.6 78.5695 114C76.8695 112.367 74.7362 111.55 72.1695 111.55ZM93.2953 113.85C94.1286 112.083 95.362 110.75 96.9953 109.85C98.662 108.95 100.712 108.5 103.145 108.5V111.95L102.295 111.9C99.5286 111.9 97.362 112.75 95.7953 114.45C94.2286 116.15 93.4453 118.533 93.4453 121.6V135H89.8953V108.7H93.2953V113.85ZM107.323 108.7H110.873V135H107.323V108.7ZM109.123 102.95C108.39 102.95 107.773 102.7 107.273 102.2C106.773 101.7 106.523 101.1 106.523 100.4C106.523 99.7333 106.773 99.15 107.273 98.65C107.773 98.15 108.39 97.9 109.123 97.9C109.856 97.9 110.473 98.15 110.973 98.65C111.473 99.1167 111.723 99.6833 111.723 100.35C111.723 101.083 111.473 101.7 110.973 102.2C110.473 102.7 109.856 102.95 109.123 102.95ZM129.251 135.25C126.717 135.25 124.434 134.683 122.401 133.55C120.367 132.383 118.767 130.783 117.601 128.75C116.434 126.717 115.851 124.417 115.851 121.85C115.851 119.283 116.434 116.983 117.601 114.95C118.767 112.917 120.367 111.333 122.401 110.2C124.434 109.067 126.717 108.5 129.251 108.5C131.784 108.5 134.067 109.067 136.101 110.2C138.134 111.333 139.717 112.917 140.851 114.95C142.017 116.983 142.601 119.283 142.601 121.85C142.601 124.417 142.017 126.717 140.851 128.75C139.717 130.783 138.134 132.383 136.101 133.55C134.067 134.683 131.784 135.25 129.251 135.25ZM129.251 132.1C131.117 132.1 132.784 131.683 134.251 130.85C135.751 129.983 136.917 128.767 137.751 127.2C138.584 125.633 139.001 123.85 139.001 121.85C139.001 119.85 138.584 118.067 137.751 116.5C136.917 114.933 135.751 113.733 134.251 112.9C132.784 112.033 131.117 111.6 129.251 111.6C127.384 111.6 125.701 112.033 124.201 112.9C122.734 113.733 121.567 114.933 120.701 116.5C119.867 118.067 119.451 119.85 119.451 121.85C119.451 123.85 119.867 125.633 120.701 127.2C121.567 128.767 122.734 129.983 124.201 130.85C125.701 131.683 127.384 132.1 129.251 132.1ZM150.998 113.85C151.832 112.083 153.065 110.75 154.698 109.85C156.365 108.95 158.415 108.5 160.848 108.5V111.95L159.998 111.9C157.232 111.9 155.065 112.75 153.498 114.45C151.932 116.15 151.148 118.533 151.148 121.6V135H147.598V108.7H150.998V113.85ZM165.026 108.7H168.576V135H165.026V108.7ZM166.826 102.95C166.093 102.95 165.476 102.7 164.976 102.2C164.476 101.7 164.226 101.1 164.226 100.4C164.226 99.7333 164.476 99.15 164.976 98.65C165.476 98.15 166.093 97.9 166.826 97.9C167.56 97.9 168.176 98.15 168.676 98.65C169.176 99.1167 169.426 99.6833 169.426 100.35C169.426 101.083 169.176 101.7 168.676 102.2C168.176 102.7 167.56 102.95 166.826 102.95ZM190.054 133.4C189.387 134 188.554 134.467 187.554 134.8C186.587 135.1 185.571 135.25 184.504 135.25C182.037 135.25 180.137 134.583 178.804 133.25C177.471 131.917 176.804 130.033 176.804 127.6V111.7H172.104V108.7H176.804V102.95H180.354V108.7H188.354V111.7H180.354V127.4C180.354 128.967 180.737 130.167 181.504 131C182.304 131.8 183.437 132.2 184.904 132.2C185.637 132.2 186.337 132.083 187.004 131.85C187.704 131.617 188.304 131.283 188.804 130.85L190.054 133.4ZM215.878 108.7L202.728 138.15C201.661 140.617 200.428 142.367 199.028 143.4C197.628 144.433 195.945 144.95 193.978 144.95C192.711 144.95 191.528 144.75 190.428 144.35C189.328 143.95 188.378 143.35 187.578 142.55L189.228 139.9C190.561 141.233 192.161 141.9 194.028 141.9C195.228 141.9 196.245 141.567 197.078 140.9C197.945 140.233 198.745 139.1 199.478 137.5L200.628 134.95L188.878 108.7H192.578L202.478 131.05L212.378 108.7H215.878Z" fill="black"/>
</svg>
