<svg width="324" height="413" viewBox="0 0 324 413" fill="none" xmlns="http://www.w3.org/2000/svg">
<path d="M41.13 38.86H12.6L6.66 52H0.18L23.67 1.15H30.06L53.55 52H47.07L41.13 38.86ZM38.79 33.64L26.91 7.27L14.94 33.64H38.79ZM93.5691 25.72C96.9291 26.5 99.4791 27.97 101.219 30.13C103.019 32.23 103.919 34.96 103.919 38.32C103.919 42.7 102.239 46.09 98.8791 48.49C95.5791 50.83 90.6891 52 84.2091 52H60.0891V1.15H82.7691C88.5891 1.15 93.0891 2.29 96.2691 4.57C99.5091 6.85 101.129 10.06 101.129 14.2C101.129 16.96 100.469 19.33 99.1491 21.31C97.8291 23.23 95.9691 24.7 93.5691 25.72ZM66.5691 6.19V23.74H82.2291C86.2491 23.74 89.3391 22.99 91.4991 21.49C93.6591 19.99 94.7391 17.8 94.7391 14.92C94.7391 12.04 93.6591 9.88 91.4991 8.44C89.3391 6.94 86.2491 6.19 82.2291 6.19H66.5691ZM83.9391 46.96C92.8791 46.96 97.3491 43.93 97.3491 37.87C97.3491 34.75 96.2091 32.47 93.9291 31.03C91.7091 29.53 88.3791 28.78 83.9391 28.78H66.5691V46.96H83.9391ZM136.472 52.54C131.372 52.54 126.722 51.43 122.522 49.21C118.382 46.93 115.112 43.81 112.712 39.85C110.372 35.89 109.202 31.45 109.202 26.53C109.202 21.67 110.372 17.26 112.712 13.3C115.112 9.34 118.382 6.22 122.522 3.94C126.722 1.66 131.372 0.519998 136.472 0.519998C141.632 0.519998 146.282 1.66 150.422 3.94C154.562 6.16 157.802 9.28 160.142 13.3C162.542 17.26 163.742 21.67 163.742 26.53C163.742 31.45 162.542 35.89 160.142 39.85C157.802 43.81 154.562 46.93 150.422 49.21C146.282 51.43 141.632 52.54 136.472 52.54ZM136.472 46.96C140.372 46.96 143.912 46.09 147.092 44.35C150.272 42.55 152.762 40.12 154.562 37.06C156.362 33.94 157.262 30.46 157.262 26.62C157.262 22.72 156.362 19.24 154.562 16.18C152.762 13.06 150.272 10.63 147.092 8.89C143.912 7.09 140.372 6.19 136.472 6.19C132.572 6.19 129.032 7.09 125.852 8.89C122.672 10.63 120.182 13.06 118.382 16.18C116.582 19.24 115.682 22.72 115.682 26.62C115.682 30.46 116.582 33.94 118.382 37.06C120.182 40.12 122.672 42.55 125.852 44.35C129.032 46.09 132.572 46.96 136.472 46.96ZM195.435 52.54C188.655 52.54 183.345 50.62 179.505 46.78C175.725 42.94 173.835 37.48 173.835 30.4V1.15H180.315V30.22C180.315 35.74 181.605 39.91 184.185 42.73C186.765 45.55 190.515 46.96 195.435 46.96C200.355 46.96 204.105 45.55 206.685 42.73C209.325 39.91 210.645 35.74 210.645 30.22V1.15H216.945V30.4C216.945 37.48 215.055 42.94 211.275 46.78C207.495 50.62 202.215 52.54 195.435 52.54ZM240.953 6.55H223.043V1.15H265.343V6.55H247.433V52H240.953V6.55ZM18.27 78.55H0.36V73.15H42.66V78.55H24.75V124H18.27V78.55ZM49.2785 73.15H55.7585V124H49.2785V73.15ZM119.589 124V84.85L100.149 117.61H97.1789L77.7389 85.39V124H71.5289V73.15H77.1089L98.7089 109.6L120.219 73.15H125.799L125.889 124H119.589ZM178.67 118.6V124H141.68V73.15H177.59V78.55H148.16V95.56H174.44V100.87H148.16V118.6H178.67ZM205.861 96.82H229.441V102.4H205.861V96.82ZM45.45 196.81L38.43 189.88C33.87 194.32 28.2 196.54 21.42 196.54C18 196.54 14.91 195.97 12.15 194.83C9.45 193.69 7.32 192.1 5.76 190.06C4.26 188.02 3.51 185.68 3.51 183.04C3.51 180.1 4.47 177.43 6.39 175.03C8.37 172.57 11.61 170.11 16.11 167.65C13.83 165.31 12.24 163.27 11.34 161.53C10.44 159.73 9.99 157.84 9.99 155.86C9.99 152.5 11.19 149.8 13.59 147.76C15.99 145.66 19.23 144.61 23.31 144.61C27.09 144.61 30.09 145.57 32.31 147.49C34.59 149.35 35.73 151.87 35.73 155.05C35.73 157.69 34.89 160.03 33.21 162.07C31.53 164.11 28.65 166.24 24.57 168.46L38.07 181.96C39.63 179.26 40.8 176.08 41.58 172.42L46.53 173.86C45.57 178.36 44.01 182.29 41.85 185.65L49.05 192.85L45.45 196.81ZM23.4 149.29C20.94 149.29 19.02 149.89 17.64 151.09C16.26 152.29 15.57 153.85 15.57 155.77C15.57 157.21 15.93 158.56 16.65 159.82C17.37 161.02 18.84 162.73 21.06 164.95C24.6 163.03 27.06 161.38 28.44 160C29.82 158.56 30.51 156.97 30.51 155.23C30.51 153.43 29.88 151.99 28.62 150.91C27.42 149.83 25.68 149.29 23.4 149.29ZM21.69 191.59C27.03 191.59 31.41 189.82 34.83 186.28L19.62 171.16C15.84 173.32 13.2 175.27 11.7 177.01C10.26 178.69 9.54 180.61 9.54 182.77C9.54 185.35 10.65 187.48 12.87 189.16C15.09 190.78 18.03 191.59 21.69 191.59ZM76.3629 145.15H82.8429V167.47H113.713V145.15H120.193V196H113.713V172.96H82.8429V196H76.3629V145.15ZM158.107 196.54C153.007 196.54 148.357 195.43 144.157 193.21C140.017 190.93 136.747 187.81 134.347 183.85C132.007 179.89 130.837 175.45 130.837 170.53C130.837 165.67 132.007 161.26 134.347 157.3C136.747 153.34 140.017 150.22 144.157 147.94C148.357 145.66 153.007 144.52 158.107 144.52C163.267 144.52 167.917 145.66 172.057 147.94C176.197 150.16 179.437 153.28 181.777 157.3C184.177 161.26 185.377 165.67 185.377 170.53C185.377 175.45 184.177 179.89 181.777 183.85C179.437 187.81 176.197 190.93 172.057 193.21C167.917 195.43 163.267 196.54 158.107 196.54ZM158.107 190.96C162.007 190.96 165.547 190.09 168.727 188.35C171.907 186.55 174.397 184.12 176.197 181.06C177.997 177.94 178.897 174.46 178.897 170.62C178.897 166.72 177.997 163.24 176.197 160.18C174.397 157.06 171.907 154.63 168.727 152.89C165.547 151.09 162.007 150.19 158.107 150.19C154.207 150.19 150.667 151.09 147.487 152.89C144.307 154.63 141.817 157.06 140.017 160.18C138.217 163.24 137.317 166.72 137.317 170.62C137.317 174.46 138.217 177.94 140.017 181.06C141.817 184.12 144.307 186.55 147.487 188.35C150.667 190.09 154.207 190.96 158.107 190.96ZM265.717 145.15L248.347 196H241.597L227.017 154.06L212.437 196H205.507L188.137 145.15H194.887L209.197 187.63L224.047 145.15H230.167L244.837 187.81L259.417 145.15H265.717ZM31.5 268.54C26.4 268.54 21.78 267.43 17.64 265.21C13.5 262.93 10.23 259.81 7.83 255.85C5.49 251.89 4.32 247.45 4.32 242.53C4.32 237.67 5.49 233.26 7.83 229.3C10.23 225.34 13.5 222.22 17.64 219.94C21.78 217.66 26.4 216.52 31.5 216.52C39.84 216.52 46.29 219.04 50.85 224.08L46.71 228.31C42.69 224.23 37.68 222.19 31.68 222.19C27.72 222.19 24.15 223.09 20.97 224.89C17.79 226.63 15.3 229.06 13.5 232.18C11.7 235.24 10.8 238.69 10.8 242.53C10.8 246.37 11.7 249.85 13.5 252.97C15.3 256.03 17.79 258.46 20.97 260.26C24.15 262 27.72 262.87 31.68 262.87C37.8 262.87 42.81 260.83 46.71 256.75L50.85 260.98C46.23 266.02 39.78 268.54 31.5 268.54ZM90.5386 254.86H62.0086L56.0686 268H49.5886L73.0786 217.15H79.4686L102.959 268H96.4786L90.5386 254.86ZM88.1986 249.64L76.3186 223.27L64.3486 249.64H88.1986ZM153.328 217.15V268H147.928L115.978 228.31V268H109.498V217.15H114.898L146.848 256.84V217.15H153.328ZM261.146 217.15L243.776 268H237.026L222.446 226.06L207.866 268H200.936L183.566 217.15H190.316L204.626 259.63L219.476 217.15H225.596L240.266 259.81L254.846 217.15H261.146ZM307.985 262.6V268H270.995V217.15H306.905V222.55H277.475V239.56H303.755V244.87H277.475V262.6H307.985ZM30.51 340.54C23.73 340.54 18.42 338.62 14.58 334.78C10.8 330.94 8.91 325.48 8.91 318.4V289.15H15.39V318.22C15.39 323.74 16.68 327.91 19.26 330.73C21.84 333.55 25.59 334.96 30.51 334.96C35.43 334.96 39.18 333.55 41.76 330.73C44.4 327.91 45.72 323.74 45.72 318.22V289.15H52.02V318.4C52.02 325.48 50.13 330.94 46.35 334.78C42.57 338.62 37.29 340.54 30.51 340.54ZM81.2482 340.54C77.3482 340.54 73.5982 339.97 69.9982 338.83C66.4582 337.63 63.6682 336.07 61.6282 334.15L64.3282 329.11C66.2482 330.85 68.7382 332.29 71.7982 333.43C74.9182 334.51 78.1282 335.05 81.4282 335.05C85.8682 335.05 89.1382 334.27 91.2382 332.71C93.3982 331.15 94.4782 329.14 94.4782 326.68C94.4782 324.76 93.8782 323.23 92.6782 322.09C91.4782 320.89 89.9782 319.99 88.1782 319.39C86.3782 318.79 83.9482 318.13 80.8882 317.41C77.0482 316.51 73.9582 315.61 71.6182 314.71C69.2782 313.81 67.2682 312.43 65.5882 310.57C63.9682 308.65 63.1582 306.1 63.1582 302.92C63.1582 298.66 64.8682 295.21 68.2882 292.57C71.7082 289.87 76.4782 288.52 82.5982 288.52C85.6582 288.52 88.6282 288.91 91.5082 289.69C94.4482 290.47 96.9382 291.58 98.9782 293.02L96.6382 298.24C92.7382 295.48 87.9982 294.1 82.4182 294.1C78.1582 294.1 74.9482 294.91 72.7882 296.53C70.6282 298.09 69.5482 300.13 69.5482 302.65C69.5482 304.57 70.1482 306.13 71.3482 307.33C72.5482 308.47 74.0482 309.34 75.8482 309.94C77.7082 310.54 80.1982 311.2 83.3182 311.92C87.0982 312.82 90.1582 313.72 92.4982 314.62C94.8382 315.46 96.8182 316.81 98.4382 318.67C100.118 320.53 100.958 323.02 100.958 326.14C100.958 330.46 99.2182 333.94 95.7382 336.58C92.3182 339.22 87.4882 340.54 81.2482 340.54ZM148.158 334.6V340H111.168V289.15H147.078V294.55H117.648V311.56H143.928V316.87H117.648V334.6H148.158ZM179.399 289.15H185.879V340H179.399V289.15ZM210.469 294.55H192.559V289.15H234.859V294.55H216.949V340H210.469V294.55ZM42.93 385.72C46.29 386.5 48.84 387.97 50.58 390.13C52.38 392.23 53.28 394.96 53.28 398.32C53.28 402.7 51.6 406.09 48.24 408.49C44.94 410.83 40.05 412 33.57 412H9.45V361.15H32.13C37.95 361.15 42.45 362.29 45.63 364.57C48.87 366.85 50.49 370.06 50.49 374.2C50.49 376.96 49.83 379.33 48.51 381.31C47.19 383.23 45.33 384.7 42.93 385.72ZM15.93 366.19V383.74H31.59C35.61 383.74 38.7 382.99 40.86 381.49C43.02 379.99 44.1 377.8 44.1 374.92C44.1 372.04 43.02 369.88 40.86 368.44C38.7 366.94 35.61 366.19 31.59 366.19H15.93ZM33.3 406.96C42.24 406.96 46.71 403.93 46.71 397.87C46.71 394.75 45.57 392.47 43.29 391.03C41.07 389.53 37.74 388.78 33.3 388.78H15.93V406.96H33.3ZM100.683 406.6V412H63.6926V361.15H99.6026V366.55H70.1726V383.56H96.4526V388.87H70.1726V406.6H100.683ZM120.339 366.55H102.429V361.15H144.729V366.55H126.819V412H120.339V366.55ZM161.047 366.55H143.137V361.15H185.437V366.55H167.527V412H161.047V366.55ZM229.045 406.6V412H192.055V361.15H227.965V366.55H198.535V383.56H224.815V388.87H198.535V406.6H229.045ZM274.712 412L263.192 395.98C261.632 396.1 260.462 396.16 259.682 396.16H246.362V412H239.882V361.15H259.682C266.282 361.15 271.472 362.71 275.252 365.83C279.032 368.89 280.922 373.18 280.922 378.7C280.922 382.6 279.902 385.93 277.862 388.69C275.882 391.45 273.032 393.46 269.312 394.72L281.732 412H274.712ZM259.322 390.85C264.182 390.85 267.902 389.8 270.482 387.7C273.122 385.6 274.442 382.6 274.442 378.7C274.442 374.8 273.152 371.8 270.572 369.7C267.992 367.6 264.242 366.55 259.322 366.55H246.362V390.85H259.322ZM302.344 394.9C302.344 392.08 303.004 389.83 304.324 388.15C305.644 386.47 307.594 384.64 310.174 382.66C312.394 380.98 314.014 379.51 315.034 378.25C316.114 376.99 316.654 375.4 316.654 373.48C316.654 371.2 315.544 369.4 313.324 368.08C311.164 366.76 308.044 366.1 303.964 366.1C297.664 366.1 292.654 367.81 288.934 371.23L284.524 367.54C286.864 365.38 289.714 363.7 293.074 362.5C296.494 361.24 300.334 360.61 304.594 360.61C310.294 360.61 314.824 361.69 318.184 363.85C321.544 366.01 323.224 368.95 323.224 372.67C323.224 375.43 322.564 377.65 321.244 379.33C319.924 381.01 317.974 382.84 315.394 384.82C313.054 386.62 311.314 388.21 310.174 389.59C309.034 390.97 308.464 392.74 308.464 394.9H302.344ZM305.674 412.45C304.294 412.45 303.154 412.03 302.254 411.19C301.354 410.29 300.904 409.24 300.904 408.04C300.904 406.84 301.354 405.82 302.254 404.98C303.154 404.08 304.294 403.63 305.674 403.63C307.054 403.63 308.164 404.08 309.004 404.98C309.904 405.82 310.354 406.84 310.354 408.04C310.354 409.18 309.904 410.2 309.004 411.1C308.164 412 307.054 412.45 305.674 412.45Z" fill="#242424"/>
</svg>
