<svg width="31" height="34" viewBox="0 0 31 34" fill="none" xmlns="http://www.w3.org/2000/svg">
<path d="M29.5603 8.63781C29.5288 8.63781 29.4815 8.63781 29.4342 8.63781C21.0959 7.8024 12.7733 7.48715 4.52947 8.32256L1.31393 8.63781C0.651901 8.70086 0.0686892 8.22799 0.00563931 7.56596C-0.0574106 6.90394 0.415464 6.33649 1.06173 6.27344L4.27727 5.95819C12.663 5.10702 21.1589 5.43803 29.6707 6.27344C30.3169 6.33649 30.7898 6.9197 30.7268 7.56596C30.6795 8.1807 30.1593 8.63781 29.5603 8.63781Z" fill="#292D32"/>
<path d="M9.85914 7.04583C9.79609 7.04583 9.73304 7.04583 9.65423 7.03007C9.02373 6.91973 8.58238 6.30499 8.69271 5.67449L9.03949 3.60961C9.29169 2.09641 9.63846 0 13.3111 0H17.4408C21.1293 0 21.476 2.17522 21.7125 3.62537L22.0592 5.67449C22.1696 6.32076 21.7282 6.93549 21.0977 7.03007C20.4515 7.1404 19.8367 6.69906 19.7422 6.06856L19.3954 4.01943C19.1747 2.6481 19.1274 2.38013 17.4566 2.38013H13.3268C11.6561 2.38013 11.6245 2.60081 11.3881 4.00367L11.0256 6.05279C10.931 6.63601 10.4266 7.04583 9.85914 7.04583Z" fill="#292D32"/>
<path d="M20.4349 33.8896H10.3154C4.81427 33.8896 4.5936 30.8474 4.42021 28.3885L3.39565 12.5156C3.34836 11.8693 3.85276 11.3019 4.49902 11.2546C5.16105 11.2231 5.71274 11.7117 5.76002 12.358L6.78458 28.2308C6.95797 30.6267 7.02102 31.5252 10.3154 31.5252H20.4349C23.745 31.5252 23.8081 30.6267 23.9657 28.2308L24.9903 12.358C25.0376 11.7117 25.605 11.2231 26.2513 11.2546C26.8975 11.3019 27.4019 11.8536 27.3546 12.5156L26.3301 28.3885C26.1567 30.8474 25.936 33.8896 20.4349 33.8896Z" fill="#292D32"/>
<path d="M17.9917 25.2201H12.7428C12.0965 25.2201 11.5605 24.6842 11.5605 24.0379C11.5605 23.3916 12.0965 22.8557 12.7428 22.8557H17.9917C18.6379 22.8557 19.1739 23.3916 19.1739 24.0379C19.1739 24.6842 18.6379 25.2201 17.9917 25.2201Z" fill="#292D32"/>
<path d="M19.3154 18.9149H11.4341C10.7879 18.9149 10.252 18.379 10.252 17.7327C10.252 17.0865 10.7879 16.5505 11.4341 16.5505H19.3154C19.9616 16.5505 20.4976 17.0865 20.4976 17.7327C20.4976 18.379 19.9616 18.9149 19.3154 18.9149Z" fill="#292D32"/>
</svg>
