<svg width="7" height="6" viewBox="0 0 7 6" fill="none" xmlns="http://www.w3.org/2000/svg">
<path d="M6.30545 1.51125L5.78736 0.978439C5.76675 0.954889 5.73437 0.943115 5.70494 0.943115C5.67255 0.943115 5.64312 0.954889 5.62251 0.978439L2.03117 4.59627L0.724155 3.28926C0.700606 3.26571 0.671169 3.25394 0.641731 3.25394C0.612294 3.25394 0.582857 3.26571 0.559308 3.28926L0.0353251 3.81324C-0.011775 3.86034 -0.011775 3.93394 0.0353251 3.98104L1.68381 5.62952C1.78978 5.73549 1.91931 5.79731 2.02822 5.79731C2.18424 5.79731 2.31965 5.68251 2.3697 5.63541C2.3697 5.63541 2.3697 5.63541 2.37264 5.63541L6.3084 1.67905C6.34961 1.629 6.34961 1.55541 6.30545 1.51125Z" fill="black"/>
</svg>
